<?xml version="1.0" encoding="utf-8" standalone="no"?>
<!DOCTYPE svg PUBLIC "-//W3C//DTD SVG 1.1//EN"
  "http://www.w3.org/Graphics/SVG/1.1/DTD/svg11.dtd">
<svg xmlns:xlink="http://www.w3.org/1999/xlink" width="460.8pt" height="345.6pt" viewBox="0 0 460.8 345.6" xmlns="http://www.w3.org/2000/svg" version="1.1">
 <metadata>
  <rdf:RDF xmlns:dc="http://purl.org/dc/elements/1.1/" xmlns:cc="http://creativecommons.org/ns#" xmlns:rdf="http://www.w3.org/1999/02/22-rdf-syntax-ns#">
   <cc:Work>
    <dc:type rdf:resource="http://purl.org/dc/dcmitype/StillImage"/>
    <dc:date>2026-05-04T12:32:39.269135</dc:date>
    <dc:format>image/svg+xml</dc:format>
    <dc:creator>
     <cc:Agent>
      <dc:title>Matplotlib v3.10.9, https://matplotlib.org/</dc:title>
     </cc:Agent>
    </dc:creator>
   </cc:Work>
  </rdf:RDF>
 </metadata>
 <defs>
  <style type="text/css">*{stroke-linejoin: round; stroke-linecap: butt}</style>
 </defs>
 <g id="figure_1">
  <g id="patch_1">
   <path d="M 0 345.6 
L 460.8 345.6 
L 460.8 0 
L 0 0 
z
" style="fill: #ffffff"/>
  </g>
  <g id="axes_1">
   <g id="patch_2">
    <path d="M 57.6 307.584 
L 414.72 307.584 
L 414.72 41.472 
L 57.6 41.472 
z
" style="fill: #ffffff"/>
   </g>
   <g id="matplotlib.axis_1">
    <g id="xtick_1">
     <g id="line2d_1">
      <defs>
       <path id="m89d0105b9e" d="M 0 0 
L 0 3.5 
" style="stroke: #000000; stroke-width: 0.8"/>
      </defs>
      <g>
       <use xlink:href="#m89d0105b9e" x="73.832727" y="307.584" style="stroke: #000000; stroke-width: 0.8"/>
      </g>
     </g>
     <g id="text_1">
      <!-- 0.0min -->
      <g transform="translate(56.45304 322.182437) scale(0.1 -0.1)">
       <defs>
        <path id="DejaVuSans-30" d="M 2034 4250 
Q 1547 4250 1301 3770 
Q 1056 3291 1056 2328 
Q 1056 1369 1301 889 
Q 1547 409 2034 409 
Q 2525 409 2770 889 
Q 3016 1369 3016 2328 
Q 3016 3291 2770 3770 
Q 2525 4250 2034 4250 
z
M 2034 4750 
Q 2819 4750 3233 4129 
Q 3647 3509 3647 2328 
Q 3647 1150 3233 529 
Q 2819 -91 2034 -91 
Q 1250 -91 836 529 
Q 422 1150 422 2328 
Q 422 3509 836 4129 
Q 1250 4750 2034 4750 
z
" transform="scale(0.015625)"/>
        <path id="DejaVuSans-2e" d="M 684 794 
L 1344 794 
L 1344 0 
L 684 0 
L 684 794 
z
" transform="scale(0.015625)"/>
        <path id="DejaVuSans-6d" d="M 3328 2828 
Q 3544 3216 3844 3400 
Q 4144 3584 4550 3584 
Q 5097 3584 5394 3201 
Q 5691 2819 5691 2113 
L 5691 0 
L 5113 0 
L 5113 2094 
Q 5113 2597 4934 2840 
Q 4756 3084 4391 3084 
Q 3944 3084 3684 2787 
Q 3425 2491 3425 1978 
L 3425 0 
L 2847 0 
L 2847 2094 
Q 2847 2600 2669 2842 
Q 2491 3084 2119 3084 
Q 1678 3084 1418 2786 
Q 1159 2488 1159 1978 
L 1159 0 
L 581 0 
L 581 3500 
L 1159 3500 
L 1159 2956 
Q 1356 3278 1631 3431 
Q 1906 3584 2284 3584 
Q 2666 3584 2933 3390 
Q 3200 3197 3328 2828 
z
" transform="scale(0.015625)"/>
        <path id="DejaVuSans-69" d="M 603 3500 
L 1178 3500 
L 1178 0 
L 603 0 
L 603 3500 
z
M 603 4863 
L 1178 4863 
L 1178 4134 
L 603 4134 
L 603 4863 
z
" transform="scale(0.015625)"/>
        <path id="DejaVuSans-6e" d="M 3513 2113 
L 3513 0 
L 2938 0 
L 2938 2094 
Q 2938 2591 2744 2837 
Q 2550 3084 2163 3084 
Q 1697 3084 1428 2787 
Q 1159 2491 1159 1978 
L 1159 0 
L 581 0 
L 581 3500 
L 1159 3500 
L 1159 2956 
Q 1366 3272 1645 3428 
Q 1925 3584 2291 3584 
Q 2894 3584 3203 3211 
Q 3513 2838 3513 2113 
z
" transform="scale(0.015625)"/>
       </defs>
       <use xlink:href="#DejaVuSans-30"/>
       <use xlink:href="#DejaVuSans-2e" transform="translate(63.623047 0)"/>
       <use xlink:href="#DejaVuSans-30" transform="translate(95.410156 0)"/>
       <use xlink:href="#DejaVuSans-6d" transform="translate(159.033203 0)"/>
       <use xlink:href="#DejaVuSans-69" transform="translate(256.445312 0)"/>
       <use xlink:href="#DejaVuSans-6e" transform="translate(284.228516 0)"/>
      </g>
     </g>
    </g>
    <g id="xtick_2">
     <g id="line2d_2">
      <g>
       <use xlink:href="#m89d0105b9e" x="145.96634" y="307.584" style="stroke: #000000; stroke-width: 0.8"/>
      </g>
     </g>
     <g id="text_2">
      <!-- 16.7min -->
      <g transform="translate(125.405403 322.182437) scale(0.1 -0.1)">
       <defs>
        <path id="DejaVuSans-31" d="M 794 531 
L 1825 531 
L 1825 4091 
L 703 3866 
L 703 4441 
L 1819 4666 
L 2450 4666 
L 2450 531 
L 3481 531 
L 3481 0 
L 794 0 
L 794 531 
z
" transform="scale(0.015625)"/>
        <path id="DejaVuSans-36" d="M 2113 2584 
Q 1688 2584 1439 2293 
Q 1191 2003 1191 1497 
Q 1191 994 1439 701 
Q 1688 409 2113 409 
Q 2538 409 2786 701 
Q 3034 994 3034 1497 
Q 3034 2003 2786 2293 
Q 2538 2584 2113 2584 
z
M 3366 4563 
L 3366 3988 
Q 3128 4100 2886 4159 
Q 2644 4219 2406 4219 
Q 1781 4219 1451 3797 
Q 1122 3375 1075 2522 
Q 1259 2794 1537 2939 
Q 1816 3084 2150 3084 
Q 2853 3084 3261 2657 
Q 3669 2231 3669 1497 
Q 3669 778 3244 343 
Q 2819 -91 2113 -91 
Q 1303 -91 875 529 
Q 447 1150 447 2328 
Q 447 3434 972 4092 
Q 1497 4750 2381 4750 
Q 2619 4750 2861 4703 
Q 3103 4656 3366 4563 
z
" transform="scale(0.015625)"/>
        <path id="DejaVuSans-37" d="M 525 4666 
L 3525 4666 
L 3525 4397 
L 1831 0 
L 1172 0 
L 2766 4134 
L 525 4134 
L 525 4666 
z
" transform="scale(0.015625)"/>
       </defs>
       <use xlink:href="#DejaVuSans-31"/>
       <use xlink:href="#DejaVuSans-36" transform="translate(63.623047 0)"/>
       <use xlink:href="#DejaVuSans-2e" transform="translate(127.246094 0)"/>
       <use xlink:href="#DejaVuSans-37" transform="translate(159.033203 0)"/>
       <use xlink:href="#DejaVuSans-6d" transform="translate(222.65625 0)"/>
       <use xlink:href="#DejaVuSans-69" transform="translate(320.068359 0)"/>
       <use xlink:href="#DejaVuSans-6e" transform="translate(347.851562 0)"/>
      </g>
     </g>
    </g>
    <g id="xtick_3">
     <g id="line2d_3">
      <g>
       <use xlink:href="#m89d0105b9e" x="218.099953" y="307.584" style="stroke: #000000; stroke-width: 0.8"/>
      </g>
     </g>
     <g id="text_3">
      <!-- 33.3min -->
      <g transform="translate(197.539015 322.182437) scale(0.1 -0.1)">
       <defs>
        <path id="DejaVuSans-33" d="M 2597 2516 
Q 3050 2419 3304 2112 
Q 3559 1806 3559 1356 
Q 3559 666 3084 287 
Q 2609 -91 1734 -91 
Q 1441 -91 1130 -33 
Q 819 25 488 141 
L 488 750 
Q 750 597 1062 519 
Q 1375 441 1716 441 
Q 2309 441 2620 675 
Q 2931 909 2931 1356 
Q 2931 1769 2642 2001 
Q 2353 2234 1838 2234 
L 1294 2234 
L 1294 2753 
L 1863 2753 
Q 2328 2753 2575 2939 
Q 2822 3125 2822 3475 
Q 2822 3834 2567 4026 
Q 2313 4219 1838 4219 
Q 1578 4219 1281 4162 
Q 984 4106 628 3988 
L 628 4550 
Q 988 4650 1302 4700 
Q 1616 4750 1894 4750 
Q 2613 4750 3031 4423 
Q 3450 4097 3450 3541 
Q 3450 3153 3228 2886 
Q 3006 2619 2597 2516 
z
" transform="scale(0.015625)"/>
       </defs>
       <use xlink:href="#DejaVuSans-33"/>
       <use xlink:href="#DejaVuSans-33" transform="translate(63.623047 0)"/>
       <use xlink:href="#DejaVuSans-2e" transform="translate(127.246094 0)"/>
       <use xlink:href="#DejaVuSans-33" transform="translate(159.033203 0)"/>
       <use xlink:href="#DejaVuSans-6d" transform="translate(222.65625 0)"/>
       <use xlink:href="#DejaVuSans-69" transform="translate(320.068359 0)"/>
       <use xlink:href="#DejaVuSans-6e" transform="translate(347.851562 0)"/>
      </g>
     </g>
    </g>
    <g id="xtick_4">
     <g id="line2d_4">
      <g>
       <use xlink:href="#m89d0105b9e" x="290.233566" y="307.584" style="stroke: #000000; stroke-width: 0.8"/>
      </g>
     </g>
     <g id="text_4">
      <!-- 50.0min -->
      <g transform="translate(269.672628 322.182437) scale(0.1 -0.1)">
       <defs>
        <path id="DejaVuSans-35" d="M 691 4666 
L 3169 4666 
L 3169 4134 
L 1269 4134 
L 1269 2991 
Q 1406 3038 1543 3061 
Q 1681 3084 1819 3084 
Q 2600 3084 3056 2656 
Q 3513 2228 3513 1497 
Q 3513 744 3044 326 
Q 2575 -91 1722 -91 
Q 1428 -91 1123 -41 
Q 819 9 494 109 
L 494 744 
Q 775 591 1075 516 
Q 1375 441 1709 441 
Q 2250 441 2565 725 
Q 2881 1009 2881 1497 
Q 2881 1984 2565 2268 
Q 2250 2553 1709 2553 
Q 1456 2553 1204 2497 
Q 953 2441 691 2322 
L 691 4666 
z
" transform="scale(0.015625)"/>
       </defs>
       <use xlink:href="#DejaVuSans-35"/>
       <use xlink:href="#DejaVuSans-30" transform="translate(63.623047 0)"/>
       <use xlink:href="#DejaVuSans-2e" transform="translate(127.246094 0)"/>
       <use xlink:href="#DejaVuSans-30" transform="translate(159.033203 0)"/>
       <use xlink:href="#DejaVuSans-6d" transform="translate(222.65625 0)"/>
       <use xlink:href="#DejaVuSans-69" transform="translate(320.068359 0)"/>
       <use xlink:href="#DejaVuSans-6e" transform="translate(347.851562 0)"/>
      </g>
     </g>
    </g>
    <g id="xtick_5">
     <g id="line2d_5">
      <g>
       <use xlink:href="#m89d0105b9e" x="362.367178" y="307.584" style="stroke: #000000; stroke-width: 0.8"/>
      </g>
     </g>
     <g id="text_5">
      <!-- 66.7min -->
      <g transform="translate(341.806241 322.182437) scale(0.1 -0.1)">
       <use xlink:href="#DejaVuSans-36"/>
       <use xlink:href="#DejaVuSans-36" transform="translate(63.623047 0)"/>
       <use xlink:href="#DejaVuSans-2e" transform="translate(127.246094 0)"/>
       <use xlink:href="#DejaVuSans-37" transform="translate(159.033203 0)"/>
       <use xlink:href="#DejaVuSans-6d" transform="translate(222.65625 0)"/>
       <use xlink:href="#DejaVuSans-69" transform="translate(320.068359 0)"/>
       <use xlink:href="#DejaVuSans-6e" transform="translate(347.851562 0)"/>
      </g>
     </g>
    </g>
    <g id="text_6">
     <!-- Elapsed Time -->
     <g transform="translate(202.695156 335.860562) scale(0.1 -0.1)">
      <defs>
       <path id="DejaVuSans-45" d="M 628 4666 
L 3578 4666 
L 3578 4134 
L 1259 4134 
L 1259 2753 
L 3481 2753 
L 3481 2222 
L 1259 2222 
L 1259 531 
L 3634 531 
L 3634 0 
L 628 0 
L 628 4666 
z
" transform="scale(0.015625)"/>
       <path id="DejaVuSans-6c" d="M 603 4863 
L 1178 4863 
L 1178 0 
L 603 0 
L 603 4863 
z
" transform="scale(0.015625)"/>
       <path id="DejaVuSans-61" d="M 2194 1759 
Q 1497 1759 1228 1600 
Q 959 1441 959 1056 
Q 959 750 1161 570 
Q 1363 391 1709 391 
Q 2188 391 2477 730 
Q 2766 1069 2766 1631 
L 2766 1759 
L 2194 1759 
z
M 3341 1997 
L 3341 0 
L 2766 0 
L 2766 531 
Q 2569 213 2275 61 
Q 1981 -91 1556 -91 
Q 1019 -91 701 211 
Q 384 513 384 1019 
Q 384 1609 779 1909 
Q 1175 2209 1959 2209 
L 2766 2209 
L 2766 2266 
Q 2766 2663 2505 2880 
Q 2244 3097 1772 3097 
Q 1472 3097 1187 3025 
Q 903 2953 641 2809 
L 641 3341 
Q 956 3463 1253 3523 
Q 1550 3584 1831 3584 
Q 2591 3584 2966 3190 
Q 3341 2797 3341 1997 
z
" transform="scale(0.015625)"/>
       <path id="DejaVuSans-70" d="M 1159 525 
L 1159 -1331 
L 581 -1331 
L 581 3500 
L 1159 3500 
L 1159 2969 
Q 1341 3281 1617 3432 
Q 1894 3584 2278 3584 
Q 2916 3584 3314 3078 
Q 3713 2572 3713 1747 
Q 3713 922 3314 415 
Q 2916 -91 2278 -91 
Q 1894 -91 1617 61 
Q 1341 213 1159 525 
z
M 3116 1747 
Q 3116 2381 2855 2742 
Q 2594 3103 2138 3103 
Q 1681 3103 1420 2742 
Q 1159 2381 1159 1747 
Q 1159 1113 1420 752 
Q 1681 391 2138 391 
Q 2594 391 2855 752 
Q 3116 1113 3116 1747 
z
" transform="scale(0.015625)"/>
       <path id="DejaVuSans-73" d="M 2834 3397 
L 2834 2853 
Q 2591 2978 2328 3040 
Q 2066 3103 1784 3103 
Q 1356 3103 1142 2972 
Q 928 2841 928 2578 
Q 928 2378 1081 2264 
Q 1234 2150 1697 2047 
L 1894 2003 
Q 2506 1872 2764 1633 
Q 3022 1394 3022 966 
Q 3022 478 2636 193 
Q 2250 -91 1575 -91 
Q 1294 -91 989 -36 
Q 684 19 347 128 
L 347 722 
Q 666 556 975 473 
Q 1284 391 1588 391 
Q 1994 391 2212 530 
Q 2431 669 2431 922 
Q 2431 1156 2273 1281 
Q 2116 1406 1581 1522 
L 1381 1569 
Q 847 1681 609 1914 
Q 372 2147 372 2553 
Q 372 3047 722 3315 
Q 1072 3584 1716 3584 
Q 2034 3584 2315 3537 
Q 2597 3491 2834 3397 
z
" transform="scale(0.015625)"/>
       <path id="DejaVuSans-65" d="M 3597 1894 
L 3597 1613 
L 953 1613 
Q 991 1019 1311 708 
Q 1631 397 2203 397 
Q 2534 397 2845 478 
Q 3156 559 3463 722 
L 3463 178 
Q 3153 47 2828 -22 
Q 2503 -91 2169 -91 
Q 1331 -91 842 396 
Q 353 884 353 1716 
Q 353 2575 817 3079 
Q 1281 3584 2069 3584 
Q 2775 3584 3186 3129 
Q 3597 2675 3597 1894 
z
M 3022 2063 
Q 3016 2534 2758 2815 
Q 2500 3097 2075 3097 
Q 1594 3097 1305 2825 
Q 1016 2553 972 2059 
L 3022 2063 
z
" transform="scale(0.015625)"/>
       <path id="DejaVuSans-64" d="M 2906 2969 
L 2906 4863 
L 3481 4863 
L 3481 0 
L 2906 0 
L 2906 525 
Q 2725 213 2448 61 
Q 2172 -91 1784 -91 
Q 1150 -91 751 415 
Q 353 922 353 1747 
Q 353 2572 751 3078 
Q 1150 3584 1784 3584 
Q 2172 3584 2448 3432 
Q 2725 3281 2906 2969 
z
M 947 1747 
Q 947 1113 1208 752 
Q 1469 391 1925 391 
Q 2381 391 2643 752 
Q 2906 1113 2906 1747 
Q 2906 2381 2643 2742 
Q 2381 3103 1925 3103 
Q 1469 3103 1208 2742 
Q 947 2381 947 1747 
z
" transform="scale(0.015625)"/>
       <path id="DejaVuSans-20" transform="scale(0.015625)"/>
       <path id="DejaVuSans-54" d="M -19 4666 
L 3928 4666 
L 3928 4134 
L 2272 4134 
L 2272 0 
L 1638 0 
L 1638 4134 
L -19 4134 
L -19 4666 
z
" transform="scale(0.015625)"/>
      </defs>
      <use xlink:href="#DejaVuSans-45"/>
      <use xlink:href="#DejaVuSans-6c" transform="translate(63.183594 0)"/>
      <use xlink:href="#DejaVuSans-61" transform="translate(90.966797 0)"/>
      <use xlink:href="#DejaVuSans-70" transform="translate(152.246094 0)"/>
      <use xlink:href="#DejaVuSans-73" transform="translate(215.722656 0)"/>
      <use xlink:href="#DejaVuSans-65" transform="translate(267.822266 0)"/>
      <use xlink:href="#DejaVuSans-64" transform="translate(329.345703 0)"/>
      <use xlink:href="#DejaVuSans-20" transform="translate(392.822266 0)"/>
      <use xlink:href="#DejaVuSans-54" transform="translate(424.609375 0)"/>
      <use xlink:href="#DejaVuSans-69" transform="translate(482.568359 0)"/>
      <use xlink:href="#DejaVuSans-6d" transform="translate(510.351562 0)"/>
      <use xlink:href="#DejaVuSans-65" transform="translate(607.763672 0)"/>
     </g>
    </g>
   </g>
   <g id="matplotlib.axis_2">
    <g id="ytick_1">
     <g id="line2d_6">
      <defs>
       <path id="m88867039a2" d="M 0 0 
L -3.5 0 
" style="stroke: #000000; stroke-width: 0.8"/>
      </defs>
      <g>
       <use xlink:href="#m88867039a2" x="57.6" y="295.488" style="stroke: #000000; stroke-width: 0.8"/>
      </g>
     </g>
     <g id="text_7">
      <!-- 0 -->
      <g transform="translate(44.2375 299.287219) scale(0.1 -0.1)">
       <use xlink:href="#DejaVuSans-30"/>
      </g>
     </g>
    </g>
    <g id="ytick_2">
     <g id="line2d_7">
      <g>
       <use xlink:href="#m88867039a2" x="57.6" y="265.126554" style="stroke: #000000; stroke-width: 0.8"/>
      </g>
     </g>
     <g id="text_8">
      <!-- 50 -->
      <g transform="translate(37.875 268.925773) scale(0.1 -0.1)">
       <use xlink:href="#DejaVuSans-35"/>
       <use xlink:href="#DejaVuSans-30" transform="translate(63.623047 0)"/>
      </g>
     </g>
    </g>
    <g id="ytick_3">
     <g id="line2d_8">
      <g>
       <use xlink:href="#m88867039a2" x="57.6" y="234.765108" style="stroke: #000000; stroke-width: 0.8"/>
      </g>
     </g>
     <g id="text_9">
      <!-- 100 -->
      <g transform="translate(31.5125 238.564327) scale(0.1 -0.1)">
       <use xlink:href="#DejaVuSans-31"/>
       <use xlink:href="#DejaVuSans-30" transform="translate(63.623047 0)"/>
       <use xlink:href="#DejaVuSans-30" transform="translate(127.246094 0)"/>
      </g>
     </g>
    </g>
    <g id="ytick_4">
     <g id="line2d_9">
      <g>
       <use xlink:href="#m88867039a2" x="57.6" y="204.403663" style="stroke: #000000; stroke-width: 0.8"/>
      </g>
     </g>
     <g id="text_10">
      <!-- 150 -->
      <g transform="translate(31.5125 208.202881) scale(0.1 -0.1)">
       <use xlink:href="#DejaVuSans-31"/>
       <use xlink:href="#DejaVuSans-35" transform="translate(63.623047 0)"/>
       <use xlink:href="#DejaVuSans-30" transform="translate(127.246094 0)"/>
      </g>
     </g>
    </g>
    <g id="ytick_5">
     <g id="line2d_10">
      <g>
       <use xlink:href="#m88867039a2" x="57.6" y="174.042217" style="stroke: #000000; stroke-width: 0.8"/>
      </g>
     </g>
     <g id="text_11">
      <!-- 200 -->
      <g transform="translate(31.5125 177.841436) scale(0.1 -0.1)">
       <defs>
        <path id="DejaVuSans-32" d="M 1228 531 
L 3431 531 
L 3431 0 
L 469 0 
L 469 531 
Q 828 903 1448 1529 
Q 2069 2156 2228 2338 
Q 2531 2678 2651 2914 
Q 2772 3150 2772 3378 
Q 2772 3750 2511 3984 
Q 2250 4219 1831 4219 
Q 1534 4219 1204 4116 
Q 875 4013 500 3803 
L 500 4441 
Q 881 4594 1212 4672 
Q 1544 4750 1819 4750 
Q 2544 4750 2975 4387 
Q 3406 4025 3406 3419 
Q 3406 3131 3298 2873 
Q 3191 2616 2906 2266 
Q 2828 2175 2409 1742 
Q 1991 1309 1228 531 
z
" transform="scale(0.015625)"/>
       </defs>
       <use xlink:href="#DejaVuSans-32"/>
       <use xlink:href="#DejaVuSans-30" transform="translate(63.623047 0)"/>
       <use xlink:href="#DejaVuSans-30" transform="translate(127.246094 0)"/>
      </g>
     </g>
    </g>
    <g id="ytick_6">
     <g id="line2d_11">
      <g>
       <use xlink:href="#m88867039a2" x="57.6" y="143.680771" style="stroke: #000000; stroke-width: 0.8"/>
      </g>
     </g>
     <g id="text_12">
      <!-- 250 -->
      <g transform="translate(31.5125 147.47999) scale(0.1 -0.1)">
       <use xlink:href="#DejaVuSans-32"/>
       <use xlink:href="#DejaVuSans-35" transform="translate(63.623047 0)"/>
       <use xlink:href="#DejaVuSans-30" transform="translate(127.246094 0)"/>
      </g>
     </g>
    </g>
    <g id="ytick_7">
     <g id="line2d_12">
      <g>
       <use xlink:href="#m88867039a2" x="57.6" y="113.319325" style="stroke: #000000; stroke-width: 0.8"/>
      </g>
     </g>
     <g id="text_13">
      <!-- 300 -->
      <g transform="translate(31.5125 117.118544) scale(0.1 -0.1)">
       <use xlink:href="#DejaVuSans-33"/>
       <use xlink:href="#DejaVuSans-30" transform="translate(63.623047 0)"/>
       <use xlink:href="#DejaVuSans-30" transform="translate(127.246094 0)"/>
      </g>
     </g>
    </g>
    <g id="ytick_8">
     <g id="line2d_13">
      <g>
       <use xlink:href="#m88867039a2" x="57.6" y="82.95788" style="stroke: #000000; stroke-width: 0.8"/>
      </g>
     </g>
     <g id="text_14">
      <!-- 350 -->
      <g transform="translate(31.5125 86.757098) scale(0.1 -0.1)">
       <use xlink:href="#DejaVuSans-33"/>
       <use xlink:href="#DejaVuSans-35" transform="translate(63.623047 0)"/>
       <use xlink:href="#DejaVuSans-30" transform="translate(127.246094 0)"/>
      </g>
     </g>
    </g>
    <g id="ytick_9">
     <g id="line2d_14">
      <g>
       <use xlink:href="#m88867039a2" x="57.6" y="52.596434" style="stroke: #000000; stroke-width: 0.8"/>
      </g>
     </g>
     <g id="text_15">
      <!-- 400 -->
      <g transform="translate(31.5125 56.395652) scale(0.1 -0.1)">
       <defs>
        <path id="DejaVuSans-34" d="M 2419 4116 
L 825 1625 
L 2419 1625 
L 2419 4116 
z
M 2253 4666 
L 3047 4666 
L 3047 1625 
L 3713 1625 
L 3713 1100 
L 3047 1100 
L 3047 0 
L 2419 0 
L 2419 1100 
L 313 1100 
L 313 1709 
L 2253 4666 
z
" transform="scale(0.015625)"/>
       </defs>
       <use xlink:href="#DejaVuSans-34"/>
       <use xlink:href="#DejaVuSans-30" transform="translate(63.623047 0)"/>
       <use xlink:href="#DejaVuSans-30" transform="translate(127.246094 0)"/>
      </g>
     </g>
    </g>
    <g id="text_16">
     <!-- pcpu (%) -->
     <g transform="translate(25.432812 197.035812) rotate(-90) scale(0.1 -0.1)">
      <defs>
       <path id="DejaVuSans-63" d="M 3122 3366 
L 3122 2828 
Q 2878 2963 2633 3030 
Q 2388 3097 2138 3097 
Q 1578 3097 1268 2742 
Q 959 2388 959 1747 
Q 959 1106 1268 751 
Q 1578 397 2138 397 
Q 2388 397 2633 464 
Q 2878 531 3122 666 
L 3122 134 
Q 2881 22 2623 -34 
Q 2366 -91 2075 -91 
Q 1284 -91 818 406 
Q 353 903 353 1747 
Q 353 2603 823 3093 
Q 1294 3584 2113 3584 
Q 2378 3584 2631 3529 
Q 2884 3475 3122 3366 
z
" transform="scale(0.015625)"/>
       <path id="DejaVuSans-75" d="M 544 1381 
L 544 3500 
L 1119 3500 
L 1119 1403 
Q 1119 906 1312 657 
Q 1506 409 1894 409 
Q 2359 409 2629 706 
Q 2900 1003 2900 1516 
L 2900 3500 
L 3475 3500 
L 3475 0 
L 2900 0 
L 2900 538 
Q 2691 219 2414 64 
Q 2138 -91 1772 -91 
Q 1169 -91 856 284 
Q 544 659 544 1381 
z
M 1991 3584 
L 1991 3584 
z
" transform="scale(0.015625)"/>
       <path id="DejaVuSans-28" d="M 1984 4856 
Q 1566 4138 1362 3434 
Q 1159 2731 1159 2009 
Q 1159 1288 1364 580 
Q 1569 -128 1984 -844 
L 1484 -844 
Q 1016 -109 783 600 
Q 550 1309 550 2009 
Q 550 2706 781 3412 
Q 1013 4119 1484 4856 
L 1984 4856 
z
" transform="scale(0.015625)"/>
       <path id="DejaVuSans-25" d="M 4653 2053 
Q 4381 2053 4226 1822 
Q 4072 1591 4072 1178 
Q 4072 772 4226 539 
Q 4381 306 4653 306 
Q 4919 306 5073 539 
Q 5228 772 5228 1178 
Q 5228 1588 5073 1820 
Q 4919 2053 4653 2053 
z
M 4653 2450 
Q 5147 2450 5437 2106 
Q 5728 1763 5728 1178 
Q 5728 594 5436 251 
Q 5144 -91 4653 -91 
Q 4153 -91 3862 251 
Q 3572 594 3572 1178 
Q 3572 1766 3864 2108 
Q 4156 2450 4653 2450 
z
M 1428 4353 
Q 1159 4353 1004 4120 
Q 850 3888 850 3481 
Q 850 3069 1003 2837 
Q 1156 2606 1428 2606 
Q 1700 2606 1854 2837 
Q 2009 3069 2009 3481 
Q 2009 3884 1853 4118 
Q 1697 4353 1428 4353 
z
M 4250 4750 
L 4750 4750 
L 1831 -91 
L 1331 -91 
L 4250 4750 
z
M 1428 4750 
Q 1922 4750 2215 4408 
Q 2509 4066 2509 3481 
Q 2509 2891 2217 2550 
Q 1925 2209 1428 2209 
Q 931 2209 642 2551 
Q 353 2894 353 3481 
Q 353 4063 643 4406 
Q 934 4750 1428 4750 
z
" transform="scale(0.015625)"/>
       <path id="DejaVuSans-29" d="M 513 4856 
L 1013 4856 
Q 1481 4119 1714 3412 
Q 1947 2706 1947 2009 
Q 1947 1309 1714 600 
Q 1481 -109 1013 -844 
L 513 -844 
Q 928 -128 1133 580 
Q 1338 1288 1338 2009 
Q 1338 2731 1133 3434 
Q 928 4138 513 4856 
z
" transform="scale(0.015625)"/>
      </defs>
      <use xlink:href="#DejaVuSans-70"/>
      <use xlink:href="#DejaVuSans-63" transform="translate(63.476562 0)"/>
      <use xlink:href="#DejaVuSans-70" transform="translate(118.457031 0)"/>
      <use xlink:href="#DejaVuSans-75" transform="translate(181.933594 0)"/>
      <use xlink:href="#DejaVuSans-20" transform="translate(245.3125 0)"/>
      <use xlink:href="#DejaVuSans-28" transform="translate(277.099609 0)"/>
      <use xlink:href="#DejaVuSans-25" transform="translate(316.113281 0)"/>
      <use xlink:href="#DejaVuSans-29" transform="translate(411.132812 0)"/>
     </g>
    </g>
   </g>
   <g id="line2d_15">
    <path d="M 79.600446 295.427277 
L 86.839997 295.488 
L 398.487273 295.488 
L 398.487273 295.488 
" clip-path="url(#pddc609628c)" style="fill: none; stroke-dasharray: 0.8,1.32; stroke-dashoffset: 0; stroke: #ff7f0e; stroke-opacity: 0.4; stroke-width: 0.8"/>
   </g>
   <g id="line2d_16">
    <path d="M 112.80879 294.516434 
L 114.22713 294.516434 
L 115.720205 294.516434 
L 117.136782 294.516434 
L 118.554434 294.516434 
L 120.046056 294.516434 
L 121.463382 294.516434 
L 122.881831 294.516434 
L 124.373276 294.516434 
L 125.791631 294.516434 
L 127.209864 294.516434 
L 128.701369 294.516434 
L 130.119747 294.516434 
L 131.538367 294.516434 
L 133.031016 294.516434 
L 134.447437 294.516434 
L 135.938964 294.516434 
L 137.354796 294.516434 
L 138.772566 294.516434 
L 140.265382 294.516434 
L 141.681603 294.516434 
L 143.101148 294.516434 
L 144.593755 294.516434 
L 146.009622 294.516434 
" clip-path="url(#pddc609628c)" style="fill: none; stroke-dasharray: 0.8,1.32; stroke-dashoffset: 0; stroke: #ff7f0e; stroke-opacity: 0.4; stroke-width: 0.8"/>
   </g>
   <g id="line2d_17">
    <path d="M 184.967601 235.250892 
L 186.391296 235.008 
L 187.812245 235.008 
L 189.311327 235.297157 
L 190.734079 235.068723 
L 192.158953 235.068723 
L 193.582041 235.068723 
L 195.079408 235.068723 
L 196.50054 235.068723 
L 197.924943 235.068723 
L 199.348975 235.068723 
L 200.845161 235.068723 
L 202.266157 235.068723 
L 203.688001 235.068723 
L 205.185347 235.068723 
L 206.607319 235.068723 
L 208.028628 235.068723 
L 209.451595 235.068723 
L 210.947742 235.068723 
L 212.371165 235.068723 
L 213.793344 235.068723 
L 215.215102 235.068723 
L 216.711866 235.068723 
L 218.134559 235.068723 
" clip-path="url(#pddc609628c)" style="fill: none; stroke-dasharray: 0.8,1.32; stroke-dashoffset: 0; stroke: #ff7f0e; stroke-opacity: 0.4; stroke-width: 0.8"/>
   </g>
   <g id="line2d_18">
    <path d="M 184.967601 235.250892 
L 186.391296 235.008 
L 187.812245 235.260479 
L 189.311327 235.068723 
L 190.734079 235.068723 
L 192.158953 235.068723 
L 193.582041 235.068723 
L 195.079408 235.068723 
L 196.50054 235.068723 
L 197.924943 235.068723 
L 199.348975 235.068723 
L 200.845161 235.068723 
L 202.266157 235.068723 
L 203.688001 235.068723 
L 205.185347 235.068723 
L 206.607319 235.068723 
L 208.028628 235.068723 
L 209.451595 235.068723 
L 210.947742 235.068723 
L 212.371165 235.068723 
L 213.793344 235.068723 
L 215.215102 235.068723 
L 216.711866 235.068723 
L 218.134559 235.068723 
" clip-path="url(#pddc609628c)" style="fill: none; stroke-dasharray: 0.8,1.32; stroke-dashoffset: 0; stroke: #ff7f0e; stroke-opacity: 0.4; stroke-width: 0.8"/>
   </g>
   <g id="line2d_19">
    <path d="M 184.967601 235.250892 
L 186.391296 235.008 
L 187.812245 235.260479 
L 189.311327 235.068723 
L 190.734079 235.068723 
L 192.158953 235.068723 
L 193.582041 235.068723 
L 195.079408 235.068723 
L 196.50054 235.068723 
L 197.924943 235.068723 
L 199.348975 235.068723 
L 200.845161 235.068723 
L 202.266157 235.068723 
L 203.688001 235.068723 
L 205.185347 235.068723 
L 206.607319 235.068723 
L 208.028628 235.068723 
L 209.451595 235.068723 
L 210.947742 235.068723 
L 212.371165 235.068723 
L 213.793344 235.068723 
L 215.215102 235.068723 
L 216.711866 235.068723 
L 218.134559 235.068723 
" clip-path="url(#pddc609628c)" style="fill: none; stroke-dasharray: 0.8,1.32; stroke-dashoffset: 0; stroke: #ff7f0e; stroke-opacity: 0.4; stroke-width: 0.8"/>
   </g>
   <g id="line2d_20">
    <path d="M 184.967601 235.250892 
L 186.391296 235.008 
L 187.812245 235.008 
L 189.311327 235.297157 
L 190.734079 235.068723 
L 192.158953 235.068723 
L 193.582041 235.068723 
L 195.079408 235.068723 
L 196.50054 235.068723 
L 197.924943 235.068723 
L 199.348975 235.068723 
L 200.845161 235.068723 
L 202.266157 235.068723 
L 203.688001 235.068723 
L 205.185347 235.068723 
L 206.607319 235.068723 
L 208.028628 235.068723 
L 209.451595 235.068723 
L 210.947742 235.068723 
L 212.371165 235.068723 
L 213.793344 235.068723 
L 215.215102 235.068723 
L 216.711866 235.068723 
L 218.134559 235.068723 
" clip-path="url(#pddc609628c)" style="fill: none; stroke-dasharray: 0.8,1.32; stroke-dashoffset: 0; stroke: #ff7f0e; stroke-opacity: 0.4; stroke-width: 0.8"/>
   </g>
   <g id="line2d_21">
    <path d="M 221.044433 293.186313 
L 222.462027 293.241253 
L 223.877904 293.241253 
L 225.369329 293.241253 
L 226.779079 293.60559 
L 228.265343 294.577157 
L 229.675681 294.941494 
L 231.087044 294.238387 
L 232.570784 294.883663 
L 233.979181 294.548393 
L 235.466126 294.603181 
L 236.876859 294.759325 
L 238.36057 294.880771 
L 239.770112 294.091373 
L 241.180612 295.110879 
L 242.664726 294.152096 
L 244.073049 294.152096 
L 245.561778 294.152096 
L 246.978491 294.152096 
L 248.397292 292.812997 
L 249.889318 292.819084 
L 251.306225 294.030651 
L 252.723408 292.499795 
L 254.215696 293.969928 
" clip-path="url(#pddc609628c)" style="fill: none; stroke-dasharray: 0.8,1.32; stroke-dashoffset: 0; stroke: #ff7f0e; stroke-opacity: 0.4; stroke-width: 0.8"/>
   </g>
   <g id="line2d_22">
    <path d="M 221.044433 293.186313 
L 222.462027 293.241253 
L 223.877904 293.493732 
L 225.369329 293.012819 
L 226.779079 293.60559 
L 228.265343 294.577157 
L 229.675681 294.941494 
L 231.087044 294.81046 
L 232.570784 294.366072 
L 233.979181 294.548393 
L 235.466126 294.603181 
L 236.876859 294.759325 
L 238.36057 294.030651 
L 239.770112 294.941494 
L 241.180612 295.110879 
L 242.664726 294.152096 
L 244.073049 294.152096 
L 245.561778 294.152096 
L 246.978491 294.152096 
L 248.397292 292.812997 
L 249.889318 292.819084 
L 251.306225 294.030651 
L 252.723408 292.499795 
L 254.215696 293.969928 
" clip-path="url(#pddc609628c)" style="fill: none; stroke-dasharray: 0.8,1.32; stroke-dashoffset: 0; stroke: #ff7f0e; stroke-opacity: 0.4; stroke-width: 0.8"/>
   </g>
   <g id="line2d_23">
    <path d="M 293.168136 294.704386 
L 294.586241 294.759325 
L 296.004343 294.759325 
L 297.497309 294.759325 
L 298.915109 294.759325 
L 300.331067 294.759325 
L 301.823841 294.759325 
L 303.241301 294.759325 
L 304.659261 294.759325 
L 306.15169 294.759325 
L 307.571052 294.759325 
L 308.989122 294.759325 
L 310.481201 294.759325 
L 311.897015 294.759325 
L 313.315344 294.759325 
L 314.8081 294.759325 
L 316.225089 294.759325 
L 317.643346 294.759325 
L 319.135671 294.759325 
L 320.552721 294.759325 
L 321.971035 294.759325 
L 323.462926 294.759325 
L 324.880378 294.759325 
L 326.298174 294.759325 
" clip-path="url(#pddc609628c)" style="fill: none; stroke-dasharray: 0.8,1.32; stroke-dashoffset: 0; stroke: #ff7f0e; stroke-opacity: 0.4; stroke-width: 0.8"/>
   </g>
   <g id="line2d_24">
    <path d="M 329.204237 287.402747 
L 330.696034 287.229687 
L 332.112811 286.977207 
L 333.529701 287.168964 
L 335.021495 287.168964 
L 336.437137 287.168964 
L 337.85394 287.168964 
L 339.344999 287.168964 
L 340.760883 287.168964 
L 342.177042 287.168964 
L 343.667985 287.168964 
L 345.08515 287.168964 
L 346.501736 287.168964 
L 347.991942 287.168964 
L 349.408143 287.168964 
L 350.824827 287.168964 
L 352.316211 287.168964 
L 353.733386 287.168964 
L 355.223614 287.168964 
L 356.639617 287.168964 
L 358.05659 287.168964 
L 359.547199 287.168964 
L 360.964614 287.168964 
L 362.382297 287.168964 
" clip-path="url(#pddc609628c)" style="fill: none; stroke-dasharray: 0.8,1.32; stroke-dashoffset: 0; stroke: #ff7f0e; stroke-opacity: 0.4; stroke-width: 0.8"/>
   </g>
   <g id="line2d_25">
    <path d="M 329.204237 287.172 
L 330.696034 287.056193 
L 332.112811 287.168964 
L 333.529701 286.868386 
L 335.021495 287.455229 
L 336.437137 287.168964 
L 337.85394 287.168964 
L 339.344999 287.168964 
L 340.760883 287.168964 
L 342.177042 287.168964 
L 343.667985 287.168964 
L 345.08515 287.168964 
L 346.501736 287.168964 
L 347.991942 287.168964 
L 349.408143 287.168964 
L 350.824827 287.168964 
L 352.316211 287.168964 
L 353.733386 287.168964 
L 355.223614 287.168964 
L 356.639617 287.168964 
L 358.05659 287.168964 
L 359.547199 287.168964 
L 360.964614 287.168964 
L 362.382297 287.168964 
" clip-path="url(#pddc609628c)" style="fill: none; stroke-dasharray: 0.8,1.32; stroke-dashoffset: 0; stroke: #ff7f0e; stroke-opacity: 0.4; stroke-width: 0.8"/>
   </g>
   <g id="line2d_26">
    <path d="M 329.204237 287.460434 
L 330.696034 287.056193 
L 332.112811 287.168964 
L 333.529701 287.168964 
L 335.021495 287.168964 
L 336.437137 287.168964 
L 337.85394 287.168964 
L 339.344999 287.168964 
L 340.760883 287.168964 
L 342.177042 287.168964 
L 343.667985 287.168964 
L 345.08515 287.168964 
L 346.501736 287.168964 
L 347.991942 287.168964 
L 349.408143 287.168964 
L 350.824827 287.168964 
L 352.316211 287.168964 
L 353.733386 287.168964 
L 355.223614 287.168964 
L 356.639617 287.168964 
L 358.05659 287.168964 
L 359.547199 287.168964 
L 360.964614 287.168964 
L 362.382297 287.168964 
" clip-path="url(#pddc609628c)" style="fill: none; stroke-dasharray: 0.8,1.32; stroke-dashoffset: 0; stroke: #ff7f0e; stroke-opacity: 0.4; stroke-width: 0.8"/>
   </g>
   <g id="line2d_27">
    <path d="M 79.600446 295.427277 
L 86.839997 295.488 
L 111.391835 295.488 
L 112.80879 294.516434 
L 146.009622 294.516434 
L 147.427622 295.488 
L 183.543442 295.488 
L 184.967601 235.250892 
L 186.391296 235.008 
L 218.134559 235.068723 
L 219.552606 295.488 
L 221.044433 293.186313 
L 223.877904 293.241253 
L 225.369329 293.012819 
L 226.779079 293.60559 
L 228.265343 294.577157 
L 229.675681 294.941494 
L 231.087044 294.238387 
L 236.876859 294.759325 
L 238.36057 294.030651 
L 239.770112 294.091373 
L 241.180612 295.110879 
L 242.664726 294.152096 
L 246.978491 294.152096 
L 248.397292 292.812997 
L 249.889318 292.819084 
L 251.306225 294.030651 
L 252.723408 292.499795 
L 255.633924 295.488 
L 291.676343 295.488 
L 293.168136 294.704386 
L 296.004343 294.759325 
L 326.298174 294.759325 
L 327.78838 295.488 
L 329.204237 287.172 
L 333.529701 286.868386 
L 335.021495 287.168964 
L 362.382297 287.168964 
L 363.873806 295.488 
L 398.487273 295.488 
L 398.487273 295.488 
" clip-path="url(#pddc609628c)" style="fill: none; stroke: #ff7f0e; stroke-width: 2; stroke-linecap: square"/>
   </g>
   <g id="line2d_28">
    <path d="M 79.600446 295.427277 
L 86.839997 295.488 
L 111.391835 295.488 
L 112.80879 294.516434 
L 146.009622 294.516434 
L 147.427622 295.488 
L 183.543442 295.488 
L 184.967601 54.539566 
L 186.391296 53.568 
L 187.812245 54.072959 
L 189.311327 54.267759 
L 190.734079 53.810892 
L 218.134559 53.810892 
L 219.552606 295.488 
L 221.044433 290.884627 
L 222.462027 290.994506 
L 223.877904 291.246985 
L 225.369329 290.766072 
L 226.779079 291.723181 
L 228.265343 293.666313 
L 229.675681 294.394988 
L 231.087044 293.560847 
L 232.570784 293.761735 
L 233.979181 293.608786 
L 235.466126 293.718361 
L 236.876859 294.030651 
L 238.36057 293.423422 
L 239.770112 293.544867 
L 241.180612 294.733758 
L 242.664726 292.816193 
L 246.978491 292.816193 
L 248.397292 290.137994 
L 249.889318 290.150169 
L 251.306225 292.573301 
L 252.723408 289.511589 
L 255.633924 295.488 
L 291.676343 295.488 
L 293.168136 294.704386 
L 296.004343 294.759325 
L 326.298174 294.759325 
L 327.78838 295.488 
L 329.204237 271.059181 
L 330.696034 270.366072 
L 333.529701 270.230313 
L 335.021495 270.817157 
L 336.437137 270.530892 
L 362.382297 270.530892 
L 363.873806 295.488 
L 398.487273 295.488 
L 398.487273 295.488 
" clip-path="url(#pddc609628c)" style="fill: none; stroke-dasharray: 5.55,2.4; stroke-dashoffset: 0; stroke: #ff7f0e; stroke-width: 1.5"/>
   </g>
   <g id="patch_3">
    <path d="M 57.6 307.584 
L 57.6 41.472 
" style="fill: none; stroke: #000000; stroke-width: 0.8; stroke-linejoin: miter; stroke-linecap: square"/>
   </g>
   <g id="patch_4">
    <path d="M 414.72 307.584 
L 414.72 41.472 
" style="fill: none; stroke: #000000; stroke-width: 0.8; stroke-linejoin: miter; stroke-linecap: square"/>
   </g>
   <g id="patch_5">
    <path d="M 57.6 307.584 
L 414.72 307.584 
" style="fill: none; stroke: #000000; stroke-width: 0.8; stroke-linejoin: miter; stroke-linecap: square"/>
   </g>
   <g id="patch_6">
    <path d="M 57.6 41.472 
L 414.72 41.472 
" style="fill: none; stroke: #000000; stroke-width: 0.8; stroke-linejoin: miter; stroke-linecap: square"/>
   </g>
   <g id="legend_1">
    <g id="patch_7">
     <path d="M 322.049531 88.302938 
L 408.42 88.302938 
Q 410.22 88.302938 410.22 86.502938 
L 410.22 47.772 
Q 410.22 45.972 408.42 45.972 
L 322.049531 45.972 
Q 320.249531 45.972 320.249531 47.772 
L 320.249531 86.502938 
Q 320.249531 88.302938 322.049531 88.302938 
z
" style="fill: #ffffff; opacity: 0.8; stroke: #cccccc; stroke-linejoin: miter"/>
    </g>
    <g id="line2d_29">
     <path d="M 323.849531 53.260594 
L 332.849531 53.260594 
L 341.849531 53.260594 
" style="fill: none; stroke-dasharray: 5.55,2.4; stroke-dashoffset: 0; stroke: #000000; stroke-width: 1.5"/>
    </g>
    <g id="text_17">
     <!-- upper bound -->
     <g transform="translate(349.049531 56.410594) scale(0.09 -0.09)">
      <defs>
       <path id="DejaVuSans-72" d="M 2631 2963 
Q 2534 3019 2420 3045 
Q 2306 3072 2169 3072 
Q 1681 3072 1420 2755 
Q 1159 2438 1159 1844 
L 1159 0 
L 581 0 
L 581 3500 
L 1159 3500 
L 1159 2956 
Q 1341 3275 1631 3429 
Q 1922 3584 2338 3584 
Q 2397 3584 2469 3576 
Q 2541 3569 2628 3553 
L 2631 2963 
z
" transform="scale(0.015625)"/>
       <path id="DejaVuSans-62" d="M 3116 1747 
Q 3116 2381 2855 2742 
Q 2594 3103 2138 3103 
Q 1681 3103 1420 2742 
Q 1159 2381 1159 1747 
Q 1159 1113 1420 752 
Q 1681 391 2138 391 
Q 2594 391 2855 752 
Q 3116 1113 3116 1747 
z
M 1159 2969 
Q 1341 3281 1617 3432 
Q 1894 3584 2278 3584 
Q 2916 3584 3314 3078 
Q 3713 2572 3713 1747 
Q 3713 922 3314 415 
Q 2916 -91 2278 -91 
Q 1894 -91 1617 61 
Q 1341 213 1159 525 
L 1159 0 
L 581 0 
L 581 4863 
L 1159 4863 
L 1159 2969 
z
" transform="scale(0.015625)"/>
       <path id="DejaVuSans-6f" d="M 1959 3097 
Q 1497 3097 1228 2736 
Q 959 2375 959 1747 
Q 959 1119 1226 758 
Q 1494 397 1959 397 
Q 2419 397 2687 759 
Q 2956 1122 2956 1747 
Q 2956 2369 2687 2733 
Q 2419 3097 1959 3097 
z
M 1959 3584 
Q 2709 3584 3137 3096 
Q 3566 2609 3566 1747 
Q 3566 888 3137 398 
Q 2709 -91 1959 -91 
Q 1206 -91 779 398 
Q 353 888 353 1747 
Q 353 2609 779 3096 
Q 1206 3584 1959 3584 
z
" transform="scale(0.015625)"/>
      </defs>
      <use xlink:href="#DejaVuSans-75"/>
      <use xlink:href="#DejaVuSans-70" transform="translate(63.378906 0)"/>
      <use xlink:href="#DejaVuSans-70" transform="translate(126.855469 0)"/>
      <use xlink:href="#DejaVuSans-65" transform="translate(190.332031 0)"/>
      <use xlink:href="#DejaVuSans-72" transform="translate(251.855469 0)"/>
      <use xlink:href="#DejaVuSans-20" transform="translate(292.96875 0)"/>
      <use xlink:href="#DejaVuSans-62" transform="translate(324.755859 0)"/>
      <use xlink:href="#DejaVuSans-6f" transform="translate(388.232422 0)"/>
      <use xlink:href="#DejaVuSans-75" transform="translate(449.414062 0)"/>
      <use xlink:href="#DejaVuSans-6e" transform="translate(512.792969 0)"/>
      <use xlink:href="#DejaVuSans-64" transform="translate(576.171875 0)"/>
     </g>
    </g>
    <g id="line2d_30">
     <path d="M 323.849531 66.470906 
L 332.849531 66.470906 
L 341.849531 66.470906 
" style="fill: none; stroke: #000000; stroke-width: 2; stroke-linecap: square"/>
    </g>
    <g id="text_18">
     <!-- lower bound -->
     <g transform="translate(349.049531 69.620906) scale(0.09 -0.09)">
      <defs>
       <path id="DejaVuSans-77" d="M 269 3500 
L 844 3500 
L 1563 769 
L 2278 3500 
L 2956 3500 
L 3675 769 
L 4391 3500 
L 4966 3500 
L 4050 0 
L 3372 0 
L 2619 2869 
L 1863 0 
L 1184 0 
L 269 3500 
z
" transform="scale(0.015625)"/>
      </defs>
      <use xlink:href="#DejaVuSans-6c"/>
      <use xlink:href="#DejaVuSans-6f" transform="translate(27.783203 0)"/>
      <use xlink:href="#DejaVuSans-77" transform="translate(88.964844 0)"/>
      <use xlink:href="#DejaVuSans-65" transform="translate(170.751953 0)"/>
      <use xlink:href="#DejaVuSans-72" transform="translate(232.275391 0)"/>
      <use xlink:href="#DejaVuSans-20" transform="translate(273.388672 0)"/>
      <use xlink:href="#DejaVuSans-62" transform="translate(305.175781 0)"/>
      <use xlink:href="#DejaVuSans-6f" transform="translate(368.652344 0)"/>
      <use xlink:href="#DejaVuSans-75" transform="translate(429.833984 0)"/>
      <use xlink:href="#DejaVuSans-6e" transform="translate(493.212891 0)"/>
      <use xlink:href="#DejaVuSans-64" transform="translate(556.591797 0)"/>
     </g>
    </g>
    <g id="line2d_31">
     <path d="M 323.849531 79.681219 
L 332.849531 79.681219 
L 341.849531 79.681219 
" style="fill: none; stroke-dasharray: 0.8,1.32; stroke-dashoffset: 0; stroke: #000000; stroke-width: 0.8"/>
    </g>
    <g id="text_19">
     <!-- per-pid -->
     <g transform="translate(349.049531 82.831219) scale(0.09 -0.09)">
      <defs>
       <path id="DejaVuSans-2d" d="M 313 2009 
L 1997 2009 
L 1997 1497 
L 313 1497 
L 313 2009 
z
" transform="scale(0.015625)"/>
      </defs>
      <use xlink:href="#DejaVuSans-70"/>
      <use xlink:href="#DejaVuSans-65" transform="translate(63.476562 0)"/>
      <use xlink:href="#DejaVuSans-72" transform="translate(125 0)"/>
      <use xlink:href="#DejaVuSans-2d" transform="translate(159.738281 0)"/>
      <use xlink:href="#DejaVuSans-70" transform="translate(195.822266 0)"/>
      <use xlink:href="#DejaVuSans-69" transform="translate(259.298828 0)"/>
      <use xlink:href="#DejaVuSans-64" transform="translate(287.082031 0)"/>
     </g>
    </g>
   </g>
   <g id="legend_2">
    <g id="patch_8">
     <path d="M 63.9 75.092625 
L 177.027187 75.092625 
Q 178.827187 75.092625 178.827187 73.292625 
L 178.827187 47.772 
Q 178.827187 45.972 177.027187 45.972 
L 63.9 45.972 
Q 62.1 45.972 62.1 47.772 
L 62.1 73.292625 
Q 62.1 75.092625 63.9 75.092625 
z
" style="fill: #ffffff; opacity: 0.8; stroke: #cccccc; stroke-linejoin: miter"/>
    </g>
    <g id="line2d_32">
     <path d="M 65.7 53.260594 
L 74.7 53.260594 
L 83.7 53.260594 
" style="fill: none; stroke: #ff7f0e; stroke-width: 2; stroke-linecap: square"/>
    </g>
    <g id="text_20">
     <!-- pcpu -->
     <g transform="translate(90.9 56.410594) scale(0.09 -0.09)">
      <use xlink:href="#DejaVuSans-70"/>
      <use xlink:href="#DejaVuSans-63" transform="translate(63.476562 0)"/>
      <use xlink:href="#DejaVuSans-70" transform="translate(118.457031 0)"/>
      <use xlink:href="#DejaVuSans-75" transform="translate(181.933594 0)"/>
     </g>
    </g>
    <g id="line2d_33">
     <path d="M 65.7 66.470906 
L 74.7 66.470906 
L 83.7 66.470906 
" style="fill: none; stroke: #1f77b4; stroke-width: 2; stroke-linecap: square"/>
    </g>
    <g id="text_21">
     <!-- rss (host: 33.3 GB) -->
     <g transform="translate(90.9 69.620906) scale(0.09 -0.09)">
      <defs>
       <path id="DejaVuSans-68" d="M 3513 2113 
L 3513 0 
L 2938 0 
L 2938 2094 
Q 2938 2591 2744 2837 
Q 2550 3084 2163 3084 
Q 1697 3084 1428 2787 
Q 1159 2491 1159 1978 
L 1159 0 
L 581 0 
L 581 4863 
L 1159 4863 
L 1159 2956 
Q 1366 3272 1645 3428 
Q 1925 3584 2291 3584 
Q 2894 3584 3203 3211 
Q 3513 2838 3513 2113 
z
" transform="scale(0.015625)"/>
       <path id="DejaVuSans-74" d="M 1172 4494 
L 1172 3500 
L 2356 3500 
L 2356 3053 
L 1172 3053 
L 1172 1153 
Q 1172 725 1289 603 
Q 1406 481 1766 481 
L 2356 481 
L 2356 0 
L 1766 0 
Q 1100 0 847 248 
Q 594 497 594 1153 
L 594 3053 
L 172 3053 
L 172 3500 
L 594 3500 
L 594 4494 
L 1172 4494 
z
" transform="scale(0.015625)"/>
       <path id="DejaVuSans-3a" d="M 750 794 
L 1409 794 
L 1409 0 
L 750 0 
L 750 794 
z
M 750 3309 
L 1409 3309 
L 1409 2516 
L 750 2516 
L 750 3309 
z
" transform="scale(0.015625)"/>
       <path id="DejaVuSans-47" d="M 3809 666 
L 3809 1919 
L 2778 1919 
L 2778 2438 
L 4434 2438 
L 4434 434 
Q 4069 175 3628 42 
Q 3188 -91 2688 -91 
Q 1594 -91 976 548 
Q 359 1188 359 2328 
Q 359 3472 976 4111 
Q 1594 4750 2688 4750 
Q 3144 4750 3555 4637 
Q 3966 4525 4313 4306 
L 4313 3634 
Q 3963 3931 3569 4081 
Q 3175 4231 2741 4231 
Q 1884 4231 1454 3753 
Q 1025 3275 1025 2328 
Q 1025 1384 1454 906 
Q 1884 428 2741 428 
Q 3075 428 3337 486 
Q 3600 544 3809 666 
z
" transform="scale(0.015625)"/>
       <path id="DejaVuSans-42" d="M 1259 2228 
L 1259 519 
L 2272 519 
Q 2781 519 3026 730 
Q 3272 941 3272 1375 
Q 3272 1813 3026 2020 
Q 2781 2228 2272 2228 
L 1259 2228 
z
M 1259 4147 
L 1259 2741 
L 2194 2741 
Q 2656 2741 2882 2914 
Q 3109 3088 3109 3444 
Q 3109 3797 2882 3972 
Q 2656 4147 2194 4147 
L 1259 4147 
z
M 628 4666 
L 2241 4666 
Q 2963 4666 3353 4366 
Q 3744 4066 3744 3513 
Q 3744 3084 3544 2831 
Q 3344 2578 2956 2516 
Q 3422 2416 3680 2098 
Q 3938 1781 3938 1306 
Q 3938 681 3513 340 
Q 3088 0 2303 0 
L 628 0 
L 628 4666 
z
" transform="scale(0.015625)"/>
      </defs>
      <use xlink:href="#DejaVuSans-72"/>
      <use xlink:href="#DejaVuSans-73" transform="translate(41.113281 0)"/>
      <use xlink:href="#DejaVuSans-73" transform="translate(93.212891 0)"/>
      <use xlink:href="#DejaVuSans-20" transform="translate(145.3125 0)"/>
      <use xlink:href="#DejaVuSans-28" transform="translate(177.099609 0)"/>
      <use xlink:href="#DejaVuSans-68" transform="translate(216.113281 0)"/>
      <use xlink:href="#DejaVuSans-6f" transform="translate(279.492188 0)"/>
      <use xlink:href="#DejaVuSans-73" transform="translate(340.673828 0)"/>
      <use xlink:href="#DejaVuSans-74" transform="translate(392.773438 0)"/>
      <use xlink:href="#DejaVuSans-3a" transform="translate(431.982422 0)"/>
      <use xlink:href="#DejaVuSans-20" transform="translate(465.673828 0)"/>
      <use xlink:href="#DejaVuSans-33" transform="translate(497.460938 0)"/>
      <use xlink:href="#DejaVuSans-33" transform="translate(561.083984 0)"/>
      <use xlink:href="#DejaVuSans-2e" transform="translate(624.707031 0)"/>
      <use xlink:href="#DejaVuSans-33" transform="translate(656.494141 0)"/>
      <use xlink:href="#DejaVuSans-20" transform="translate(720.117188 0)"/>
      <use xlink:href="#DejaVuSans-47" transform="translate(751.904297 0)"/>
      <use xlink:href="#DejaVuSans-42" transform="translate(829.394531 0)"/>
      <use xlink:href="#DejaVuSans-29" transform="translate(897.998047 0)"/>
     </g>
    </g>
   </g>
  </g>
  <g id="axes_2">
   <g id="matplotlib.axis_3">
    <g id="ytick_10">
     <g id="line2d_34">
      <defs>
       <path id="m9116965a3d" d="M 0 0 
L 3.5 0 
" style="stroke: #000000; stroke-width: 0.8"/>
      </defs>
      <g>
       <use xlink:href="#m9116965a3d" x="414.72" y="297.236854" style="stroke: #000000; stroke-width: 0.8"/>
      </g>
     </g>
     <g id="text_22">
      <!-- 0.0MB -->
      <g transform="translate(421.72 301.036073) scale(0.1 -0.1)">
       <defs>
        <path id="DejaVuSans-4d" d="M 628 4666 
L 1569 4666 
L 2759 1491 
L 3956 4666 
L 4897 4666 
L 4897 0 
L 4281 0 
L 4281 4097 
L 3078 897 
L 2444 897 
L 1241 4097 
L 1241 0 
L 628 0 
L 628 4666 
z
" transform="scale(0.015625)"/>
       </defs>
       <use xlink:href="#DejaVuSans-30"/>
       <use xlink:href="#DejaVuSans-2e" transform="translate(63.623047 0)"/>
       <use xlink:href="#DejaVuSans-30" transform="translate(95.410156 0)"/>
       <use xlink:href="#DejaVuSans-4d" transform="translate(159.033203 0)"/>
       <use xlink:href="#DejaVuSans-42" transform="translate(245.3125 0)"/>
      </g>
     </g>
    </g>
    <g id="ytick_11">
     <g id="line2d_35">
      <g>
       <use xlink:href="#m9116965a3d" x="414.72" y="265.122048" style="stroke: #000000; stroke-width: 0.8"/>
      </g>
     </g>
     <g id="text_23">
      <!-- 200.0MB -->
      <g transform="translate(421.72 268.921267) scale(0.1 -0.1)">
       <use xlink:href="#DejaVuSans-32"/>
       <use xlink:href="#DejaVuSans-30" transform="translate(63.623047 0)"/>
       <use xlink:href="#DejaVuSans-30" transform="translate(127.246094 0)"/>
       <use xlink:href="#DejaVuSans-2e" transform="translate(190.869141 0)"/>
       <use xlink:href="#DejaVuSans-30" transform="translate(222.65625 0)"/>
       <use xlink:href="#DejaVuSans-4d" transform="translate(286.279297 0)"/>
       <use xlink:href="#DejaVuSans-42" transform="translate(372.558594 0)"/>
      </g>
     </g>
    </g>
    <g id="ytick_12">
     <g id="line2d_36">
      <g>
       <use xlink:href="#m9116965a3d" x="414.72" y="233.007242" style="stroke: #000000; stroke-width: 0.8"/>
      </g>
     </g>
     <g id="text_24">
      <!-- 400.0MB -->
      <g transform="translate(421.72 236.806461) scale(0.1 -0.1)">
       <use xlink:href="#DejaVuSans-34"/>
       <use xlink:href="#DejaVuSans-30" transform="translate(63.623047 0)"/>
       <use xlink:href="#DejaVuSans-30" transform="translate(127.246094 0)"/>
       <use xlink:href="#DejaVuSans-2e" transform="translate(190.869141 0)"/>
       <use xlink:href="#DejaVuSans-30" transform="translate(222.65625 0)"/>
       <use xlink:href="#DejaVuSans-4d" transform="translate(286.279297 0)"/>
       <use xlink:href="#DejaVuSans-42" transform="translate(372.558594 0)"/>
      </g>
     </g>
    </g>
    <g id="ytick_13">
     <g id="line2d_37">
      <g>
       <use xlink:href="#m9116965a3d" x="414.72" y="200.892437" style="stroke: #000000; stroke-width: 0.8"/>
      </g>
     </g>
     <g id="text_25">
      <!-- 600.0MB -->
      <g transform="translate(421.72 204.691655) scale(0.1 -0.1)">
       <use xlink:href="#DejaVuSans-36"/>
       <use xlink:href="#DejaVuSans-30" transform="translate(63.623047 0)"/>
       <use xlink:href="#DejaVuSans-30" transform="translate(127.246094 0)"/>
       <use xlink:href="#DejaVuSans-2e" transform="translate(190.869141 0)"/>
       <use xlink:href="#DejaVuSans-30" transform="translate(222.65625 0)"/>
       <use xlink:href="#DejaVuSans-4d" transform="translate(286.279297 0)"/>
       <use xlink:href="#DejaVuSans-42" transform="translate(372.558594 0)"/>
      </g>
     </g>
    </g>
    <g id="ytick_14">
     <g id="line2d_38">
      <g>
       <use xlink:href="#m9116965a3d" x="414.72" y="168.777631" style="stroke: #000000; stroke-width: 0.8"/>
      </g>
     </g>
     <g id="text_26">
      <!-- 800.0MB -->
      <g transform="translate(421.72 172.57685) scale(0.1 -0.1)">
       <defs>
        <path id="DejaVuSans-38" d="M 2034 2216 
Q 1584 2216 1326 1975 
Q 1069 1734 1069 1313 
Q 1069 891 1326 650 
Q 1584 409 2034 409 
Q 2484 409 2743 651 
Q 3003 894 3003 1313 
Q 3003 1734 2745 1975 
Q 2488 2216 2034 2216 
z
M 1403 2484 
Q 997 2584 770 2862 
Q 544 3141 544 3541 
Q 544 4100 942 4425 
Q 1341 4750 2034 4750 
Q 2731 4750 3128 4425 
Q 3525 4100 3525 3541 
Q 3525 3141 3298 2862 
Q 3072 2584 2669 2484 
Q 3125 2378 3379 2068 
Q 3634 1759 3634 1313 
Q 3634 634 3220 271 
Q 2806 -91 2034 -91 
Q 1263 -91 848 271 
Q 434 634 434 1313 
Q 434 1759 690 2068 
Q 947 2378 1403 2484 
z
M 1172 3481 
Q 1172 3119 1398 2916 
Q 1625 2713 2034 2713 
Q 2441 2713 2670 2916 
Q 2900 3119 2900 3481 
Q 2900 3844 2670 4047 
Q 2441 4250 2034 4250 
Q 1625 4250 1398 4047 
Q 1172 3844 1172 3481 
z
" transform="scale(0.015625)"/>
       </defs>
       <use xlink:href="#DejaVuSans-38"/>
       <use xlink:href="#DejaVuSans-30" transform="translate(63.623047 0)"/>
       <use xlink:href="#DejaVuSans-30" transform="translate(127.246094 0)"/>
       <use xlink:href="#DejaVuSans-2e" transform="translate(190.869141 0)"/>
       <use xlink:href="#DejaVuSans-30" transform="translate(222.65625 0)"/>
       <use xlink:href="#DejaVuSans-4d" transform="translate(286.279297 0)"/>
       <use xlink:href="#DejaVuSans-42" transform="translate(372.558594 0)"/>
      </g>
     </g>
    </g>
    <g id="ytick_15">
     <g id="line2d_39">
      <g>
       <use xlink:href="#m9116965a3d" x="414.72" y="136.662825" style="stroke: #000000; stroke-width: 0.8"/>
      </g>
     </g>
     <g id="text_27">
      <!-- 1000.0MB -->
      <g transform="translate(421.72 140.462044) scale(0.1 -0.1)">
       <use xlink:href="#DejaVuSans-31"/>
       <use xlink:href="#DejaVuSans-30" transform="translate(63.623047 0)"/>
       <use xlink:href="#DejaVuSans-30" transform="translate(127.246094 0)"/>
       <use xlink:href="#DejaVuSans-30" transform="translate(190.869141 0)"/>
       <use xlink:href="#DejaVuSans-2e" transform="translate(254.492188 0)"/>
       <use xlink:href="#DejaVuSans-30" transform="translate(286.279297 0)"/>
       <use xlink:href="#DejaVuSans-4d" transform="translate(349.902344 0)"/>
       <use xlink:href="#DejaVuSans-42" transform="translate(436.181641 0)"/>
      </g>
     </g>
    </g>
    <g id="ytick_16">
     <g id="line2d_40">
      <g>
       <use xlink:href="#m9116965a3d" x="414.72" y="104.548019" style="stroke: #000000; stroke-width: 0.8"/>
      </g>
     </g>
     <g id="text_28">
      <!-- 1200.0MB -->
      <g transform="translate(421.72 108.347238) scale(0.1 -0.1)">
       <use xlink:href="#DejaVuSans-31"/>
       <use xlink:href="#DejaVuSans-32" transform="translate(63.623047 0)"/>
       <use xlink:href="#DejaVuSans-30" transform="translate(127.246094 0)"/>
       <use xlink:href="#DejaVuSans-30" transform="translate(190.869141 0)"/>
       <use xlink:href="#DejaVuSans-2e" transform="translate(254.492188 0)"/>
       <use xlink:href="#DejaVuSans-30" transform="translate(286.279297 0)"/>
       <use xlink:href="#DejaVuSans-4d" transform="translate(349.902344 0)"/>
       <use xlink:href="#DejaVuSans-42" transform="translate(436.181641 0)"/>
      </g>
     </g>
    </g>
    <g id="ytick_17">
     <g id="line2d_41">
      <g>
       <use xlink:href="#m9116965a3d" x="414.72" y="72.433213" style="stroke: #000000; stroke-width: 0.8"/>
      </g>
     </g>
     <g id="text_29">
      <!-- 1400.0MB -->
      <g transform="translate(421.72 76.232432) scale(0.1 -0.1)">
       <use xlink:href="#DejaVuSans-31"/>
       <use xlink:href="#DejaVuSans-34" transform="translate(63.623047 0)"/>
       <use xlink:href="#DejaVuSans-30" transform="translate(127.246094 0)"/>
       <use xlink:href="#DejaVuSans-30" transform="translate(190.869141 0)"/>
       <use xlink:href="#DejaVuSans-2e" transform="translate(254.492188 0)"/>
       <use xlink:href="#DejaVuSans-30" transform="translate(286.279297 0)"/>
       <use xlink:href="#DejaVuSans-4d" transform="translate(349.902344 0)"/>
       <use xlink:href="#DejaVuSans-42" transform="translate(436.181641 0)"/>
      </g>
     </g>
    </g>
    <g id="text_30">
     <!-- rss -->
     <g transform="translate(483.798125 181.792844) rotate(-90) scale(0.1 -0.1)">
      <use xlink:href="#DejaVuSans-72"/>
      <use xlink:href="#DejaVuSans-73" transform="translate(41.113281 0)"/>
      <use xlink:href="#DejaVuSans-73" transform="translate(93.212891 0)"/>
     </g>
    </g>
   </g>
   <g id="line2d_42">
    <path d="M 73.832727 295.488 
L 75.324305 294.852651 
L 109.899341 294.852651 
L 111.391835 290.549904 
L 144.593755 290.549904 
L 146.009622 277.921191 
L 216.711866 277.921191 
L 218.134559 261.083126 
L 252.723408 261.083126 
L 254.215696 210.570246 
L 290.259947 210.570246 
L 291.676343 261.083126 
L 326.298174 261.083126 
L 327.78838 235.826357 
L 362.382297 235.826357 
L 363.873806 261.083126 
L 398.487273 261.083126 
L 398.487273 261.083126 
" clip-path="url(#pddc609628c)" style="fill: none; stroke-dasharray: 0.8,1.32; stroke-dashoffset: 0; stroke: #1f77b4; stroke-opacity: 0.4; stroke-width: 0.8"/>
   </g>
   <g id="line2d_43">
    <path d="M 111.391835 291.207615 
L 112.80879 291.207615 
L 114.22713 291.207615 
L 115.720205 291.207615 
L 117.136782 291.207615 
L 118.554434 291.207615 
L 120.046056 291.207615 
L 121.463382 291.207615 
L 122.881831 291.207615 
L 124.373276 291.207615 
L 125.791631 291.207615 
L 127.209864 291.207615 
L 128.701369 291.207615 
L 130.119747 291.207615 
L 131.538367 291.207615 
L 133.031016 291.207615 
L 134.447437 291.207615 
L 135.938964 291.207615 
L 137.354796 291.207615 
L 138.772566 291.207615 
L 140.265382 291.207615 
L 141.681603 291.207615 
L 143.101148 291.207615 
L 144.593755 291.207615 
L 146.009622 291.207615 
" clip-path="url(#pddc609628c)" style="fill: none; stroke-dasharray: 0.8,1.32; stroke-dashoffset: 0; stroke: #1f77b4; stroke-opacity: 0.4; stroke-width: 0.8"/>
   </g>
   <g id="line2d_44">
    <path d="M 183.543442 278.599949 
L 184.967601 278.599949 
L 186.391296 278.599949 
L 187.812245 278.599949 
L 189.311327 278.599949 
L 190.734079 278.599949 
L 192.158953 278.599949 
L 193.582041 278.599949 
L 195.079408 278.599949 
L 196.50054 278.599949 
L 197.924943 278.599949 
L 199.348975 278.599949 
L 200.845161 278.599949 
L 202.266157 278.599949 
L 203.688001 278.599949 
L 205.185347 278.599949 
L 206.607319 278.599949 
L 208.028628 278.599949 
L 209.451595 278.599949 
L 210.947742 278.599949 
L 212.371165 278.599949 
L 213.793344 278.599949 
L 215.215102 278.599949 
L 216.711866 278.599949 
L 218.134559 278.599949 
" clip-path="url(#pddc609628c)" style="fill: none; stroke-dasharray: 0.8,1.32; stroke-dashoffset: 0; stroke: #1f77b4; stroke-opacity: 0.4; stroke-width: 0.8"/>
   </g>
   <g id="line2d_45">
    <path d="M 183.543442 278.599949 
L 184.967601 278.599949 
L 186.391296 278.599949 
L 187.812245 278.599949 
L 189.311327 278.599949 
L 190.734079 278.599949 
L 192.158953 278.599949 
L 193.582041 278.599949 
L 195.079408 278.599949 
L 196.50054 278.599949 
L 197.924943 278.599949 
L 199.348975 278.599949 
L 200.845161 278.599949 
L 202.266157 278.599949 
L 203.688001 278.599949 
L 205.185347 278.599949 
L 206.607319 278.599949 
L 208.028628 278.599949 
L 209.451595 278.599949 
L 210.947742 278.599949 
L 212.371165 278.599949 
L 213.793344 278.599949 
L 215.215102 278.599949 
L 216.711866 278.599949 
L 218.134559 278.599949 
" clip-path="url(#pddc609628c)" style="fill: none; stroke-dasharray: 0.8,1.32; stroke-dashoffset: 0; stroke: #1f77b4; stroke-opacity: 0.4; stroke-width: 0.8"/>
   </g>
   <g id="line2d_46">
    <path d="M 183.543442 278.599949 
L 184.967601 278.599949 
L 186.391296 278.599949 
L 187.812245 278.599949 
L 189.311327 278.599949 
L 190.734079 278.599949 
L 192.158953 278.599949 
L 193.582041 278.599949 
L 195.079408 278.599949 
L 196.50054 278.599949 
L 197.924943 278.599949 
L 199.348975 278.599949 
L 200.845161 278.599949 
L 202.266157 278.599949 
L 203.688001 278.599949 
L 205.185347 278.599949 
L 206.607319 278.599949 
L 208.028628 278.599949 
L 209.451595 278.599949 
L 210.947742 278.599949 
L 212.371165 278.599949 
L 213.793344 278.599949 
L 215.215102 278.599949 
L 216.711866 278.599949 
L 218.134559 278.599949 
" clip-path="url(#pddc609628c)" style="fill: none; stroke-dasharray: 0.8,1.32; stroke-dashoffset: 0; stroke: #1f77b4; stroke-opacity: 0.4; stroke-width: 0.8"/>
   </g>
   <g id="line2d_47">
    <path d="M 183.543442 278.599949 
L 184.967601 278.599949 
L 186.391296 278.599949 
L 187.812245 278.599949 
L 189.311327 278.599949 
L 190.734079 278.599949 
L 192.158953 278.599949 
L 193.582041 278.599949 
L 195.079408 278.599949 
L 196.50054 278.599949 
L 197.924943 278.599949 
L 199.348975 278.599949 
L 200.845161 278.599949 
L 202.266157 278.599949 
L 203.688001 278.599949 
L 205.185347 278.599949 
L 206.607319 278.599949 
L 208.028628 278.599949 
L 209.451595 278.599949 
L 210.947742 278.599949 
L 212.371165 278.599949 
L 213.793344 278.599949 
L 215.215102 278.599949 
L 216.711866 278.599949 
L 218.134559 278.599949 
" clip-path="url(#pddc609628c)" style="fill: none; stroke-dasharray: 0.8,1.32; stroke-dashoffset: 0; stroke: #1f77b4; stroke-opacity: 0.4; stroke-width: 0.8"/>
   </g>
   <g id="line2d_48">
    <path d="M 218.134559 261.740837 
L 219.552606 261.740837 
L 221.044433 261.740837 
L 222.462027 261.740837 
L 223.877904 261.740837 
L 225.369329 261.740837 
L 226.779079 261.740837 
L 228.265343 261.740837 
L 229.675681 261.740837 
L 231.087044 261.740837 
L 232.570784 261.740837 
L 233.979181 261.740837 
L 235.466126 261.740837 
L 236.876859 261.740837 
L 238.36057 261.740837 
L 239.770112 261.740837 
L 241.180612 261.740837 
L 242.664726 261.740837 
L 244.073049 261.740837 
L 245.561778 261.740837 
L 246.978491 261.740837 
L 248.397292 261.740837 
L 249.889318 261.740837 
L 251.306225 261.740837 
L 252.723408 261.740837 
L 254.215696 261.740837 
" clip-path="url(#pddc609628c)" style="fill: none; stroke-dasharray: 0.8,1.32; stroke-dashoffset: 0; stroke: #1f77b4; stroke-opacity: 0.4; stroke-width: 0.8"/>
   </g>
   <g id="line2d_49">
    <path d="M 218.134559 261.740837 
L 219.552606 261.740837 
L 221.044433 261.740837 
L 222.462027 261.740837 
L 223.877904 261.740837 
L 225.369329 261.740837 
L 226.779079 261.740837 
L 228.265343 261.740837 
L 229.675681 261.740837 
L 231.087044 261.740837 
L 232.570784 261.740837 
L 233.979181 261.740837 
L 235.466126 261.740837 
L 236.876859 261.740837 
L 238.36057 261.740837 
L 239.770112 261.740837 
L 241.180612 261.740837 
L 242.664726 261.740837 
L 244.073049 261.740837 
L 245.561778 261.740837 
L 246.978491 261.740837 
L 248.397292 261.740837 
L 249.889318 261.740837 
L 251.306225 261.740837 
L 252.723408 261.740837 
L 254.215696 261.740837 
" clip-path="url(#pddc609628c)" style="fill: none; stroke-dasharray: 0.8,1.32; stroke-dashoffset: 0; stroke: #1f77b4; stroke-opacity: 0.4; stroke-width: 0.8"/>
   </g>
   <g id="line2d_50">
    <path d="M 291.676343 211.227957 
L 293.168136 211.227957 
L 294.586241 211.227957 
L 296.004343 211.227957 
L 297.497309 211.227957 
L 298.915109 211.227957 
L 300.331067 211.227957 
L 301.823841 211.227957 
L 303.241301 211.227957 
L 304.659261 211.227957 
L 306.15169 211.227957 
L 307.571052 211.227957 
L 308.989122 211.227957 
L 310.481201 211.227957 
L 311.897015 211.227957 
L 313.315344 211.227957 
L 314.8081 211.227957 
L 316.225089 211.227957 
L 317.643346 211.227957 
L 319.135671 211.227957 
L 320.552721 211.227957 
L 321.971035 211.227957 
L 323.462926 211.227957 
L 324.880378 211.227957 
L 326.298174 211.227957 
" clip-path="url(#pddc609628c)" style="fill: none; stroke-dasharray: 0.8,1.32; stroke-dashoffset: 0; stroke: #1f77b4; stroke-opacity: 0.4; stroke-width: 0.8"/>
   </g>
   <g id="line2d_51">
    <path d="M 327.78838 236.484068 
L 329.204237 236.484068 
L 330.696034 236.484068 
L 332.112811 236.484068 
L 333.529701 236.484068 
L 335.021495 236.484068 
L 336.437137 236.484068 
L 337.85394 236.484068 
L 339.344999 236.484068 
L 340.760883 236.484068 
L 342.177042 236.484068 
L 343.667985 236.484068 
L 345.08515 236.484068 
L 346.501736 236.484068 
L 347.991942 236.484068 
L 349.408143 236.484068 
L 350.824827 236.484068 
L 352.316211 236.484068 
L 353.733386 236.484068 
L 355.223614 236.484068 
L 356.639617 236.484068 
L 358.05659 236.484068 
L 359.547199 236.484068 
L 360.964614 236.484068 
L 362.382297 236.484068 
" clip-path="url(#pddc609628c)" style="fill: none; stroke-dasharray: 0.8,1.32; stroke-dashoffset: 0; stroke: #1f77b4; stroke-opacity: 0.4; stroke-width: 0.8"/>
   </g>
   <g id="line2d_52">
    <path d="M 327.78838 236.484068 
L 329.204237 236.484068 
L 330.696034 236.484068 
L 332.112811 236.484068 
L 333.529701 236.484068 
L 335.021495 236.484068 
L 336.437137 236.484068 
L 337.85394 236.484068 
L 339.344999 236.484068 
L 340.760883 236.484068 
L 342.177042 236.484068 
L 343.667985 236.484068 
L 345.08515 236.484068 
L 346.501736 236.484068 
L 347.991942 236.484068 
L 349.408143 236.484068 
L 350.824827 236.484068 
L 352.316211 236.484068 
L 353.733386 236.484068 
L 355.223614 236.484068 
L 356.639617 236.484068 
L 358.05659 236.484068 
L 359.547199 236.484068 
L 360.964614 236.484068 
L 362.382297 236.484068 
" clip-path="url(#pddc609628c)" style="fill: none; stroke-dasharray: 0.8,1.32; stroke-dashoffset: 0; stroke: #1f77b4; stroke-opacity: 0.4; stroke-width: 0.8"/>
   </g>
   <g id="line2d_53">
    <path d="M 327.78838 236.484068 
L 329.204237 236.484068 
L 330.696034 236.484068 
L 332.112811 236.484068 
L 333.529701 236.484068 
L 335.021495 236.484068 
L 336.437137 236.484068 
L 337.85394 236.484068 
L 339.344999 236.484068 
L 340.760883 236.484068 
L 342.177042 236.484068 
L 343.667985 236.484068 
L 345.08515 236.484068 
L 346.501736 236.484068 
L 347.991942 236.484068 
L 349.408143 236.484068 
L 350.824827 236.484068 
L 352.316211 236.484068 
L 353.733386 236.484068 
L 355.223614 236.484068 
L 356.639617 236.484068 
L 358.05659 236.484068 
L 359.547199 236.484068 
L 360.964614 236.484068 
L 362.382297 236.484068 
" clip-path="url(#pddc609628c)" style="fill: none; stroke-dasharray: 0.8,1.32; stroke-dashoffset: 0; stroke: #1f77b4; stroke-opacity: 0.4; stroke-width: 0.8"/>
   </g>
   <g id="line2d_54">
    <path d="M 73.832727 295.488 
L 75.324305 294.852651 
L 109.899341 294.852651 
L 111.391835 290.549904 
L 144.593755 290.549904 
L 146.009622 277.921191 
L 216.711866 277.921191 
L 218.134559 261.083126 
L 252.723408 261.083126 
L 254.215696 210.570246 
L 290.259947 210.570246 
L 291.676343 211.227957 
L 326.298174 211.227957 
L 327.78838 235.826357 
L 362.382297 235.826357 
L 363.873806 261.083126 
L 398.487273 261.083126 
L 398.487273 261.083126 
" clip-path="url(#pddc609628c)" style="fill: none; stroke: #1f77b4; stroke-width: 2; stroke-linecap: square"/>
   </g>
   <g id="line2d_55">
    <path d="M 73.832727 295.488 
L 75.324305 294.852651 
L 109.899341 294.852651 
L 111.391835 284.520665 
L 144.593755 284.520665 
L 146.009622 271.891952 
L 147.427622 277.921191 
L 182.045982 277.921191 
L 183.543442 203.37357 
L 216.711866 203.37357 
L 218.134559 115.543471 
L 219.552606 190.091092 
L 252.723408 190.091092 
L 254.215696 139.578212 
L 255.633924 210.570246 
L 290.259947 210.570246 
L 291.676343 175.074229 
L 326.298174 175.074229 
L 327.78838 53.568 
L 362.382297 53.568 
L 363.873806 261.083126 
L 398.487273 261.083126 
L 398.487273 261.083126 
" clip-path="url(#pddc609628c)" style="fill: none; stroke-dasharray: 5.55,2.4; stroke-dashoffset: 0; stroke: #1f77b4; stroke-width: 1.5"/>
   </g>
   <g id="patch_9">
    <path d="M 57.6 307.584 
L 57.6 41.472 
" style="fill: none; stroke: #000000; stroke-width: 0.8; stroke-linejoin: miter; stroke-linecap: square"/>
   </g>
   <g id="patch_10">
    <path d="M 414.72 307.584 
L 414.72 41.472 
" style="fill: none; stroke: #000000; stroke-width: 0.8; stroke-linejoin: miter; stroke-linecap: square"/>
   </g>
   <g id="patch_11">
    <path d="M 57.6 307.584 
L 414.72 307.584 
" style="fill: none; stroke: #000000; stroke-width: 0.8; stroke-linejoin: miter; stroke-linecap: square"/>
   </g>
   <g id="patch_12">
    <path d="M 57.6 41.472 
L 414.72 41.472 
" style="fill: none; stroke: #000000; stroke-width: 0.8; stroke-linejoin: miter; stroke-linecap: square"/>
   </g>
   <g id="text_31">
    <!-- Resource Usage Over Time (per pid) -->
    <g transform="translate(127.370625 35.472) scale(0.12 -0.12)">
     <defs>
      <path id="DejaVuSans-52" d="M 2841 2188 
Q 3044 2119 3236 1894 
Q 3428 1669 3622 1275 
L 4263 0 
L 3584 0 
L 2988 1197 
Q 2756 1666 2539 1819 
Q 2322 1972 1947 1972 
L 1259 1972 
L 1259 0 
L 628 0 
L 628 4666 
L 2053 4666 
Q 2853 4666 3247 4331 
Q 3641 3997 3641 3322 
Q 3641 2881 3436 2590 
Q 3231 2300 2841 2188 
z
M 1259 4147 
L 1259 2491 
L 2053 2491 
Q 2509 2491 2742 2702 
Q 2975 2913 2975 3322 
Q 2975 3731 2742 3939 
Q 2509 4147 2053 4147 
L 1259 4147 
z
" transform="scale(0.015625)"/>
      <path id="DejaVuSans-55" d="M 556 4666 
L 1191 4666 
L 1191 1831 
Q 1191 1081 1462 751 
Q 1734 422 2344 422 
Q 2950 422 3222 751 
Q 3494 1081 3494 1831 
L 3494 4666 
L 4128 4666 
L 4128 1753 
Q 4128 841 3676 375 
Q 3225 -91 2344 -91 
Q 1459 -91 1007 375 
Q 556 841 556 1753 
L 556 4666 
z
" transform="scale(0.015625)"/>
      <path id="DejaVuSans-67" d="M 2906 1791 
Q 2906 2416 2648 2759 
Q 2391 3103 1925 3103 
Q 1463 3103 1205 2759 
Q 947 2416 947 1791 
Q 947 1169 1205 825 
Q 1463 481 1925 481 
Q 2391 481 2648 825 
Q 2906 1169 2906 1791 
z
M 3481 434 
Q 3481 -459 3084 -895 
Q 2688 -1331 1869 -1331 
Q 1566 -1331 1297 -1286 
Q 1028 -1241 775 -1147 
L 775 -588 
Q 1028 -725 1275 -790 
Q 1522 -856 1778 -856 
Q 2344 -856 2625 -561 
Q 2906 -266 2906 331 
L 2906 616 
Q 2728 306 2450 153 
Q 2172 0 1784 0 
Q 1141 0 747 490 
Q 353 981 353 1791 
Q 353 2603 747 3093 
Q 1141 3584 1784 3584 
Q 2172 3584 2450 3431 
Q 2728 3278 2906 2969 
L 2906 3500 
L 3481 3500 
L 3481 434 
z
" transform="scale(0.015625)"/>
      <path id="DejaVuSans-4f" d="M 2522 4238 
Q 1834 4238 1429 3725 
Q 1025 3213 1025 2328 
Q 1025 1447 1429 934 
Q 1834 422 2522 422 
Q 3209 422 3611 934 
Q 4013 1447 4013 2328 
Q 4013 3213 3611 3725 
Q 3209 4238 2522 4238 
z
M 2522 4750 
Q 3503 4750 4090 4092 
Q 4678 3434 4678 2328 
Q 4678 1225 4090 567 
Q 3503 -91 2522 -91 
Q 1538 -91 948 565 
Q 359 1222 359 2328 
Q 359 3434 948 4092 
Q 1538 4750 2522 4750 
z
" transform="scale(0.015625)"/>
      <path id="DejaVuSans-76" d="M 191 3500 
L 800 3500 
L 1894 563 
L 2988 3500 
L 3597 3500 
L 2284 0 
L 1503 0 
L 191 3500 
z
" transform="scale(0.015625)"/>
     </defs>
     <use xlink:href="#DejaVuSans-52"/>
     <use xlink:href="#DejaVuSans-65" transform="translate(64.982422 0)"/>
     <use xlink:href="#DejaVuSans-73" transform="translate(126.505859 0)"/>
     <use xlink:href="#DejaVuSans-6f" transform="translate(178.605469 0)"/>
     <use xlink:href="#DejaVuSans-75" transform="translate(239.787109 0)"/>
     <use xlink:href="#DejaVuSans-72" transform="translate(303.166016 0)"/>
     <use xlink:href="#DejaVuSans-63" transform="translate(342.029297 0)"/>
     <use xlink:href="#DejaVuSans-65" transform="translate(397.009766 0)"/>
     <use xlink:href="#DejaVuSans-20" transform="translate(458.533203 0)"/>
     <use xlink:href="#DejaVuSans-55" transform="translate(490.320312 0)"/>
     <use xlink:href="#DejaVuSans-73" transform="translate(563.513672 0)"/>
     <use xlink:href="#DejaVuSans-61" transform="translate(615.613281 0)"/>
     <use xlink:href="#DejaVuSans-67" transform="translate(676.892578 0)"/>
     <use xlink:href="#DejaVuSans-65" transform="translate(740.369141 0)"/>
     <use xlink:href="#DejaVuSans-20" transform="translate(801.892578 0)"/>
     <use xlink:href="#DejaVuSans-4f" transform="translate(833.679688 0)"/>
     <use xlink:href="#DejaVuSans-76" transform="translate(912.390625 0)"/>
     <use xlink:href="#DejaVuSans-65" transform="translate(971.570312 0)"/>
     <use xlink:href="#DejaVuSans-72" transform="translate(1033.09375 0)"/>
     <use xlink:href="#DejaVuSans-20" transform="translate(1074.207031 0)"/>
     <use xlink:href="#DejaVuSans-54" transform="translate(1105.994141 0)"/>
     <use xlink:href="#DejaVuSans-69" transform="translate(1163.953125 0)"/>
     <use xlink:href="#DejaVuSans-6d" transform="translate(1191.736328 0)"/>
     <use xlink:href="#DejaVuSans-65" transform="translate(1289.148438 0)"/>
     <use xlink:href="#DejaVuSans-20" transform="translate(1350.671875 0)"/>
     <use xlink:href="#DejaVuSans-28" transform="translate(1382.458984 0)"/>
     <use xlink:href="#DejaVuSans-70" transform="translate(1421.472656 0)"/>
     <use xlink:href="#DejaVuSans-65" transform="translate(1484.949219 0)"/>
     <use xlink:href="#DejaVuSans-72" transform="translate(1546.472656 0)"/>
     <use xlink:href="#DejaVuSans-20" transform="translate(1587.585938 0)"/>
     <use xlink:href="#DejaVuSans-70" transform="translate(1619.373047 0)"/>
     <use xlink:href="#DejaVuSans-69" transform="translate(1682.849609 0)"/>
     <use xlink:href="#DejaVuSans-64" transform="translate(1710.632812 0)"/>
     <use xlink:href="#DejaVuSans-29" transform="translate(1774.109375 0)"/>
    </g>
   </g>
  </g>
 </g>
 <defs>
  <clipPath id="pddc609628c">
   <rect x="57.6" y="41.472" width="357.12" height="266.112"/>
  </clipPath>
 </defs>
</svg>
