<?xml version="1.0" encoding="utf-8" standalone="no"?>
<!DOCTYPE svg PUBLIC "-//W3C//DTD SVG 1.1//EN"
  "http://www.w3.org/Graphics/SVG/1.1/DTD/svg11.dtd">
<svg xmlns:xlink="http://www.w3.org/1999/xlink" width="460.8pt" height="345.6pt" viewBox="0 0 460.8 345.6" xmlns="http://www.w3.org/2000/svg" version="1.1">
 <metadata>
  <rdf:RDF xmlns:dc="http://purl.org/dc/elements/1.1/" xmlns:cc="http://creativecommons.org/ns#" xmlns:rdf="http://www.w3.org/1999/02/22-rdf-syntax-ns#">
   <cc:Work>
    <dc:type rdf:resource="http://purl.org/dc/dcmitype/StillImage"/>
    <dc:date>2025-10-03T14:48:58.549432</dc:date>
    <dc:format>image/svg+xml</dc:format>
    <dc:creator>
     <cc:Agent>
      <dc:title>Matplotlib v3.10.6, https://matplotlib.org/</dc:title>
     </cc:Agent>
    </dc:creator>
   </cc:Work>
  </rdf:RDF>
 </metadata>
 <defs>
  <style type="text/css">*{stroke-linejoin: round; stroke-linecap: butt}</style>
 </defs>
 <g id="figure_1">
  <g id="patch_1">
   <path d="M 0 345.6 
L 460.8 345.6 
L 460.8 0 
L 0 0 
z
" style="fill: #ffffff"/>
  </g>
  <g id="axes_1">
   <g id="patch_2">
    <path d="M 50.87 303.64 
L 391.93 303.64 
L 391.93 26.88 
L 50.87 26.88 
z
" style="fill: #ffffff"/>
   </g>
   <g id="matplotlib.axis_1">
    <g id="xtick_1">
     <g id="line2d_1">
      <defs>
       <path id="mfa1caf2917" d="M 0 0 
L 0 3.5 
" style="stroke: #000000; stroke-width: 0.8"/>
      </defs>
      <g>
       <use xlink:href="#mfa1caf2917" x="66.372727" y="303.64" style="stroke: #000000; stroke-width: 0.8"/>
      </g>
     </g>
     <g id="text_1">
      <!-- 0.0h -->
      <g transform="translate(55.252415 318.238437) scale(0.1 -0.1)">
       <defs>
        <path id="DejaVuSans-30" d="M 2034 4250 
Q 1547 4250 1301 3770 
Q 1056 3291 1056 2328 
Q 1056 1369 1301 889 
Q 1547 409 2034 409 
Q 2525 409 2770 889 
Q 3016 1369 3016 2328 
Q 3016 3291 2770 3770 
Q 2525 4250 2034 4250 
z
M 2034 4750 
Q 2819 4750 3233 4129 
Q 3647 3509 3647 2328 
Q 3647 1150 3233 529 
Q 2819 -91 2034 -91 
Q 1250 -91 836 529 
Q 422 1150 422 2328 
Q 422 3509 836 4129 
Q 1250 4750 2034 4750 
z
" transform="scale(0.015625)"/>
        <path id="DejaVuSans-2e" d="M 684 794 
L 1344 794 
L 1344 0 
L 684 0 
L 684 794 
z
" transform="scale(0.015625)"/>
        <path id="DejaVuSans-68" d="M 3513 2113 
L 3513 0 
L 2938 0 
L 2938 2094 
Q 2938 2591 2744 2837 
Q 2550 3084 2163 3084 
Q 1697 3084 1428 2787 
Q 1159 2491 1159 1978 
L 1159 0 
L 581 0 
L 581 4863 
L 1159 4863 
L 1159 2956 
Q 1366 3272 1645 3428 
Q 1925 3584 2291 3584 
Q 2894 3584 3203 3211 
Q 3513 2838 3513 2113 
z
" transform="scale(0.015625)"/>
       </defs>
       <use xlink:href="#DejaVuSans-30"/>
       <use xlink:href="#DejaVuSans-2e" transform="translate(63.623047 0)"/>
       <use xlink:href="#DejaVuSans-30" transform="translate(95.410156 0)"/>
       <use xlink:href="#DejaVuSans-68" transform="translate(159.033203 0)"/>
      </g>
     </g>
    </g>
    <g id="xtick_2">
     <g id="line2d_2">
      <g>
       <use xlink:href="#mfa1caf2917" x="116.93258" y="303.64" style="stroke: #000000; stroke-width: 0.8"/>
      </g>
     </g>
     <g id="text_2">
      <!-- 2.8h -->
      <g transform="translate(105.812268 318.238437) scale(0.1 -0.1)">
       <defs>
        <path id="DejaVuSans-32" d="M 1228 531 
L 3431 531 
L 3431 0 
L 469 0 
L 469 531 
Q 828 903 1448 1529 
Q 2069 2156 2228 2338 
Q 2531 2678 2651 2914 
Q 2772 3150 2772 3378 
Q 2772 3750 2511 3984 
Q 2250 4219 1831 4219 
Q 1534 4219 1204 4116 
Q 875 4013 500 3803 
L 500 4441 
Q 881 4594 1212 4672 
Q 1544 4750 1819 4750 
Q 2544 4750 2975 4387 
Q 3406 4025 3406 3419 
Q 3406 3131 3298 2873 
Q 3191 2616 2906 2266 
Q 2828 2175 2409 1742 
Q 1991 1309 1228 531 
z
" transform="scale(0.015625)"/>
        <path id="DejaVuSans-38" d="M 2034 2216 
Q 1584 2216 1326 1975 
Q 1069 1734 1069 1313 
Q 1069 891 1326 650 
Q 1584 409 2034 409 
Q 2484 409 2743 651 
Q 3003 894 3003 1313 
Q 3003 1734 2745 1975 
Q 2488 2216 2034 2216 
z
M 1403 2484 
Q 997 2584 770 2862 
Q 544 3141 544 3541 
Q 544 4100 942 4425 
Q 1341 4750 2034 4750 
Q 2731 4750 3128 4425 
Q 3525 4100 3525 3541 
Q 3525 3141 3298 2862 
Q 3072 2584 2669 2484 
Q 3125 2378 3379 2068 
Q 3634 1759 3634 1313 
Q 3634 634 3220 271 
Q 2806 -91 2034 -91 
Q 1263 -91 848 271 
Q 434 634 434 1313 
Q 434 1759 690 2068 
Q 947 2378 1403 2484 
z
M 1172 3481 
Q 1172 3119 1398 2916 
Q 1625 2713 2034 2713 
Q 2441 2713 2670 2916 
Q 2900 3119 2900 3481 
Q 2900 3844 2670 4047 
Q 2441 4250 2034 4250 
Q 1625 4250 1398 4047 
Q 1172 3844 1172 3481 
z
" transform="scale(0.015625)"/>
       </defs>
       <use xlink:href="#DejaVuSans-32"/>
       <use xlink:href="#DejaVuSans-2e" transform="translate(63.623047 0)"/>
       <use xlink:href="#DejaVuSans-38" transform="translate(95.410156 0)"/>
       <use xlink:href="#DejaVuSans-68" transform="translate(159.033203 0)"/>
      </g>
     </g>
    </g>
    <g id="xtick_3">
     <g id="line2d_3">
      <g>
       <use xlink:href="#mfa1caf2917" x="167.492433" y="303.64" style="stroke: #000000; stroke-width: 0.8"/>
      </g>
     </g>
     <g id="text_3">
      <!-- 5.6h -->
      <g transform="translate(156.37212 318.238437) scale(0.1 -0.1)">
       <defs>
        <path id="DejaVuSans-35" d="M 691 4666 
L 3169 4666 
L 3169 4134 
L 1269 4134 
L 1269 2991 
Q 1406 3038 1543 3061 
Q 1681 3084 1819 3084 
Q 2600 3084 3056 2656 
Q 3513 2228 3513 1497 
Q 3513 744 3044 326 
Q 2575 -91 1722 -91 
Q 1428 -91 1123 -41 
Q 819 9 494 109 
L 494 744 
Q 775 591 1075 516 
Q 1375 441 1709 441 
Q 2250 441 2565 725 
Q 2881 1009 2881 1497 
Q 2881 1984 2565 2268 
Q 2250 2553 1709 2553 
Q 1456 2553 1204 2497 
Q 953 2441 691 2322 
L 691 4666 
z
" transform="scale(0.015625)"/>
        <path id="DejaVuSans-36" d="M 2113 2584 
Q 1688 2584 1439 2293 
Q 1191 2003 1191 1497 
Q 1191 994 1439 701 
Q 1688 409 2113 409 
Q 2538 409 2786 701 
Q 3034 994 3034 1497 
Q 3034 2003 2786 2293 
Q 2538 2584 2113 2584 
z
M 3366 4563 
L 3366 3988 
Q 3128 4100 2886 4159 
Q 2644 4219 2406 4219 
Q 1781 4219 1451 3797 
Q 1122 3375 1075 2522 
Q 1259 2794 1537 2939 
Q 1816 3084 2150 3084 
Q 2853 3084 3261 2657 
Q 3669 2231 3669 1497 
Q 3669 778 3244 343 
Q 2819 -91 2113 -91 
Q 1303 -91 875 529 
Q 447 1150 447 2328 
Q 447 3434 972 4092 
Q 1497 4750 2381 4750 
Q 2619 4750 2861 4703 
Q 3103 4656 3366 4563 
z
" transform="scale(0.015625)"/>
       </defs>
       <use xlink:href="#DejaVuSans-35"/>
       <use xlink:href="#DejaVuSans-2e" transform="translate(63.623047 0)"/>
       <use xlink:href="#DejaVuSans-36" transform="translate(95.410156 0)"/>
       <use xlink:href="#DejaVuSans-68" transform="translate(159.033203 0)"/>
      </g>
     </g>
    </g>
    <g id="xtick_4">
     <g id="line2d_4">
      <g>
       <use xlink:href="#mfa1caf2917" x="218.052286" y="303.64" style="stroke: #000000; stroke-width: 0.8"/>
      </g>
     </g>
     <g id="text_4">
      <!-- 8.3h -->
      <g transform="translate(206.931973 318.238437) scale(0.1 -0.1)">
       <defs>
        <path id="DejaVuSans-33" d="M 2597 2516 
Q 3050 2419 3304 2112 
Q 3559 1806 3559 1356 
Q 3559 666 3084 287 
Q 2609 -91 1734 -91 
Q 1441 -91 1130 -33 
Q 819 25 488 141 
L 488 750 
Q 750 597 1062 519 
Q 1375 441 1716 441 
Q 2309 441 2620 675 
Q 2931 909 2931 1356 
Q 2931 1769 2642 2001 
Q 2353 2234 1838 2234 
L 1294 2234 
L 1294 2753 
L 1863 2753 
Q 2328 2753 2575 2939 
Q 2822 3125 2822 3475 
Q 2822 3834 2567 4026 
Q 2313 4219 1838 4219 
Q 1578 4219 1281 4162 
Q 984 4106 628 3988 
L 628 4550 
Q 988 4650 1302 4700 
Q 1616 4750 1894 4750 
Q 2613 4750 3031 4423 
Q 3450 4097 3450 3541 
Q 3450 3153 3228 2886 
Q 3006 2619 2597 2516 
z
" transform="scale(0.015625)"/>
       </defs>
       <use xlink:href="#DejaVuSans-38"/>
       <use xlink:href="#DejaVuSans-2e" transform="translate(63.623047 0)"/>
       <use xlink:href="#DejaVuSans-33" transform="translate(95.410156 0)"/>
       <use xlink:href="#DejaVuSans-68" transform="translate(159.033203 0)"/>
      </g>
     </g>
    </g>
    <g id="xtick_5">
     <g id="line2d_5">
      <g>
       <use xlink:href="#mfa1caf2917" x="268.612139" y="303.64" style="stroke: #000000; stroke-width: 0.8"/>
      </g>
     </g>
     <g id="text_5">
      <!-- 11.1h -->
      <g transform="translate(254.310576 318.238437) scale(0.1 -0.1)">
       <defs>
        <path id="DejaVuSans-31" d="M 794 531 
L 1825 531 
L 1825 4091 
L 703 3866 
L 703 4441 
L 1819 4666 
L 2450 4666 
L 2450 531 
L 3481 531 
L 3481 0 
L 794 0 
L 794 531 
z
" transform="scale(0.015625)"/>
       </defs>
       <use xlink:href="#DejaVuSans-31"/>
       <use xlink:href="#DejaVuSans-31" transform="translate(63.623047 0)"/>
       <use xlink:href="#DejaVuSans-2e" transform="translate(127.246094 0)"/>
       <use xlink:href="#DejaVuSans-31" transform="translate(159.033203 0)"/>
       <use xlink:href="#DejaVuSans-68" transform="translate(222.65625 0)"/>
      </g>
     </g>
    </g>
    <g id="xtick_6">
     <g id="line2d_6">
      <g>
       <use xlink:href="#mfa1caf2917" x="319.171992" y="303.64" style="stroke: #000000; stroke-width: 0.8"/>
      </g>
     </g>
     <g id="text_6">
      <!-- 13.9h -->
      <g transform="translate(304.870429 318.238437) scale(0.1 -0.1)">
       <defs>
        <path id="DejaVuSans-39" d="M 703 97 
L 703 672 
Q 941 559 1184 500 
Q 1428 441 1663 441 
Q 2288 441 2617 861 
Q 2947 1281 2994 2138 
Q 2813 1869 2534 1725 
Q 2256 1581 1919 1581 
Q 1219 1581 811 2004 
Q 403 2428 403 3163 
Q 403 3881 828 4315 
Q 1253 4750 1959 4750 
Q 2769 4750 3195 4129 
Q 3622 3509 3622 2328 
Q 3622 1225 3098 567 
Q 2575 -91 1691 -91 
Q 1453 -91 1209 -44 
Q 966 3 703 97 
z
M 1959 2075 
Q 2384 2075 2632 2365 
Q 2881 2656 2881 3163 
Q 2881 3666 2632 3958 
Q 2384 4250 1959 4250 
Q 1534 4250 1286 3958 
Q 1038 3666 1038 3163 
Q 1038 2656 1286 2365 
Q 1534 2075 1959 2075 
z
" transform="scale(0.015625)"/>
       </defs>
       <use xlink:href="#DejaVuSans-31"/>
       <use xlink:href="#DejaVuSans-33" transform="translate(63.623047 0)"/>
       <use xlink:href="#DejaVuSans-2e" transform="translate(127.246094 0)"/>
       <use xlink:href="#DejaVuSans-39" transform="translate(159.033203 0)"/>
       <use xlink:href="#DejaVuSans-68" transform="translate(222.65625 0)"/>
      </g>
     </g>
    </g>
    <g id="xtick_7">
     <g id="line2d_7">
      <g>
       <use xlink:href="#mfa1caf2917" x="369.731844" y="303.64" style="stroke: #000000; stroke-width: 0.8"/>
      </g>
     </g>
     <g id="text_7">
      <!-- 16.7h -->
      <g transform="translate(355.430282 318.238437) scale(0.1 -0.1)">
       <defs>
        <path id="DejaVuSans-37" d="M 525 4666 
L 3525 4666 
L 3525 4397 
L 1831 0 
L 1172 0 
L 2766 4134 
L 525 4134 
L 525 4666 
z
" transform="scale(0.015625)"/>
       </defs>
       <use xlink:href="#DejaVuSans-31"/>
       <use xlink:href="#DejaVuSans-36" transform="translate(63.623047 0)"/>
       <use xlink:href="#DejaVuSans-2e" transform="translate(127.246094 0)"/>
       <use xlink:href="#DejaVuSans-37" transform="translate(159.033203 0)"/>
       <use xlink:href="#DejaVuSans-68" transform="translate(222.65625 0)"/>
      </g>
     </g>
    </g>
    <g id="text_8">
     <!-- Elapsed Time -->
     <g transform="translate(187.935156 331.916562) scale(0.1 -0.1)">
      <defs>
       <path id="DejaVuSans-45" d="M 628 4666 
L 3578 4666 
L 3578 4134 
L 1259 4134 
L 1259 2753 
L 3481 2753 
L 3481 2222 
L 1259 2222 
L 1259 531 
L 3634 531 
L 3634 0 
L 628 0 
L 628 4666 
z
" transform="scale(0.015625)"/>
       <path id="DejaVuSans-6c" d="M 603 4863 
L 1178 4863 
L 1178 0 
L 603 0 
L 603 4863 
z
" transform="scale(0.015625)"/>
       <path id="DejaVuSans-61" d="M 2194 1759 
Q 1497 1759 1228 1600 
Q 959 1441 959 1056 
Q 959 750 1161 570 
Q 1363 391 1709 391 
Q 2188 391 2477 730 
Q 2766 1069 2766 1631 
L 2766 1759 
L 2194 1759 
z
M 3341 1997 
L 3341 0 
L 2766 0 
L 2766 531 
Q 2569 213 2275 61 
Q 1981 -91 1556 -91 
Q 1019 -91 701 211 
Q 384 513 384 1019 
Q 384 1609 779 1909 
Q 1175 2209 1959 2209 
L 2766 2209 
L 2766 2266 
Q 2766 2663 2505 2880 
Q 2244 3097 1772 3097 
Q 1472 3097 1187 3025 
Q 903 2953 641 2809 
L 641 3341 
Q 956 3463 1253 3523 
Q 1550 3584 1831 3584 
Q 2591 3584 2966 3190 
Q 3341 2797 3341 1997 
z
" transform="scale(0.015625)"/>
       <path id="DejaVuSans-70" d="M 1159 525 
L 1159 -1331 
L 581 -1331 
L 581 3500 
L 1159 3500 
L 1159 2969 
Q 1341 3281 1617 3432 
Q 1894 3584 2278 3584 
Q 2916 3584 3314 3078 
Q 3713 2572 3713 1747 
Q 3713 922 3314 415 
Q 2916 -91 2278 -91 
Q 1894 -91 1617 61 
Q 1341 213 1159 525 
z
M 3116 1747 
Q 3116 2381 2855 2742 
Q 2594 3103 2138 3103 
Q 1681 3103 1420 2742 
Q 1159 2381 1159 1747 
Q 1159 1113 1420 752 
Q 1681 391 2138 391 
Q 2594 391 2855 752 
Q 3116 1113 3116 1747 
z
" transform="scale(0.015625)"/>
       <path id="DejaVuSans-73" d="M 2834 3397 
L 2834 2853 
Q 2591 2978 2328 3040 
Q 2066 3103 1784 3103 
Q 1356 3103 1142 2972 
Q 928 2841 928 2578 
Q 928 2378 1081 2264 
Q 1234 2150 1697 2047 
L 1894 2003 
Q 2506 1872 2764 1633 
Q 3022 1394 3022 966 
Q 3022 478 2636 193 
Q 2250 -91 1575 -91 
Q 1294 -91 989 -36 
Q 684 19 347 128 
L 347 722 
Q 666 556 975 473 
Q 1284 391 1588 391 
Q 1994 391 2212 530 
Q 2431 669 2431 922 
Q 2431 1156 2273 1281 
Q 2116 1406 1581 1522 
L 1381 1569 
Q 847 1681 609 1914 
Q 372 2147 372 2553 
Q 372 3047 722 3315 
Q 1072 3584 1716 3584 
Q 2034 3584 2315 3537 
Q 2597 3491 2834 3397 
z
" transform="scale(0.015625)"/>
       <path id="DejaVuSans-65" d="M 3597 1894 
L 3597 1613 
L 953 1613 
Q 991 1019 1311 708 
Q 1631 397 2203 397 
Q 2534 397 2845 478 
Q 3156 559 3463 722 
L 3463 178 
Q 3153 47 2828 -22 
Q 2503 -91 2169 -91 
Q 1331 -91 842 396 
Q 353 884 353 1716 
Q 353 2575 817 3079 
Q 1281 3584 2069 3584 
Q 2775 3584 3186 3129 
Q 3597 2675 3597 1894 
z
M 3022 2063 
Q 3016 2534 2758 2815 
Q 2500 3097 2075 3097 
Q 1594 3097 1305 2825 
Q 1016 2553 972 2059 
L 3022 2063 
z
" transform="scale(0.015625)"/>
       <path id="DejaVuSans-64" d="M 2906 2969 
L 2906 4863 
L 3481 4863 
L 3481 0 
L 2906 0 
L 2906 525 
Q 2725 213 2448 61 
Q 2172 -91 1784 -91 
Q 1150 -91 751 415 
Q 353 922 353 1747 
Q 353 2572 751 3078 
Q 1150 3584 1784 3584 
Q 2172 3584 2448 3432 
Q 2725 3281 2906 2969 
z
M 947 1747 
Q 947 1113 1208 752 
Q 1469 391 1925 391 
Q 2381 391 2643 752 
Q 2906 1113 2906 1747 
Q 2906 2381 2643 2742 
Q 2381 3103 1925 3103 
Q 1469 3103 1208 2742 
Q 947 2381 947 1747 
z
" transform="scale(0.015625)"/>
       <path id="DejaVuSans-20" transform="scale(0.015625)"/>
       <path id="DejaVuSans-54" d="M -19 4666 
L 3928 4666 
L 3928 4134 
L 2272 4134 
L 2272 0 
L 1638 0 
L 1638 4134 
L -19 4134 
L -19 4666 
z
" transform="scale(0.015625)"/>
       <path id="DejaVuSans-69" d="M 603 3500 
L 1178 3500 
L 1178 0 
L 603 0 
L 603 3500 
z
M 603 4863 
L 1178 4863 
L 1178 4134 
L 603 4134 
L 603 4863 
z
" transform="scale(0.015625)"/>
       <path id="DejaVuSans-6d" d="M 3328 2828 
Q 3544 3216 3844 3400 
Q 4144 3584 4550 3584 
Q 5097 3584 5394 3201 
Q 5691 2819 5691 2113 
L 5691 0 
L 5113 0 
L 5113 2094 
Q 5113 2597 4934 2840 
Q 4756 3084 4391 3084 
Q 3944 3084 3684 2787 
Q 3425 2491 3425 1978 
L 3425 0 
L 2847 0 
L 2847 2094 
Q 2847 2600 2669 2842 
Q 2491 3084 2119 3084 
Q 1678 3084 1418 2786 
Q 1159 2488 1159 1978 
L 1159 0 
L 581 0 
L 581 3500 
L 1159 3500 
L 1159 2956 
Q 1356 3278 1631 3431 
Q 1906 3584 2284 3584 
Q 2666 3584 2933 3390 
Q 3200 3197 3328 2828 
z
" transform="scale(0.015625)"/>
      </defs>
      <use xlink:href="#DejaVuSans-45"/>
      <use xlink:href="#DejaVuSans-6c" transform="translate(63.183594 0)"/>
      <use xlink:href="#DejaVuSans-61" transform="translate(90.966797 0)"/>
      <use xlink:href="#DejaVuSans-70" transform="translate(152.246094 0)"/>
      <use xlink:href="#DejaVuSans-73" transform="translate(215.722656 0)"/>
      <use xlink:href="#DejaVuSans-65" transform="translate(267.822266 0)"/>
      <use xlink:href="#DejaVuSans-64" transform="translate(329.345703 0)"/>
      <use xlink:href="#DejaVuSans-20" transform="translate(392.822266 0)"/>
      <use xlink:href="#DejaVuSans-54" transform="translate(424.609375 0)"/>
      <use xlink:href="#DejaVuSans-69" transform="translate(482.568359 0)"/>
      <use xlink:href="#DejaVuSans-6d" transform="translate(510.351562 0)"/>
      <use xlink:href="#DejaVuSans-65" transform="translate(607.763672 0)"/>
     </g>
    </g>
   </g>
   <g id="matplotlib.axis_2">
    <g id="ytick_1">
     <g id="line2d_8">
      <defs>
       <path id="m77a90019f2" d="M 0 0 
L -3.5 0 
" style="stroke: #000000; stroke-width: 0.8"/>
      </defs>
      <g>
       <use xlink:href="#m77a90019f2" x="50.87" y="291.06" style="stroke: #000000; stroke-width: 0.8"/>
      </g>
     </g>
     <g id="text_9">
      <!-- 0 -->
      <g transform="translate(37.5075 294.859219) scale(0.1 -0.1)">
       <use xlink:href="#DejaVuSans-30"/>
      </g>
     </g>
    </g>
    <g id="ytick_2">
     <g id="line2d_9">
      <g>
       <use xlink:href="#m77a90019f2" x="50.87" y="233.878182" style="stroke: #000000; stroke-width: 0.8"/>
      </g>
     </g>
     <g id="text_10">
      <!-- 50 -->
      <g transform="translate(31.145 237.677401) scale(0.1 -0.1)">
       <use xlink:href="#DejaVuSans-35"/>
       <use xlink:href="#DejaVuSans-30" transform="translate(63.623047 0)"/>
      </g>
     </g>
    </g>
    <g id="ytick_3">
     <g id="line2d_10">
      <g>
       <use xlink:href="#m77a90019f2" x="50.87" y="176.696364" style="stroke: #000000; stroke-width: 0.8"/>
      </g>
     </g>
     <g id="text_11">
      <!-- 100 -->
      <g transform="translate(24.7825 180.495582) scale(0.1 -0.1)">
       <use xlink:href="#DejaVuSans-31"/>
       <use xlink:href="#DejaVuSans-30" transform="translate(63.623047 0)"/>
       <use xlink:href="#DejaVuSans-30" transform="translate(127.246094 0)"/>
      </g>
     </g>
    </g>
    <g id="ytick_4">
     <g id="line2d_11">
      <g>
       <use xlink:href="#m77a90019f2" x="50.87" y="119.514545" style="stroke: #000000; stroke-width: 0.8"/>
      </g>
     </g>
     <g id="text_12">
      <!-- 150 -->
      <g transform="translate(24.7825 123.313764) scale(0.1 -0.1)">
       <use xlink:href="#DejaVuSans-31"/>
       <use xlink:href="#DejaVuSans-35" transform="translate(63.623047 0)"/>
       <use xlink:href="#DejaVuSans-30" transform="translate(127.246094 0)"/>
      </g>
     </g>
    </g>
    <g id="ytick_5">
     <g id="line2d_12">
      <g>
       <use xlink:href="#m77a90019f2" x="50.87" y="62.332727" style="stroke: #000000; stroke-width: 0.8"/>
      </g>
     </g>
     <g id="text_13">
      <!-- 200 -->
      <g transform="translate(24.7825 66.131946) scale(0.1 -0.1)">
       <use xlink:href="#DejaVuSans-32"/>
       <use xlink:href="#DejaVuSans-30" transform="translate(63.623047 0)"/>
       <use xlink:href="#DejaVuSans-30" transform="translate(127.246094 0)"/>
      </g>
     </g>
    </g>
    <g id="text_14">
     <!-- Percentage -->
     <g transform="translate(18.702813 193.382656) rotate(-90) scale(0.1 -0.1)">
      <defs>
       <path id="DejaVuSans-50" d="M 1259 4147 
L 1259 2394 
L 2053 2394 
Q 2494 2394 2734 2622 
Q 2975 2850 2975 3272 
Q 2975 3691 2734 3919 
Q 2494 4147 2053 4147 
L 1259 4147 
z
M 628 4666 
L 2053 4666 
Q 2838 4666 3239 4311 
Q 3641 3956 3641 3272 
Q 3641 2581 3239 2228 
Q 2838 1875 2053 1875 
L 1259 1875 
L 1259 0 
L 628 0 
L 628 4666 
z
" transform="scale(0.015625)"/>
       <path id="DejaVuSans-72" d="M 2631 2963 
Q 2534 3019 2420 3045 
Q 2306 3072 2169 3072 
Q 1681 3072 1420 2755 
Q 1159 2438 1159 1844 
L 1159 0 
L 581 0 
L 581 3500 
L 1159 3500 
L 1159 2956 
Q 1341 3275 1631 3429 
Q 1922 3584 2338 3584 
Q 2397 3584 2469 3576 
Q 2541 3569 2628 3553 
L 2631 2963 
z
" transform="scale(0.015625)"/>
       <path id="DejaVuSans-63" d="M 3122 3366 
L 3122 2828 
Q 2878 2963 2633 3030 
Q 2388 3097 2138 3097 
Q 1578 3097 1268 2742 
Q 959 2388 959 1747 
Q 959 1106 1268 751 
Q 1578 397 2138 397 
Q 2388 397 2633 464 
Q 2878 531 3122 666 
L 3122 134 
Q 2881 22 2623 -34 
Q 2366 -91 2075 -91 
Q 1284 -91 818 406 
Q 353 903 353 1747 
Q 353 2603 823 3093 
Q 1294 3584 2113 3584 
Q 2378 3584 2631 3529 
Q 2884 3475 3122 3366 
z
" transform="scale(0.015625)"/>
       <path id="DejaVuSans-6e" d="M 3513 2113 
L 3513 0 
L 2938 0 
L 2938 2094 
Q 2938 2591 2744 2837 
Q 2550 3084 2163 3084 
Q 1697 3084 1428 2787 
Q 1159 2491 1159 1978 
L 1159 0 
L 581 0 
L 581 3500 
L 1159 3500 
L 1159 2956 
Q 1366 3272 1645 3428 
Q 1925 3584 2291 3584 
Q 2894 3584 3203 3211 
Q 3513 2838 3513 2113 
z
" transform="scale(0.015625)"/>
       <path id="DejaVuSans-74" d="M 1172 4494 
L 1172 3500 
L 2356 3500 
L 2356 3053 
L 1172 3053 
L 1172 1153 
Q 1172 725 1289 603 
Q 1406 481 1766 481 
L 2356 481 
L 2356 0 
L 1766 0 
Q 1100 0 847 248 
Q 594 497 594 1153 
L 594 3053 
L 172 3053 
L 172 3500 
L 594 3500 
L 594 4494 
L 1172 4494 
z
" transform="scale(0.015625)"/>
       <path id="DejaVuSans-67" d="M 2906 1791 
Q 2906 2416 2648 2759 
Q 2391 3103 1925 3103 
Q 1463 3103 1205 2759 
Q 947 2416 947 1791 
Q 947 1169 1205 825 
Q 1463 481 1925 481 
Q 2391 481 2648 825 
Q 2906 1169 2906 1791 
z
M 3481 434 
Q 3481 -459 3084 -895 
Q 2688 -1331 1869 -1331 
Q 1566 -1331 1297 -1286 
Q 1028 -1241 775 -1147 
L 775 -588 
Q 1028 -725 1275 -790 
Q 1522 -856 1778 -856 
Q 2344 -856 2625 -561 
Q 2906 -266 2906 331 
L 2906 616 
Q 2728 306 2450 153 
Q 2172 0 1784 0 
Q 1141 0 747 490 
Q 353 981 353 1791 
Q 353 2603 747 3093 
Q 1141 3584 1784 3584 
Q 2172 3584 2450 3431 
Q 2728 3278 2906 2969 
L 2906 3500 
L 3481 3500 
L 3481 434 
z
" transform="scale(0.015625)"/>
      </defs>
      <use xlink:href="#DejaVuSans-50"/>
      <use xlink:href="#DejaVuSans-65" transform="translate(56.677734 0)"/>
      <use xlink:href="#DejaVuSans-72" transform="translate(118.201172 0)"/>
      <use xlink:href="#DejaVuSans-63" transform="translate(157.064453 0)"/>
      <use xlink:href="#DejaVuSans-65" transform="translate(212.044922 0)"/>
      <use xlink:href="#DejaVuSans-6e" transform="translate(273.568359 0)"/>
      <use xlink:href="#DejaVuSans-74" transform="translate(336.947266 0)"/>
      <use xlink:href="#DejaVuSans-61" transform="translate(376.15625 0)"/>
      <use xlink:href="#DejaVuSans-67" transform="translate(437.435547 0)"/>
      <use xlink:href="#DejaVuSans-65" transform="translate(500.912109 0)"/>
     </g>
    </g>
   </g>
   <g id="line2d_13">
    <path d="M 66.372727 291.06 
L 66.97999 290.945636 
L 67.285945 290.488182 
L 67.589933 290.945636 
L 68.499407 290.945636 
L 69.407967 290.716909 
L 69.712243 290.716909 
L 70.320954 290.831273 
L 70.925794 290.831273 
L 71.530312 290.716909 
L 71.834506 290.831273 
L 72.443757 289.001455 
L 72.748228 290.831273 
L 118.855884 290.831273 
L 119.464483 290.716909 
L 134.327414 290.716909 
L 134.935813 290.831273 
L 241.410817 290.831273 
L 242.020233 290.716909 
L 255.669733 290.716909 
L 256.278152 290.831273 
L 296.92585 290.831273 
L 297.536324 290.716909 
L 297.836841 290.145091 
L 298.143712 290.716909 
L 298.74585 290.602545 
L 299.052638 289.916364 
L 299.354013 290.831273 
L 299.661458 290.716909 
L 299.962996 290.145091 
L 300.263774 290.716909 
L 300.570917 290.716909 
L 300.873406 290.602545 
L 301.177859 290.030727 
L 301.478579 290.716909 
L 301.783187 290.373818 
L 302.085438 290.716909 
L 303.2993 290.373818 
L 303.604627 289.458909 
L 303.906605 290.716909 
L 304.207798 290.602545 
L 304.513356 290.030727 
L 304.815255 290.831273 
L 305.117774 290.716909 
L 305.424834 290.259455 
L 305.726274 290.716909 
L 306.026806 290.716909 
L 306.331495 290.259455 
L 306.632899 290.716909 
L 306.941302 290.259455 
L 307.242969 290.831273 
L 307.544158 290.716909 
L 307.847238 290.259455 
L 308.153566 290.716909 
L 308.457833 290.716909 
L 308.76209 290.259455 
L 309.062965 290.716909 
L 309.367619 290.716909 
L 309.667394 290.145091 
L 309.973728 290.716909 
L 310.58 290.602545 
L 310.881213 289.916364 
L 311.187643 290.716909 
L 311.489187 290.602545 
L 311.792209 290.030727 
L 312.097994 290.716909 
L 312.397951 290.716909 
L 312.703878 290.030727 
L 313.007089 290.716909 
L 313.312442 290.716909 
L 313.610906 290.602545 
L 313.914633 289.916364 
L 314.220956 290.716909 
L 314.521564 290.716909 
L 314.826299 290.145091 
L 315.129233 290.716909 
L 316.042053 290.488182 
L 316.345156 289.687636 
L 316.645191 290.716909 
L 317.253144 290.602545 
L 317.554357 290.030727 
L 317.860434 290.716909 
L 318.160807 290.259455 
L 318.467498 290.716909 
L 318.767694 290.716909 
L 319.074035 290.602545 
L 319.375468 289.916364 
L 319.680659 290.716909 
L 320.288509 290.602545 
L 320.588719 289.916364 
L 320.895484 290.831273 
L 321.196683 290.259455 
L 321.502697 288.887091 
L 321.802794 289.916364 
L 322.108533 289.458909 
L 322.409338 289.573273 
L 322.715465 290.030727 
L 323.016205 288.772727 
L 323.321904 289.687636 
L 323.622042 289.916364 
L 323.927368 289.916364 
L 324.232707 289.802 
L 324.533103 289.458909 
L 325.139249 289.687636 
L 325.444293 289.458909 
L 325.744726 289.001455 
L 326.050544 289.458909 
L 326.356518 290.145091 
L 326.657189 289.344545 
L 326.962658 289.458909 
L 327.263214 290.373818 
L 327.56948 290.945636 
L 329.689856 290.945636 
L 329.995079 290.602545 
L 331.206584 290.602545 
L 331.511978 290.945636 
L 331.812198 290.716909 
L 332.118474 290.716909 
L 332.419167 289.230182 
L 336.666 289.230182 
L 336.972688 288.887091 
L 337.273318 288.887091 
L 337.579742 289.001455 
L 338.187451 288.887091 
L 338.488424 289.344545 
L 339.096203 288.887091 
L 339.396809 288.887091 
L 339.70251 290.831273 
L 340.003183 290.945636 
L 340.308325 290.488182 
L 340.613446 290.488182 
L 340.914397 290.945636 
L 341.220817 290.259455 
L 341.521256 290.373818 
L 341.827075 290.945636 
L 342.128005 290.945636 
L 342.429188 290.373818 
L 342.734731 290.488182 
L 343.040994 290.945636 
L 343.341495 290.373818 
L 343.647065 290.259455 
L 343.947563 290.945636 
L 344.253823 290.945636 
L 344.5549 290.602545 
L 344.860073 290.602545 
L 345.164406 290.945636 
L 345.465588 290.030727 
L 345.766523 289.916364 
L 346.072677 290.145091 
L 346.377658 290.945636 
L 346.677184 290.488182 
L 346.98148 290.488182 
L 347.287223 290.945636 
L 347.586702 290.945636 
L 347.891311 290.373818 
L 348.196032 290.945636 
L 348.500808 290.945636 
L 348.80147 290.602545 
L 349.107246 290.602545 
L 349.408461 290.945636 
L 349.715085 290.488182 
L 350.014871 290.373818 
L 350.321121 290.945636 
L 350.622108 290.945636 
L 350.926317 290.602545 
L 351.226887 290.945636 
L 351.532371 290.945636 
L 351.833373 290.602545 
L 352.138871 290.602545 
L 352.445178 290.945636 
L 352.746437 290.488182 
L 353.051779 290.488182 
L 353.352674 290.945636 
L 353.654423 290.831273 
L 353.959413 290.145091 
L 354.264233 290.373818 
L 354.565352 290.945636 
L 354.872107 290.373818 
L 355.172185 290.488182 
L 355.478284 290.945636 
L 355.779295 290.945636 
L 356.085202 290.373818 
L 356.385834 290.488182 
L 356.691523 290.945636 
L 356.992196 290.373818 
L 357.297061 290.373818 
L 357.598175 290.945636 
L 357.904831 290.945636 
L 358.205013 290.259455 
L 358.510559 290.488182 
L 358.811655 290.945636 
L 359.117577 290.145091 
L 359.418121 290.145091 
L 359.724224 290.259455 
L 360.025301 290.945636 
L 360.330793 290.145091 
L 360.631563 290.373818 
L 360.937091 290.945636 
L 361.237597 290.945636 
L 361.543844 290.373818 
L 361.844821 290.945636 
L 362.151575 290.945636 
L 362.452905 290.259455 
L 362.758718 290.373818 
L 363.057957 290.945636 
L 363.363665 290.945636 
L 363.669281 290.145091 
L 363.967786 289.802 
L 364.276209 289.916364 
L 364.575032 289.458909 
L 364.879999 290.373818 
L 365.18538 289.916364 
L 365.484658 290.030727 
L 365.788243 289.458909 
L 366.092304 289.916364 
L 366.698477 288.887091 
L 367.004062 289.344545 
L 367.305248 289.344545 
L 367.611682 288.887091 
L 367.912417 289.344545 
L 368.218816 290.373818 
L 368.519676 290.831273 
L 368.826082 290.488182 
L 370.036263 290.488182 
L 370.343081 290.831273 
L 374.890341 290.831273 
L 375.500368 290.259455 
L 375.801651 290.145091 
L 376.103989 290.945636 
L 376.405874 290.945636 
L 376.427273 291.06 
L 376.427273 291.06 
" clip-path="url(#pd20dead3db)" style="fill: none; stroke: #1f77b4; stroke-width: 1.5; stroke-linecap: square"/>
   </g>
   <g id="line2d_14">
    <path d="M 66.372727 176.696364 
L 66.676536 39.46 
L 66.97999 199.912182 
L 67.285945 198.311091 
L 67.589933 100.873273 
L 68.19453 132.780727 
L 68.803996 146.847455 
L 69.103307 243.599091 
L 69.712243 232.277091 
L 70.320954 224.957818 
L 70.925794 219.354 
L 71.530312 214.779455 
L 71.834506 213.178364 
L 72.138904 106.362727 
L 72.443757 101.673818 
L 72.748228 103.961091 
L 73.047654 111.852182 
L 73.957995 119.743273 
L 74.86975 126.833818 
L 76.080459 133.924364 
L 77.59858 140.786182 
L 80.027031 148.677273 
L 81.241612 151.422 
L 81.542707 146.961818 
L 81.849029 153.594909 
L 82.151571 153.709273 
L 82.45402 154.738545 
L 83.362091 155.996545 
L 86.69878 159.656182 
L 87.609171 160.456727 
L 88.520099 161.371636 
L 90.039759 162.629636 
L 90.341422 162.972727 
L 90.945346 163.315818 
L 93.072479 164.802545 
L 93.373596 157.712 
L 93.675199 164.459455 
L 93.981978 164.916909 
L 95.195213 165.488727 
L 96.408264 166.289273 
L 98.22965 167.089818 
L 98.833008 167.432909 
L 99.140106 167.432909 
L 99.74333 167.776 
L 101.564979 168.462182 
L 101.866092 166.289273 
L 102.173314 166.975455 
L 102.47514 168.805273 
L 102.777003 168.919636 
L 103.083905 169.262727 
L 103.385518 169.262727 
L 103.991146 169.377091 
L 104.296791 169.377091 
L 104.90345 169.720182 
L 105.203979 169.720182 
L 106.420402 170.063273 
L 107.023374 170.063273 
L 108.542079 170.520727 
L 108.843449 170.520727 
L 110.058268 170.863818 
L 110.363649 170.863818 
L 111.876422 171.321273 
L 112.183006 154.166727 
L 112.488318 171.435636 
L 113.093962 171.321273 
L 113.394049 171.321273 
L 114.611648 171.664364 
L 114.913731 171.664364 
L 115.821222 171.893091 
L 116.127423 171.893091 
L 117.037023 172.121818 
L 117.338561 172.121818 
L 117.94672 172.236182 
L 118.247512 172.236182 
L 118.554364 172.464909 
L 118.855884 172.464909 
L 119.157343 166.746727 
L 119.464483 172.579273 
L 120.068014 172.464909 
L 120.980389 172.693636 
L 121.281284 172.693636 
L 121.887919 172.808 
L 122.498811 172.808 
L 123.405646 173.036727 
L 124.014721 173.036727 
L 125.227785 173.379818 
L 125.830984 173.379818 
L 126.439944 173.494182 
L 127.048806 173.494182 
L 127.651726 173.608545 
L 127.958538 173.608545 
L 128.561873 173.722909 
L 128.868603 173.722909 
L 129.475253 173.837273 
L 130.081285 173.837273 
L 130.687921 173.951636 
L 130.988704 173.951636 
L 131.594844 174.066 
L 132.20597 174.066 
L 132.812993 174.180364 
L 133.415909 174.180364 
L 134.025552 174.294727 
L 134.327414 174.294727 
L 134.629002 169.834545 
L 134.935813 174.409091 
L 135.235744 174.523455 
L 135.841671 174.409091 
L 136.148092 174.409091 
L 137.360687 174.752182 
L 137.969373 174.752182 
L 138.572732 174.866545 
L 139.483208 174.866545 
L 140.091692 174.980909 
L 141.003042 174.980909 
L 141.606892 175.095273 
L 142.215271 175.095273 
L 142.823804 175.209636 
L 144.036213 175.209636 
L 144.337748 170.635091 
L 144.643725 175.095273 
L 144.943778 175.324 
L 145.551957 175.209636 
L 146.46025 175.438364 
L 147.977636 175.438364 
L 148.584454 175.552727 
L 149.800447 175.552727 
L 150.403089 175.667091 
L 151.01451 175.667091 
L 151.620606 175.552727 
L 151.92126 169.948909 
L 152.227191 175.552727 
L 153.136577 175.552727 
L 153.438646 175.781455 
L 154.047768 175.781455 
L 154.651456 175.895818 
L 156.17082 175.895818 
L 156.774259 176.010182 
L 158.293581 176.010182 
L 158.89698 176.124545 
L 159.505366 176.124545 
L 159.807366 168.119091 
L 160.11427 176.010182 
L 160.722294 176.010182 
L 161.022715 175.895818 
L 161.629928 176.010182 
L 163.45095 176.010182 
L 163.752661 176.238909 
L 165.272115 176.238909 
L 165.875638 176.353273 
L 166.182731 176.353273 
L 166.786403 176.467636 
L 167.088245 164.002 
L 167.395214 175.667091 
L 167.696998 176.467636 
L 169.517889 176.467636 
L 170.122146 176.582 
L 171.339686 176.582 
L 171.942716 176.696364 
L 172.249793 176.696364 
L 172.852627 176.810727 
L 174.373009 176.810727 
L 174.673986 155.081636 
L 174.980127 176.467636 
L 175.88884 176.467636 
L 176.190627 176.810727 
L 177.405457 176.810727 
L 178.012753 176.925091 
L 178.62036 176.810727 
L 178.921447 176.810727 
L 179.222481 177.039455 
L 179.529488 177.039455 
L 180.133139 176.925091 
L 180.440379 176.925091 
L 181.043696 177.039455 
L 182.256848 177.039455 
L 182.563805 174.637818 
L 182.865751 176.810727 
L 183.776161 177.153818 
L 184.379351 177.039455 
L 186.809177 177.039455 
L 187.110606 177.268182 
L 187.417674 177.153818 
L 188.021197 177.268182 
L 188.931157 177.268182 
L 189.237959 177.153818 
L 189.841211 177.268182 
L 190.449789 177.268182 
L 191.053008 177.382545 
L 191.359529 172.693636 
L 191.659989 177.268182 
L 192.267193 177.153818 
L 194.393357 177.153818 
L 194.694814 177.268182 
L 195.000492 177.153818 
L 195.909869 177.382545 
L 199.850676 177.382545 
L 200.457316 177.496909 
L 201.977678 177.496909 
L 202.2785 171.893091 
L 202.585408 177.153818 
L 202.886661 177.382545 
L 203.188296 177.382545 
L 203.797374 177.496909 
L 205.617526 177.496909 
L 206.221107 177.611273 
L 210.773215 177.611273 
L 211.380234 177.725636 
L 211.68618 177.725636 
L 212.288998 177.611273 
L 212.595945 177.954364 
L 212.897334 177.954364 
L 213.506437 177.84 
L 214.720136 177.84 
L 215.3255 177.725636 
L 215.626496 177.725636 
L 216.234888 177.84 
L 216.535898 177.84 
L 217.144292 177.725636 
L 217.445831 177.725636 
L 218.054684 177.84 
L 219.875337 177.84 
L 220.48391 177.954364 
L 221.086492 177.954364 
L 221.39349 177.84 
L 221.694928 173.379818 
L 222.000213 177.725636 
L 222.607028 177.725636 
L 223.213723 177.84 
L 224.423058 177.84 
L 225.031652 178.068727 
L 225.333095 177.954364 
L 225.639993 178.068727 
L 225.942039 177.954364 
L 226.550799 178.068727 
L 228.671642 178.068727 
L 229.279931 178.183091 
L 230.79819 178.183091 
L 231.401583 178.297455 
L 232.613709 178.297455 
L 232.921484 173.722909 
L 233.223587 178.068727 
L 234.131461 178.411818 
L 235.042325 178.183091 
L 235.348533 178.297455 
L 235.954295 178.183091 
L 238.075169 178.183091 
L 238.68222 178.297455 
L 239.288746 178.183091 
L 240.199794 178.411818 
L 241.410817 178.411818 
L 241.717845 173.837273 
L 242.020233 178.526182 
L 242.629302 178.297455 
L 242.930913 178.526182 
L 244.14301 178.526182 
L 244.751418 178.640545 
L 245.354389 178.526182 
L 246.873084 178.526182 
L 247.17492 178.411818 
L 247.784248 178.526182 
L 248.085835 178.526182 
L 248.694284 178.640545 
L 255.368177 178.640545 
L 255.669733 173.951636 
L 255.976637 178.526182 
L 256.278152 178.526182 
L 256.579994 178.640545 
L 257.187977 178.526182 
L 257.794441 178.526182 
L 258.703842 178.754909 
L 259.311777 178.640545 
L 259.918809 178.754909 
L 261.129369 178.754909 
L 261.737844 178.640545 
L 262.346811 178.640545 
L 262.950495 178.754909 
L 265.680525 178.754909 
L 265.987443 178.183091 
L 266.288815 178.411818 
L 266.894519 178.297455 
L 267.503409 178.526182 
L 268.110742 178.411818 
L 268.713968 178.526182 
L 269.322458 178.526182 
L 270.23332 178.754909 
L 272.357259 178.754909 
L 272.65946 178.869273 
L 273.26333 178.754909 
L 273.570592 178.869273 
L 273.872258 174.180364 
L 274.174002 178.754909 
L 274.782706 178.869273 
L 275.083611 178.869273 
L 275.997204 178.640545 
L 276.604608 178.754909 
L 279.940296 178.754909 
L 280.547144 178.640545 
L 280.847808 178.640545 
L 281.455574 178.754909 
L 284.792695 178.754909 
L 285.098751 178.411818 
L 285.399709 178.754909 
L 285.705401 178.869273 
L 286.311291 178.754909 
L 287.526166 178.754909 
L 287.826998 178.869273 
L 288.435296 178.754909 
L 289.344073 178.983636 
L 291.772192 178.983636 
L 292.375195 178.869273 
L 294.200362 178.869273 
L 294.803275 178.983636 
L 296.322765 178.983636 
L 296.623882 175.895818 
L 296.92585 177.954364 
L 297.232164 288.429636 
L 299.661458 287.400364 
L 300.263774 287.057273 
L 301.478579 286.599818 
L 302.085438 286.256727 
L 305.424834 284.884364 
L 306.026806 284.541273 
L 309.367619 283.168909 
L 317.554357 279.966727 
L 317.860434 279.738 
L 318.160807 279.738 
L 318.767694 279.394909 
L 320.288509 278.823091 
L 320.588719 168.462182 
L 320.895484 168.690909 
L 321.196683 107.277636 
L 321.502697 169.262727 
L 321.802794 165.717455 
L 322.108533 156.454 
L 322.409338 141.586727 
L 322.715465 164.459455 
L 323.016205 161.028545 
L 323.321904 164.345091 
L 323.622042 139.185091 
L 323.927368 164.345091 
L 325.744726 164.345091 
L 326.050544 152.908727 
L 326.356518 164.345091 
L 326.657189 165.831818 
L 326.962658 150.621455 
L 327.263214 168.347818 
L 327.56948 163.087091 
L 327.869771 107.048909 
L 328.173757 167.318545 
L 328.477945 164.116364 
L 328.782146 167.432909 
L 329.385495 169.148364 
L 329.689856 169.262727 
L 329.995079 168.347818 
L 330.296319 168.119091 
L 330.60148 168.119091 
L 331.206584 168.004727 
L 331.511978 166.746727 
L 331.812198 164.002 
L 332.118474 278.251273 
L 332.419167 168.004727 
L 332.725843 163.887636 
L 333.63469 163.887636 
L 333.935777 165.145636 
L 334.242078 160.456727 
L 334.84908 167.890364 
L 335.149925 164.002 
L 335.456398 168.233455 
L 335.75731 164.002 
L 336.063535 164.002 
L 336.364898 166.632364 
L 336.666 166.518 
L 336.972688 168.347818 
L 337.273318 167.776 
L 337.579742 168.004727 
L 338.187451 166.975455 
L 338.488424 166.975455 
L 338.789397 168.233455 
L 339.096203 168.462182 
L 339.396809 168.462182 
L 339.70251 164.116364 
L 340.003183 152.68 
L 340.308325 157.254545 
L 340.613446 165.603091 
L 340.914397 166.518 
L 341.220817 152.68 
L 341.521256 164.116364 
L 341.827075 164.116364 
L 342.128005 167.890364 
L 342.429188 126.376364 
L 342.734731 162.858364 
L 343.040994 160.571091 
L 343.341495 49.638364 
L 343.647065 166.975455 
L 343.947563 165.26 
L 344.253823 167.776 
L 344.5549 159.427455 
L 344.860073 49.638364 
L 345.164406 167.318545 
L 345.465588 160.571091 
L 345.766523 160.456727 
L 346.072677 163.887636 
L 346.377658 162.744 
L 346.677184 106.705818 
L 346.98148 163.887636 
L 347.287223 167.318545 
L 347.586702 163.887636 
L 347.891311 152.451273 
L 348.196032 163.773273 
L 348.500808 167.318545 
L 348.80147 147.762364 
L 349.107246 163.773273 
L 349.408461 163.773273 
L 349.715085 160.342364 
L 350.014871 167.089818 
L 350.321121 165.031273 
L 350.622108 106.477091 
L 351.226887 163.658909 
L 351.532371 146.504364 
L 351.833373 159.084364 
L 352.445178 167.432909 
L 352.746437 159.084364 
L 353.051779 117.799091 
L 353.352674 167.089818 
L 353.654423 157.826364 
L 353.959413 167.204182 
L 354.264233 163.544545 
L 354.565352 167.089818 
L 354.872107 117.799091 
L 355.172185 163.544545 
L 355.478284 165.831818 
L 355.779295 49.180909 
L 356.085202 163.544545 
L 356.385834 163.430182 
L 356.691523 166.746727 
L 356.992196 49.066545 
L 357.297061 165.488727 
L 357.598175 166.746727 
L 357.904831 147.419273 
L 358.205013 145.132 
L 358.510559 164.688182 
L 358.811655 155.424727 
L 359.117577 134.839273 
L 359.418121 163.315818 
L 359.724224 163.315818 
L 360.025301 167.204182 
L 360.330793 48.952182 
L 360.631563 166.861091 
L 360.937091 158.741273 
L 361.237597 156.454 
L 361.543844 158.741273 
L 361.844821 165.145636 
L 362.151575 167.318545 
L 362.758718 147.304909 
L 363.057957 163.315818 
L 363.363665 48.952182 
L 363.669281 165.031273 
L 363.967786 157.483273 
L 364.276209 169.377091 
L 364.575032 173.151091 
L 364.879999 172.922364 
L 365.18538 171.092545 
L 365.484658 172.464909 
L 365.788243 173.265455 
L 366.092304 177.153818 
L 366.397834 277.222 
L 367.611682 276.878909 
L 368.218816 48.037273 
L 368.519676 162.400909 
L 368.826082 166.403636 
L 369.126019 166.746727 
L 369.431065 166.632364 
L 369.736402 276.650182 
L 370.036263 162.286545 
L 370.343081 166.174909 
L 370.644556 166.403636 
L 371.249842 166.403636 
L 371.856427 166.289273 
L 372.158477 166.518 
L 374.590196 166.518 
L 375.195435 166.632364 
L 375.500368 276.764545 
L 375.801651 48.037273 
L 376.405874 47.922909 
L 376.427273 290.373818 
L 376.427273 290.373818 
" clip-path="url(#pd20dead3db)" style="fill: none; stroke: #ff7f0e; stroke-width: 1.5; stroke-linecap: square"/>
   </g>
   <g id="patch_3">
    <path d="M 50.87 303.64 
L 50.87 26.88 
" style="fill: none; stroke: #000000; stroke-width: 0.8; stroke-linejoin: miter; stroke-linecap: square"/>
   </g>
   <g id="patch_4">
    <path d="M 391.93 303.64 
L 391.93 26.88 
" style="fill: none; stroke: #000000; stroke-width: 0.8; stroke-linejoin: miter; stroke-linecap: square"/>
   </g>
   <g id="patch_5">
    <path d="M 50.87 303.64 
L 391.93 303.64 
" style="fill: none; stroke: #000000; stroke-width: 0.8; stroke-linejoin: miter; stroke-linecap: square"/>
   </g>
   <g id="patch_6">
    <path d="M 50.87 26.88 
L 391.93 26.88 
" style="fill: none; stroke: #000000; stroke-width: 0.8; stroke-linejoin: miter; stroke-linecap: square"/>
   </g>
   <g id="legend_1">
    <g id="patch_7">
     <path d="M 57.87 64.23625 
L 142.335625 64.23625 
Q 144.335625 64.23625 144.335625 62.23625 
L 144.335625 33.88 
Q 144.335625 31.88 142.335625 31.88 
L 57.87 31.88 
Q 55.87 31.88 55.87 33.88 
L 55.87 62.23625 
Q 55.87 64.23625 57.87 64.23625 
z
" style="fill: #ffffff; opacity: 0.8; stroke: #cccccc; stroke-linejoin: miter"/>
    </g>
    <g id="line2d_15">
     <path d="M 59.87 39.978437 
L 69.87 39.978437 
L 79.87 39.978437 
" style="fill: none; stroke: #1f77b4; stroke-width: 1.5; stroke-linecap: square"/>
    </g>
    <g id="text_15">
     <!-- pmem (%) -->
     <g transform="translate(87.87 43.478437) scale(0.1 -0.1)">
      <defs>
       <path id="DejaVuSans-28" d="M 1984 4856 
Q 1566 4138 1362 3434 
Q 1159 2731 1159 2009 
Q 1159 1288 1364 580 
Q 1569 -128 1984 -844 
L 1484 -844 
Q 1016 -109 783 600 
Q 550 1309 550 2009 
Q 550 2706 781 3412 
Q 1013 4119 1484 4856 
L 1984 4856 
z
" transform="scale(0.015625)"/>
       <path id="DejaVuSans-25" d="M 4653 2053 
Q 4381 2053 4226 1822 
Q 4072 1591 4072 1178 
Q 4072 772 4226 539 
Q 4381 306 4653 306 
Q 4919 306 5073 539 
Q 5228 772 5228 1178 
Q 5228 1588 5073 1820 
Q 4919 2053 4653 2053 
z
M 4653 2450 
Q 5147 2450 5437 2106 
Q 5728 1763 5728 1178 
Q 5728 594 5436 251 
Q 5144 -91 4653 -91 
Q 4153 -91 3862 251 
Q 3572 594 3572 1178 
Q 3572 1766 3864 2108 
Q 4156 2450 4653 2450 
z
M 1428 4353 
Q 1159 4353 1004 4120 
Q 850 3888 850 3481 
Q 850 3069 1003 2837 
Q 1156 2606 1428 2606 
Q 1700 2606 1854 2837 
Q 2009 3069 2009 3481 
Q 2009 3884 1853 4118 
Q 1697 4353 1428 4353 
z
M 4250 4750 
L 4750 4750 
L 1831 -91 
L 1331 -91 
L 4250 4750 
z
M 1428 4750 
Q 1922 4750 2215 4408 
Q 2509 4066 2509 3481 
Q 2509 2891 2217 2550 
Q 1925 2209 1428 2209 
Q 931 2209 642 2551 
Q 353 2894 353 3481 
Q 353 4063 643 4406 
Q 934 4750 1428 4750 
z
" transform="scale(0.015625)"/>
       <path id="DejaVuSans-29" d="M 513 4856 
L 1013 4856 
Q 1481 4119 1714 3412 
Q 1947 2706 1947 2009 
Q 1947 1309 1714 600 
Q 1481 -109 1013 -844 
L 513 -844 
Q 928 -128 1133 580 
Q 1338 1288 1338 2009 
Q 1338 2731 1133 3434 
Q 928 4138 513 4856 
z
" transform="scale(0.015625)"/>
      </defs>
      <use xlink:href="#DejaVuSans-70"/>
      <use xlink:href="#DejaVuSans-6d" transform="translate(63.476562 0)"/>
      <use xlink:href="#DejaVuSans-65" transform="translate(160.888672 0)"/>
      <use xlink:href="#DejaVuSans-6d" transform="translate(222.412109 0)"/>
      <use xlink:href="#DejaVuSans-20" transform="translate(319.824219 0)"/>
      <use xlink:href="#DejaVuSans-28" transform="translate(351.611328 0)"/>
      <use xlink:href="#DejaVuSans-25" transform="translate(390.625 0)"/>
      <use xlink:href="#DejaVuSans-29" transform="translate(485.644531 0)"/>
     </g>
    </g>
    <g id="line2d_16">
     <path d="M 59.87 54.656563 
L 69.87 54.656563 
L 79.87 54.656563 
" style="fill: none; stroke: #ff7f0e; stroke-width: 1.5; stroke-linecap: square"/>
    </g>
    <g id="text_16">
     <!-- pcpu (%) -->
     <g transform="translate(87.87 58.156563) scale(0.1 -0.1)">
      <defs>
       <path id="DejaVuSans-75" d="M 544 1381 
L 544 3500 
L 1119 3500 
L 1119 1403 
Q 1119 906 1312 657 
Q 1506 409 1894 409 
Q 2359 409 2629 706 
Q 2900 1003 2900 1516 
L 2900 3500 
L 3475 3500 
L 3475 0 
L 2900 0 
L 2900 538 
Q 2691 219 2414 64 
Q 2138 -91 1772 -91 
Q 1169 -91 856 284 
Q 544 659 544 1381 
z
M 1991 3584 
L 1991 3584 
z
" transform="scale(0.015625)"/>
      </defs>
      <use xlink:href="#DejaVuSans-70"/>
      <use xlink:href="#DejaVuSans-63" transform="translate(63.476562 0)"/>
      <use xlink:href="#DejaVuSans-70" transform="translate(118.457031 0)"/>
      <use xlink:href="#DejaVuSans-75" transform="translate(181.933594 0)"/>
      <use xlink:href="#DejaVuSans-20" transform="translate(245.3125 0)"/>
      <use xlink:href="#DejaVuSans-28" transform="translate(277.099609 0)"/>
      <use xlink:href="#DejaVuSans-25" transform="translate(316.113281 0)"/>
      <use xlink:href="#DejaVuSans-29" transform="translate(411.132812 0)"/>
     </g>
    </g>
   </g>
  </g>
  <g id="axes_2">
   <g id="matplotlib.axis_3">
    <g id="ytick_6">
     <g id="line2d_17">
      <defs>
       <path id="m9332872cf7" d="M 0 0 
L 3.5 0 
" style="stroke: #000000; stroke-width: 0.8"/>
      </defs>
      <g>
       <use xlink:href="#m9332872cf7" x="391.93" y="291.177177" style="stroke: #000000; stroke-width: 0.8"/>
      </g>
     </g>
     <g id="text_17">
      <!-- 0.0GB -->
      <g transform="translate(398.93 294.976396) scale(0.1 -0.1)">
       <defs>
        <path id="DejaVuSans-47" d="M 3809 666 
L 3809 1919 
L 2778 1919 
L 2778 2438 
L 4434 2438 
L 4434 434 
Q 4069 175 3628 42 
Q 3188 -91 2688 -91 
Q 1594 -91 976 548 
Q 359 1188 359 2328 
Q 359 3472 976 4111 
Q 1594 4750 2688 4750 
Q 3144 4750 3555 4637 
Q 3966 4525 4313 4306 
L 4313 3634 
Q 3963 3931 3569 4081 
Q 3175 4231 2741 4231 
Q 1884 4231 1454 3753 
Q 1025 3275 1025 2328 
Q 1025 1384 1454 906 
Q 1884 428 2741 428 
Q 3075 428 3337 486 
Q 3600 544 3809 666 
z
" transform="scale(0.015625)"/>
        <path id="DejaVuSans-42" d="M 1259 2228 
L 1259 519 
L 2272 519 
Q 2781 519 3026 730 
Q 3272 941 3272 1375 
Q 3272 1813 3026 2020 
Q 2781 2228 2272 2228 
L 1259 2228 
z
M 1259 4147 
L 1259 2741 
L 2194 2741 
Q 2656 2741 2882 2914 
Q 3109 3088 3109 3444 
Q 3109 3797 2882 3972 
Q 2656 4147 2194 4147 
L 1259 4147 
z
M 628 4666 
L 2241 4666 
Q 2963 4666 3353 4366 
Q 3744 4066 3744 3513 
Q 3744 3084 3544 2831 
Q 3344 2578 2956 2516 
Q 3422 2416 3680 2098 
Q 3938 1781 3938 1306 
Q 3938 681 3513 340 
Q 3088 0 2303 0 
L 628 0 
L 628 4666 
z
" transform="scale(0.015625)"/>
       </defs>
       <use xlink:href="#DejaVuSans-30"/>
       <use xlink:href="#DejaVuSans-2e" transform="translate(63.623047 0)"/>
       <use xlink:href="#DejaVuSans-30" transform="translate(95.410156 0)"/>
       <use xlink:href="#DejaVuSans-47" transform="translate(159.033203 0)"/>
       <use xlink:href="#DejaVuSans-42" transform="translate(236.523438 0)"/>
      </g>
     </g>
    </g>
    <g id="ytick_7">
     <g id="line2d_18">
      <g>
       <use xlink:href="#m9332872cf7" x="391.93" y="253.849882" style="stroke: #000000; stroke-width: 0.8"/>
      </g>
     </g>
     <g id="text_18">
      <!-- 2.3GB -->
      <g transform="translate(398.93 257.649101) scale(0.1 -0.1)">
       <use xlink:href="#DejaVuSans-32"/>
       <use xlink:href="#DejaVuSans-2e" transform="translate(63.623047 0)"/>
       <use xlink:href="#DejaVuSans-33" transform="translate(95.410156 0)"/>
       <use xlink:href="#DejaVuSans-47" transform="translate(159.033203 0)"/>
       <use xlink:href="#DejaVuSans-42" transform="translate(236.523438 0)"/>
      </g>
     </g>
    </g>
    <g id="ytick_8">
     <g id="line2d_19">
      <g>
       <use xlink:href="#m9332872cf7" x="391.93" y="216.522587" style="stroke: #000000; stroke-width: 0.8"/>
      </g>
     </g>
     <g id="text_19">
      <!-- 4.7GB -->
      <g transform="translate(398.93 220.321806) scale(0.1 -0.1)">
       <defs>
        <path id="DejaVuSans-34" d="M 2419 4116 
L 825 1625 
L 2419 1625 
L 2419 4116 
z
M 2253 4666 
L 3047 4666 
L 3047 1625 
L 3713 1625 
L 3713 1100 
L 3047 1100 
L 3047 0 
L 2419 0 
L 2419 1100 
L 313 1100 
L 313 1709 
L 2253 4666 
z
" transform="scale(0.015625)"/>
       </defs>
       <use xlink:href="#DejaVuSans-34"/>
       <use xlink:href="#DejaVuSans-2e" transform="translate(63.623047 0)"/>
       <use xlink:href="#DejaVuSans-37" transform="translate(95.410156 0)"/>
       <use xlink:href="#DejaVuSans-47" transform="translate(159.033203 0)"/>
       <use xlink:href="#DejaVuSans-42" transform="translate(236.523438 0)"/>
      </g>
     </g>
    </g>
    <g id="ytick_9">
     <g id="line2d_20">
      <g>
       <use xlink:href="#m9332872cf7" x="391.93" y="179.195293" style="stroke: #000000; stroke-width: 0.8"/>
      </g>
     </g>
     <g id="text_20">
      <!-- 7.0GB -->
      <g transform="translate(398.93 182.994511) scale(0.1 -0.1)">
       <use xlink:href="#DejaVuSans-37"/>
       <use xlink:href="#DejaVuSans-2e" transform="translate(63.623047 0)"/>
       <use xlink:href="#DejaVuSans-30" transform="translate(95.410156 0)"/>
       <use xlink:href="#DejaVuSans-47" transform="translate(159.033203 0)"/>
       <use xlink:href="#DejaVuSans-42" transform="translate(236.523438 0)"/>
      </g>
     </g>
    </g>
    <g id="ytick_10">
     <g id="line2d_21">
      <g>
       <use xlink:href="#m9332872cf7" x="391.93" y="141.867998" style="stroke: #000000; stroke-width: 0.8"/>
      </g>
     </g>
     <g id="text_21">
      <!-- 9.3GB -->
      <g transform="translate(398.93 145.667217) scale(0.1 -0.1)">
       <use xlink:href="#DejaVuSans-39"/>
       <use xlink:href="#DejaVuSans-2e" transform="translate(63.623047 0)"/>
       <use xlink:href="#DejaVuSans-33" transform="translate(95.410156 0)"/>
       <use xlink:href="#DejaVuSans-47" transform="translate(159.033203 0)"/>
       <use xlink:href="#DejaVuSans-42" transform="translate(236.523438 0)"/>
      </g>
     </g>
    </g>
    <g id="ytick_11">
     <g id="line2d_22">
      <g>
       <use xlink:href="#m9332872cf7" x="391.93" y="104.540703" style="stroke: #000000; stroke-width: 0.8"/>
      </g>
     </g>
     <g id="text_22">
      <!-- 11.6GB -->
      <g transform="translate(398.93 108.339922) scale(0.1 -0.1)">
       <use xlink:href="#DejaVuSans-31"/>
       <use xlink:href="#DejaVuSans-31" transform="translate(63.623047 0)"/>
       <use xlink:href="#DejaVuSans-2e" transform="translate(127.246094 0)"/>
       <use xlink:href="#DejaVuSans-36" transform="translate(159.033203 0)"/>
       <use xlink:href="#DejaVuSans-47" transform="translate(222.65625 0)"/>
       <use xlink:href="#DejaVuSans-42" transform="translate(300.146484 0)"/>
      </g>
     </g>
    </g>
    <g id="ytick_12">
     <g id="line2d_23">
      <g>
       <use xlink:href="#m9332872cf7" x="391.93" y="67.213409" style="stroke: #000000; stroke-width: 0.8"/>
      </g>
     </g>
     <g id="text_23">
      <!-- 14.0GB -->
      <g transform="translate(398.93 71.012627) scale(0.1 -0.1)">
       <use xlink:href="#DejaVuSans-31"/>
       <use xlink:href="#DejaVuSans-34" transform="translate(63.623047 0)"/>
       <use xlink:href="#DejaVuSans-2e" transform="translate(127.246094 0)"/>
       <use xlink:href="#DejaVuSans-30" transform="translate(159.033203 0)"/>
       <use xlink:href="#DejaVuSans-47" transform="translate(222.65625 0)"/>
       <use xlink:href="#DejaVuSans-42" transform="translate(300.146484 0)"/>
      </g>
     </g>
    </g>
    <g id="ytick_13">
     <g id="line2d_24">
      <g>
       <use xlink:href="#m9332872cf7" x="391.93" y="29.886114" style="stroke: #000000; stroke-width: 0.8"/>
      </g>
     </g>
     <g id="text_24">
      <!-- 16.3GB -->
      <g transform="translate(398.93 33.685333) scale(0.1 -0.1)">
       <use xlink:href="#DejaVuSans-31"/>
       <use xlink:href="#DejaVuSans-36" transform="translate(63.623047 0)"/>
       <use xlink:href="#DejaVuSans-2e" transform="translate(127.246094 0)"/>
       <use xlink:href="#DejaVuSans-33" transform="translate(159.033203 0)"/>
       <use xlink:href="#DejaVuSans-47" transform="translate(222.65625 0)"/>
       <use xlink:href="#DejaVuSans-42" transform="translate(300.146484 0)"/>
      </g>
     </g>
    </g>
    <g id="text_25">
     <!-- Memory -->
     <g transform="translate(447.403438 185.595156) rotate(-90) scale(0.1 -0.1)">
      <defs>
       <path id="DejaVuSans-4d" d="M 628 4666 
L 1569 4666 
L 2759 1491 
L 3956 4666 
L 4897 4666 
L 4897 0 
L 4281 0 
L 4281 4097 
L 3078 897 
L 2444 897 
L 1241 4097 
L 1241 0 
L 628 0 
L 628 4666 
z
" transform="scale(0.015625)"/>
       <path id="DejaVuSans-6f" d="M 1959 3097 
Q 1497 3097 1228 2736 
Q 959 2375 959 1747 
Q 959 1119 1226 758 
Q 1494 397 1959 397 
Q 2419 397 2687 759 
Q 2956 1122 2956 1747 
Q 2956 2369 2687 2733 
Q 2419 3097 1959 3097 
z
M 1959 3584 
Q 2709 3584 3137 3096 
Q 3566 2609 3566 1747 
Q 3566 888 3137 398 
Q 2709 -91 1959 -91 
Q 1206 -91 779 398 
Q 353 888 353 1747 
Q 353 2609 779 3096 
Q 1206 3584 1959 3584 
z
" transform="scale(0.015625)"/>
       <path id="DejaVuSans-79" d="M 2059 -325 
Q 1816 -950 1584 -1140 
Q 1353 -1331 966 -1331 
L 506 -1331 
L 506 -850 
L 844 -850 
Q 1081 -850 1212 -737 
Q 1344 -625 1503 -206 
L 1606 56 
L 191 3500 
L 800 3500 
L 1894 763 
L 2988 3500 
L 3597 3500 
L 2059 -325 
z
" transform="scale(0.015625)"/>
      </defs>
      <use xlink:href="#DejaVuSans-4d"/>
      <use xlink:href="#DejaVuSans-65" transform="translate(86.279297 0)"/>
      <use xlink:href="#DejaVuSans-6d" transform="translate(147.802734 0)"/>
      <use xlink:href="#DejaVuSans-6f" transform="translate(245.214844 0)"/>
      <use xlink:href="#DejaVuSans-72" transform="translate(306.396484 0)"/>
      <use xlink:href="#DejaVuSans-79" transform="translate(347.509766 0)"/>
     </g>
    </g>
   </g>
   <g id="line2d_25">
    <path d="M 66.372727 291.06 
L 66.676536 274.458004 
L 66.97999 274.174174 
L 67.285945 237.404238 
L 67.589933 271.203594 
L 68.499407 271.203594 
L 68.803996 260.976057 
L 69.103307 260.925174 
L 69.407967 255.617844 
L 69.712243 255.617844 
L 70.016594 266.17624 
L 70.320954 264.60744 
L 70.62052 261.858431 
L 70.925794 261.529406 
L 71.23092 258.313524 
L 71.530312 258.293954 
L 71.834506 261.588545 
L 72.138904 210.466336 
L 72.443757 132.742588 
L 72.748228 264.001802 
L 74.263308 263.993974 
L 76.080459 263.982231 
L 77.904958 263.99006 
L 80.328252 263.989876 
L 81.241612 264.010425 
L 81.542707 260.400447 
L 85.788116 260.34565 
L 90.643478 260.318252 
L 92.765787 260.349809 
L 93.072479 260.51426 
L 93.373596 260.51426 
L 93.675199 264.480233 
L 95.497162 264.471732 
L 100.352334 264.460663 
L 101.564979 264.468308 
L 101.866092 264.661013 
L 102.173314 262.383158 
L 103.385518 262.37533 
L 107.631882 262.383158 
L 109.150517 262.363588 
L 110.971135 262.39172 
L 111.574862 262.39172 
L 112.183006 262.78759 
L 112.488318 266.476644 
L 113.701624 266.464901 
L 116.127423 266.457073 
L 118.855884 266.489425 
L 119.157343 255.057829 
L 121.587484 255.034345 
L 122.799188 255.042173 
L 127.958538 255.013796 
L 133.72311 255.045842 
L 134.025552 255.210294 
L 134.327414 255.210294 
L 134.629002 262.916509 
L 136.449992 262.924337 
L 139.789964 262.936079 
L 141.913919 262.936079 
L 143.729019 262.935834 
L 144.337748 263.338554 
L 144.643725 265.633533 
L 146.158687 265.634144 
L 166.786403 265.622341 
L 167.088245 265.771136 
L 167.395214 265.605584 
L 170.429217 265.589867 
L 174.673986 265.614391 
L 174.980127 265.383828 
L 176.496705 265.361567 
L 178.012753 265.366704 
L 182.256848 265.386275 
L 182.563805 264.009569 
L 184.077612 263.993912 
L 191.053008 264.004431 
L 191.359529 261.302819 
L 195.608044 261.283249 
L 197.12509 261.283249 
L 201.977678 261.307895 
L 202.2785 261.455284 
L 202.585408 262.888927 
L 207.136402 262.904583 
L 209.259106 262.888927 
L 214.109167 262.911311 
L 217.753021 262.907396 
L 219.268986 262.911311 
L 221.39349 262.930881 
L 221.694928 260.948292 
L 223.819817 260.924808 
L 226.24377 260.948292 
L 232.31173 260.948598 
L 232.613709 261.101368 
L 232.921484 261.101368 
L 233.223587 263.981803 
L 234.736897 263.982598 
L 241.109277 263.973792 
L 241.410817 263.994341 
L 241.717845 257.730025 
L 243.534597 257.71657 
L 245.053361 257.736141 
L 246.571476 257.712656 
L 247.784248 257.708742 
L 255.368177 257.889094 
L 255.669733 258.132438 
L 255.976637 261.678752 
L 258.095815 261.655267 
L 260.827167 261.655267 
L 265.987443 261.83195 
L 266.288815 265.424192 
L 273.570592 265.442233 
L 273.872258 265.621974 
L 274.174002 261.028285 
L 284.792695 261.022108 
L 285.098751 261.182218 
L 285.399709 261.017155 
L 287.826998 261.040639 
L 289.344073 261.024983 
L 291.465321 261.024983 
L 294.803275 261.017155 
L 296.322765 261.194571 
L 296.623882 261.497971 
L 296.92585 263.596759 
L 297.536324 253.545477 
L 297.836841 215.463722 
L 298.143712 255.995 
L 298.74585 246.632591 
L 299.052638 197.843156 
L 299.354013 261.056173 
L 299.661458 255.795689 
L 299.962996 218.714158 
L 300.263774 259.130032 
L 300.873406 250.640456 
L 301.177859 208.107509 
L 301.478579 260.467598 
L 301.783187 228.864453 
L 302.085438 252.677414 
L 302.996292 237.209086 
L 303.2993 235.925278 
L 303.604627 170.927515 
L 303.906605 256.861473 
L 304.207798 251.788863 
L 304.513356 211.5945 
L 304.815255 261.453694 
L 305.117774 257.163894 
L 305.424834 224.691096 
L 305.726274 260.075948 
L 306.026806 257.163894 
L 306.331495 225.098158 
L 306.632899 258.561638 
L 306.941302 225.206283 
L 307.242969 262.22519 
L 307.544158 257.15258 
L 307.847238 224.473622 
L 308.153566 260.363936 
L 308.457833 256.633846 
L 308.76209 223.276045 
L 309.062965 257.734245 
L 309.367619 253.882819 
L 309.667394 216.319064 
L 309.973728 255.875193 
L 310.274045 250.677334 
L 310.58 248.516778 
L 310.881213 202.57616 
L 311.187643 256.114072 
L 311.489187 251.663797 
L 311.792209 210.787716 
L 312.097994 257.946215 
L 312.397951 252.748356 
L 312.703878 210.844592 
L 313.007089 257.873316 
L 313.610906 247.685042 
L 313.914633 200.808355 
L 314.220956 259.966293 
L 314.521564 254.799747 
L 314.826299 216.205068 
L 315.129233 254.839927 
L 315.736415 244.381584 
L 316.042053 241.297312 
L 316.345156 184.499301 
L 316.645191 256.8164 
L 316.951222 251.587228 
L 317.253144 249.270111 
L 317.554357 205.5287 
L 317.860434 258.776667 
L 318.160807 223.618218 
L 318.467498 258.452962 
L 319.074035 248.057183 
L 319.375468 201.207527 
L 319.680659 257.554137 
L 320.288509 247.81598 
L 320.588719 201.264525 
L 320.895484 265.908862 
L 321.196683 225.553961 
L 321.502697 123.541511 
L 321.802794 197.480678 
L 322.108533 169.2882 
L 322.409338 174.805727 
L 322.715465 205.499956 
L 323.016205 119.818393 
L 323.321904 184.575503 
L 323.622042 200.151467 
L 323.927368 197.050377 
L 324.232707 195.838061 
L 324.533103 165.468209 
L 324.838896 178.755004 
L 325.139249 181.868203 
L 325.444293 163.999339 
L 325.744726 133.887448 
L 326.356518 212.870052 
L 326.657189 161.114929 
L 326.962658 167.401383 
L 327.263214 232.047065 
L 327.56948 271.329027 
L 327.869771 271.360339 
L 328.173757 274.995452 
L 328.477945 274.987991 
L 328.782146 274.84947 
L 329.086206 274.970806 
L 329.689856 274.951419 
L 329.995079 251.141394 
L 331.206584 251.13748 
L 331.511978 274.811431 
L 331.812198 256.255773 
L 332.118474 255.625611 
L 332.419167 152.207773 
L 332.725843 151.666472 
L 333.026777 152.218842 
L 333.333252 152.102766 
L 333.63469 151.070986 
L 333.935777 151.782487 
L 334.242078 151.040591 
L 334.543016 152.106008 
L 334.84908 151.678581 
L 335.149925 152.072922 
L 335.456398 151.84028 
L 335.75731 151.207183 
L 336.063535 151.390592 
L 336.364898 152.392712 
L 336.666 151.838445 
L 336.972688 122.737052 
L 337.273318 122.423622 
L 337.579742 132.846433 
L 337.881237 122.325465 
L 338.187451 123.203496 
L 338.488424 158.474168 
L 339.096203 123.45846 
L 339.396809 122.707207 
L 339.70251 264.673489 
L 340.003183 271.73884 
L 340.308325 237.905542 
L 340.613446 239.014258 
L 340.914397 271.691566 
L 341.220817 227.089614 
L 341.521256 228.577443 
L 341.827075 272.519265 
L 342.128005 271.668937 
L 342.429188 232.071589 
L 342.734731 240.922236 
L 343.040994 271.695418 
L 343.341495 233.907218 
L 343.647065 224.027604 
L 343.947563 272.157582 
L 344.253823 271.687896 
L 344.5549 247.220555 
L 344.860073 246.926879 
L 345.164406 271.684532 
L 345.465588 206.549289 
L 345.766523 201.775064 
L 346.072677 212.638817 
L 346.377658 271.67909 
L 346.677184 236.093521 
L 346.98148 236.289468 
L 347.287223 271.692789 
L 347.586702 271.692789 
L 347.891311 233.061171 
L 348.196032 272.498961 
L 348.500808 271.674809 
L 348.80147 246.927551 
L 349.107246 244.338651 
L 349.408461 271.672974 
L 349.715085 242.452079 
L 350.014871 231.64245 
L 350.321121 271.642212 
L 350.622108 271.642212 
L 350.926317 244.304893 
L 351.226887 271.651324 
L 351.532371 271.651324 
L 351.833373 246.21764 
L 352.138871 243.587582 
L 352.445178 271.668326 
L 352.746437 238.598513 
L 353.051779 239.472202 
L 353.352674 271.660987 
L 353.654423 260.66856 
L 353.959413 215.969246 
L 354.264233 231.328592 
L 354.565352 271.648144 
L 354.872107 234.429193 
L 355.172185 236.182382 
L 355.478284 271.530356 
L 355.779295 271.530356 
L 356.085202 234.985783 
L 356.385834 236.098902 
L 356.691523 271.519653 
L 356.992196 233.80851 
L 357.297061 230.159392 
L 357.598175 271.524301 
L 357.904831 271.524362 
L 358.205013 224.718923 
L 358.510559 239.267449 
L 358.811655 271.531151 
L 359.117577 214.195814 
L 359.724224 220.504652 
L 360.025301 271.524056 
L 360.330793 218.191877 
L 360.631563 232.34282 
L 360.937091 271.519775 
L 361.237597 271.519775 
L 361.543844 235.404403 
L 361.844821 272.333714 
L 362.151575 271.52742 
L 362.452905 222.852899 
L 362.758718 230.379374 
L 363.057957 271.506994 
L 363.363665 271.509256 
L 363.669281 213.812054 
L 363.967786 191.500498 
L 364.276209 202.544787 
L 364.575032 166.847056 
L 364.879999 229.200327 
L 365.18538 201.957251 
L 365.484658 203.800218 
L 365.788243 170.192713 
L 366.092304 199.223409 
L 366.397834 167.644788 
L 366.698477 124.147822 
L 367.004062 157.297262 
L 367.305248 161.473676 
L 367.611682 125.553333 
L 367.912417 157.946994 
L 368.218816 228.906468 
L 368.519676 259.499665 
L 368.826082 238.083142 
L 369.126019 240.209328 
L 369.431065 239.876022 
L 369.736402 243.396772 
L 370.036263 236.356863 
L 370.343081 264.407273 
L 373.376733 264.407273 
L 373.678069 264.664927 
L 374.284951 264.664927 
L 374.590196 264.595086 
L 374.890341 264.688412 
L 375.195435 236.352949 
L 375.500368 221.547441 
L 375.801651 217.067688 
L 376.103989 272.398174 
L 376.405874 273.089249 
L 376.427273 283.139185 
L 376.427273 283.139185 
" clip-path="url(#pd20dead3db)" style="fill: none; stroke: #2ca02c; stroke-width: 1.5; stroke-linecap: square"/>
   </g>
   <g id="line2d_26">
    <path d="M 66.372727 277.744217 
L 66.676536 231.82641 
L 66.97999 232.820946 
L 67.285945 198.291253 
L 67.589933 231.098336 
L 68.499407 231.098336 
L 68.803996 221.82332 
L 69.103307 221.82332 
L 69.407967 216.51599 
L 69.712243 216.51599 
L 70.016594 227.074386 
L 70.320954 225.466445 
L 70.62052 222.756577 
L 70.925794 222.407982 
L 71.23092 219.1921 
L 71.530312 219.1921 
L 71.834506 222.486691 
L 72.443757 49.269467 
L 72.748228 224.783015 
L 74.263308 224.76051 
L 81.241612 224.792678 
L 81.542707 221.283854 
L 92.765787 221.294128 
L 93.072479 221.467876 
L 93.373596 221.467876 
L 93.675199 225.401802 
L 101.564979 225.411526 
L 101.866092 223.582808 
L 102.173314 223.326622 
L 103.385518 223.304177 
L 104.598066 223.304177 
L 111.574862 223.31384 
L 111.876422 223.510949 
L 112.183006 223.847251 
L 112.488318 227.397723 
L 118.855884 227.423287 
L 119.157343 215.995666 
L 120.980389 215.973221 
L 122.498811 215.995666 
L 124.316733 215.950716 
L 133.72311 215.983496 
L 134.025552 216.156876 
L 134.327414 216.156876 
L 134.629002 223.855446 
L 135.841671 223.855446 
L 143.729019 223.86517 
L 144.036213 224.06228 
L 144.337748 224.398215 
L 144.643725 226.549475 
L 166.786403 226.556631 
L 167.088245 226.718758 
L 167.395214 226.531128 
L 174.673986 226.5307 
L 174.980127 226.324478 
L 176.496705 226.301973 
L 182.256848 226.313226 
L 182.563805 224.951748 
L 184.077612 224.929242 
L 191.053008 224.940495 
L 191.359529 222.241757 
L 192.874896 222.219251 
L 201.977678 222.251848 
L 202.2785 222.401805 
L 202.585408 223.832941 
L 221.39349 223.876362 
L 221.694928 221.891205 
L 223.213723 221.868699 
L 224.423058 221.891205 
L 226.24377 221.868699 
L 232.31173 221.879034 
L 232.613709 222.052782 
L 232.921484 222.052782 
L 233.223587 224.906797 
L 241.410817 224.938966 
L 241.717845 218.665415 
L 244.14301 218.651044 
L 255.066151 218.683885 
L 255.368177 218.834882 
L 255.669733 219.1921 
L 255.976637 222.622765 
L 257.187977 222.622765 
L 265.680525 222.63304 
L 265.987443 222.784403 
L 266.288815 226.367472 
L 273.570592 226.378725 
L 273.872258 222.221392 
L 274.174002 221.969853 
L 284.792695 221.958967 
L 285.098751 222.13143 
L 285.399709 221.958539 
L 296.015708 221.992664 
L 296.322765 222.142621 
L 296.623882 221.576246 
L 296.92585 214.55554 
L 297.536324 214.55554 
L 297.836841 176.542771 
L 298.143712 207.620576 
L 298.74585 207.620576 
L 299.052638 158.922204 
L 299.354013 215.815192 
L 299.661458 215.815192 
L 299.962996 179.793206 
L 300.263774 211.654617 
L 300.873406 211.654617 
L 301.177859 169.186557 
L 301.478579 219.818287 
L 301.783187 189.943501 
L 302.085438 196.93528 
L 303.2993 196.93528 
L 303.604627 132.006563 
L 303.906605 212.767614 
L 304.207798 212.767614 
L 304.513356 171.980761 
L 304.815255 218.154081 
L 305.117774 218.154081 
L 305.424834 185.609669 
L 305.726274 218.154081 
L 306.026806 218.154081 
L 306.331495 185.609669 
L 306.632899 218.142584 
L 306.941302 186.286004 
L 307.242969 218.142584 
L 307.544158 218.142584 
L 307.847238 185.55267 
L 308.153566 217.647823 
L 308.457833 217.647823 
L 308.76209 184.355093 
L 309.062965 214.904135 
L 309.367619 214.904135 
L 309.667394 177.398113 
L 309.973728 209.495651 
L 310.58 209.495651 
L 310.881213 163.655209 
L 311.187643 212.68915 
L 311.489187 212.68915 
L 311.792209 171.866764 
L 312.097994 212.756606 
L 312.397951 212.756606 
L 312.703878 171.92364 
L 313.007089 208.756752 
L 313.610906 208.756752 
L 313.914633 161.887403 
L 314.220956 214.881874 
L 314.521564 214.881874 
L 314.826299 177.284116 
L 315.129233 202.334223 
L 316.042053 202.334223 
L 316.345156 145.57835 
L 316.645191 210.260298 
L 317.253144 210.260298 
L 317.554357 166.608421 
L 317.860434 217.782736 
L 318.160807 184.697267 
L 318.467498 208.922182 
L 319.074035 208.921937 
L 319.375468 162.286575 
L 319.680659 208.806167 
L 320.288509 208.806167 
L 320.588719 162.343574 
L 320.895484 226.125351 
L 321.502697 40.522909 
L 321.802794 152.820383 
L 322.108533 128.499023 
L 322.409338 135.920124 
L 322.715465 166.617044 
L 323.016205 80.935481 
L 323.321904 140.052261 
L 323.622042 160.207848 
L 323.927368 154.990418 
L 324.232707 153.101277 
L 324.533103 120.432287 
L 324.838896 139.868178 
L 325.139249 139.952208 
L 325.444293 125.109945 
L 325.744726 91.916656 
L 326.356518 169.277498 
L 326.657189 118.27326 
L 326.962658 125.784568 
L 327.263214 193.155285 
L 327.56948 231.661042 
L 327.869771 220.889208 
L 328.173757 235.157757 
L 328.477945 235.157757 
L 328.782146 235.008044 
L 329.385495 235.126444 
L 329.689856 235.110788 
L 329.995079 211.112827 
L 331.206584 211.11142 
L 331.511978 234.973674 
L 331.812198 217.368336 
L 332.118474 216.726432 
L 332.419167 68.500298 
L 334.543016 68.454858 
L 334.84908 68.595825 
L 335.456398 68.468557 
L 335.75731 68.595825 
L 336.063535 68.392662 
L 336.364898 68.593868 
L 336.666 68.470943 
L 336.972688 39.673193 
L 337.273318 39.556139 
L 337.881237 39.632402 
L 338.187451 39.46 
L 338.488424 75.777007 
L 338.789397 39.882473 
L 339.096203 39.882473 
L 339.396809 39.475656 
L 339.70251 224.818119 
L 340.003183 231.916862 
L 340.308325 194.115634 
L 340.613446 199.930813 
L 340.914397 231.895273 
L 341.220817 187.844224 
L 341.521256 189.504577 
L 341.827075 232.728966 
L 342.128005 231.878149 
L 342.429188 187.805206 
L 342.734731 201.85414 
L 343.040994 231.898392 
L 343.341495 194.124441 
L 343.647065 178.843926 
L 343.947563 232.368996 
L 344.253823 231.898392 
L 344.5549 206.779789 
L 344.860073 207.844533 
L 345.164406 231.890931 
L 345.465588 154.919231 
L 346.072677 173.56271 
L 346.377658 231.890931 
L 346.677184 195.671592 
L 346.98148 197.200151 
L 347.287223 231.890992 
L 347.586702 231.890992 
L 347.891311 192.300493 
L 348.196032 232.706705 
L 348.500808 231.882736 
L 348.80147 205.632483 
L 349.107246 205.264501 
L 349.408461 231.882736 
L 349.715085 196.267139 
L 350.014871 192.368989 
L 350.321121 231.882736 
L 350.622108 231.882736 
L 350.926317 205.215087 
L 351.226887 231.859619 
L 351.532371 221.141114 
L 351.833373 204.506521 
L 352.138871 204.506521 
L 352.445178 231.875336 
L 352.746437 199.007341 
L 353.051779 200.38998 
L 353.352674 231.869526 
L 353.654423 220.270604 
L 353.959413 173.700008 
L 354.264233 192.258173 
L 354.565352 231.843962 
L 354.872107 195.546342 
L 355.172185 197.101382 
L 355.478284 231.736571 
L 355.779295 221.225877 
L 356.085202 195.435526 
L 356.385834 197.020227 
L 356.691523 231.72911 
L 356.992196 189.209188 
L 357.297061 191.081634 
L 357.598175 231.736571 
L 357.904831 231.736571 
L 358.205013 185.061579 
L 358.510559 200.192014 
L 358.811655 231.729171 
L 359.117577 165.110746 
L 359.418121 179.050393 
L 359.724224 181.427139 
L 360.025301 231.720915 
L 360.330793 175.642111 
L 360.631563 193.259252 
L 360.937091 231.720915 
L 361.237597 220.100404 
L 361.543844 195.651349 
L 361.844821 232.539135 
L 362.151575 231.729171 
L 362.452905 172.74027 
L 362.758718 191.302227 
L 363.057957 231.720915 
L 363.363665 220.104318 
L 363.669281 172.811518 
L 363.967786 150.87143 
L 364.276209 162.003174 
L 364.575032 121.665458 
L 364.879999 190.002701 
L 365.18538 155.973028 
L 365.484658 161.522112 
L 365.788243 127.278696 
L 366.092304 154.47303 
L 366.698477 84.543563 
L 367.004062 114.718446 
L 367.305248 117.846935 
L 367.611682 78.784649 
L 367.912417 116.001766 
L 368.218816 189.147236 
L 368.519676 219.367498 
L 368.826082 197.078142 
L 369.126019 199.199741 
L 369.431065 198.858668 
L 369.736402 202.410669 
L 370.036263 197.578896 
L 370.343081 225.518184 
L 373.376733 225.518184 
L 373.678069 225.703979 
L 374.890341 225.703979 
L 375.500368 178.0465 
L 375.801651 177.335182 
L 376.103989 219.800184 
L 376.405874 219.798655 
L 376.427273 255.62873 
L 376.427273 255.62873 
" clip-path="url(#pd20dead3db)" style="fill: none; stroke: #d62728; stroke-width: 1.5; stroke-linecap: square"/>
   </g>
   <g id="patch_8">
    <path d="M 50.87 303.64 
L 50.87 26.88 
" style="fill: none; stroke: #000000; stroke-width: 0.8; stroke-linejoin: miter; stroke-linecap: square"/>
   </g>
   <g id="patch_9">
    <path d="M 391.93 303.64 
L 391.93 26.88 
" style="fill: none; stroke: #000000; stroke-width: 0.8; stroke-linejoin: miter; stroke-linecap: square"/>
   </g>
   <g id="patch_10">
    <path d="M 50.87 303.64 
L 391.93 303.64 
" style="fill: none; stroke: #000000; stroke-width: 0.8; stroke-linejoin: miter; stroke-linecap: square"/>
   </g>
   <g id="patch_11">
    <path d="M 50.87 26.88 
L 391.93 26.88 
" style="fill: none; stroke: #000000; stroke-width: 0.8; stroke-linejoin: miter; stroke-linecap: square"/>
   </g>
   <g id="text_26">
    <!-- Resource Usage Over Time -->
    <g transform="translate(140.35875 20.88) scale(0.12 -0.12)">
     <defs>
      <path id="DejaVuSans-52" d="M 2841 2188 
Q 3044 2119 3236 1894 
Q 3428 1669 3622 1275 
L 4263 0 
L 3584 0 
L 2988 1197 
Q 2756 1666 2539 1819 
Q 2322 1972 1947 1972 
L 1259 1972 
L 1259 0 
L 628 0 
L 628 4666 
L 2053 4666 
Q 2853 4666 3247 4331 
Q 3641 3997 3641 3322 
Q 3641 2881 3436 2590 
Q 3231 2300 2841 2188 
z
M 1259 4147 
L 1259 2491 
L 2053 2491 
Q 2509 2491 2742 2702 
Q 2975 2913 2975 3322 
Q 2975 3731 2742 3939 
Q 2509 4147 2053 4147 
L 1259 4147 
z
" transform="scale(0.015625)"/>
      <path id="DejaVuSans-55" d="M 556 4666 
L 1191 4666 
L 1191 1831 
Q 1191 1081 1462 751 
Q 1734 422 2344 422 
Q 2950 422 3222 751 
Q 3494 1081 3494 1831 
L 3494 4666 
L 4128 4666 
L 4128 1753 
Q 4128 841 3676 375 
Q 3225 -91 2344 -91 
Q 1459 -91 1007 375 
Q 556 841 556 1753 
L 556 4666 
z
" transform="scale(0.015625)"/>
      <path id="DejaVuSans-4f" d="M 2522 4238 
Q 1834 4238 1429 3725 
Q 1025 3213 1025 2328 
Q 1025 1447 1429 934 
Q 1834 422 2522 422 
Q 3209 422 3611 934 
Q 4013 1447 4013 2328 
Q 4013 3213 3611 3725 
Q 3209 4238 2522 4238 
z
M 2522 4750 
Q 3503 4750 4090 4092 
Q 4678 3434 4678 2328 
Q 4678 1225 4090 567 
Q 3503 -91 2522 -91 
Q 1538 -91 948 565 
Q 359 1222 359 2328 
Q 359 3434 948 4092 
Q 1538 4750 2522 4750 
z
" transform="scale(0.015625)"/>
      <path id="DejaVuSans-76" d="M 191 3500 
L 800 3500 
L 1894 563 
L 2988 3500 
L 3597 3500 
L 2284 0 
L 1503 0 
L 191 3500 
z
" transform="scale(0.015625)"/>
     </defs>
     <use xlink:href="#DejaVuSans-52"/>
     <use xlink:href="#DejaVuSans-65" transform="translate(64.982422 0)"/>
     <use xlink:href="#DejaVuSans-73" transform="translate(126.505859 0)"/>
     <use xlink:href="#DejaVuSans-6f" transform="translate(178.605469 0)"/>
     <use xlink:href="#DejaVuSans-75" transform="translate(239.787109 0)"/>
     <use xlink:href="#DejaVuSans-72" transform="translate(303.166016 0)"/>
     <use xlink:href="#DejaVuSans-63" transform="translate(342.029297 0)"/>
     <use xlink:href="#DejaVuSans-65" transform="translate(397.009766 0)"/>
     <use xlink:href="#DejaVuSans-20" transform="translate(458.533203 0)"/>
     <use xlink:href="#DejaVuSans-55" transform="translate(490.320312 0)"/>
     <use xlink:href="#DejaVuSans-73" transform="translate(563.513672 0)"/>
     <use xlink:href="#DejaVuSans-61" transform="translate(615.613281 0)"/>
     <use xlink:href="#DejaVuSans-67" transform="translate(676.892578 0)"/>
     <use xlink:href="#DejaVuSans-65" transform="translate(740.369141 0)"/>
     <use xlink:href="#DejaVuSans-20" transform="translate(801.892578 0)"/>
     <use xlink:href="#DejaVuSans-4f" transform="translate(833.679688 0)"/>
     <use xlink:href="#DejaVuSans-76" transform="translate(912.390625 0)"/>
     <use xlink:href="#DejaVuSans-65" transform="translate(971.570312 0)"/>
     <use xlink:href="#DejaVuSans-72" transform="translate(1033.09375 0)"/>
     <use xlink:href="#DejaVuSans-20" transform="translate(1074.207031 0)"/>
     <use xlink:href="#DejaVuSans-54" transform="translate(1105.994141 0)"/>
     <use xlink:href="#DejaVuSans-69" transform="translate(1163.953125 0)"/>
     <use xlink:href="#DejaVuSans-6d" transform="translate(1191.736328 0)"/>
     <use xlink:href="#DejaVuSans-65" transform="translate(1289.148438 0)"/>
    </g>
   </g>
   <g id="legend_2">
    <g id="patch_12">
     <path d="M 336.553438 64.23625 
L 384.93 64.23625 
Q 386.93 64.23625 386.93 62.23625 
L 386.93 33.88 
Q 386.93 31.88 384.93 31.88 
L 336.553438 31.88 
Q 334.553438 31.88 334.553438 33.88 
L 334.553438 62.23625 
Q 334.553438 64.23625 336.553438 64.23625 
z
" style="fill: #ffffff; opacity: 0.8; stroke: #cccccc; stroke-linejoin: miter"/>
    </g>
    <g id="line2d_27">
     <path d="M 338.553438 39.978437 
L 348.553438 39.978437 
L 358.553438 39.978437 
" style="fill: none; stroke: #2ca02c; stroke-width: 1.5; stroke-linecap: square"/>
    </g>
    <g id="text_27">
     <!-- rss -->
     <g transform="translate(366.553438 43.478437) scale(0.1 -0.1)">
      <use xlink:href="#DejaVuSans-72"/>
      <use xlink:href="#DejaVuSans-73" transform="translate(41.113281 0)"/>
      <use xlink:href="#DejaVuSans-73" transform="translate(93.212891 0)"/>
     </g>
    </g>
    <g id="line2d_28">
     <path d="M 338.553438 54.656563 
L 348.553438 54.656563 
L 358.553438 54.656563 
" style="fill: none; stroke: #d62728; stroke-width: 1.5; stroke-linecap: square"/>
    </g>
    <g id="text_28">
     <!-- vsz -->
     <g transform="translate(366.553438 58.156563) scale(0.1 -0.1)">
      <defs>
       <path id="DejaVuSans-7a" d="M 353 3500 
L 3084 3500 
L 3084 2975 
L 922 459 
L 3084 459 
L 3084 0 
L 275 0 
L 275 525 
L 2438 3041 
L 353 3041 
L 353 3500 
z
" transform="scale(0.015625)"/>
      </defs>
      <use xlink:href="#DejaVuSans-76"/>
      <use xlink:href="#DejaVuSans-73" transform="translate(59.179688 0)"/>
      <use xlink:href="#DejaVuSans-7a" transform="translate(111.279297 0)"/>
     </g>
    </g>
   </g>
  </g>
 </g>
 <defs>
  <clipPath id="pd20dead3db">
   <rect x="50.87" y="26.88" width="341.06" height="276.76"/>
  </clipPath>
 </defs>
</svg>
