<?xml version="1.0" encoding="utf-8" standalone="no"?>
<!DOCTYPE svg PUBLIC "-//W3C//DTD SVG 1.1//EN"
  "http://www.w3.org/Graphics/SVG/1.1/DTD/svg11.dtd">
<svg xmlns:xlink="http://www.w3.org/1999/xlink" width="460.8pt" height="345.6pt" viewBox="0 0 460.8 345.6" xmlns="http://www.w3.org/2000/svg" version="1.1">
 <metadata>
  <rdf:RDF xmlns:dc="http://purl.org/dc/elements/1.1/" xmlns:cc="http://creativecommons.org/ns#" xmlns:rdf="http://www.w3.org/1999/02/22-rdf-syntax-ns#">
   <cc:Work>
    <dc:type rdf:resource="http://purl.org/dc/dcmitype/StillImage"/>
    <dc:date>2025-10-03T14:36:26.215421</dc:date>
    <dc:format>image/svg+xml</dc:format>
    <dc:creator>
     <cc:Agent>
      <dc:title>Matplotlib v3.10.6, https://matplotlib.org/</dc:title>
     </cc:Agent>
    </dc:creator>
   </cc:Work>
  </rdf:RDF>
 </metadata>
 <defs>
  <style type="text/css">*{stroke-linejoin: round; stroke-linecap: butt}</style>
 </defs>
 <g id="figure_1">
  <g id="patch_1">
   <path d="M 0 345.6 
L 460.8 345.6 
L 460.8 0 
L 0 0 
z
" style="fill: #ffffff"/>
  </g>
  <g id="axes_1">
   <g id="patch_2">
    <path d="M 50.87 303.64 
L 391.93 303.64 
L 391.93 26.88 
L 50.87 26.88 
z
" style="fill: #ffffff"/>
   </g>
   <g id="matplotlib.axis_1">
    <g id="xtick_1">
     <g id="line2d_1">
      <defs>
       <path id="m98512b345c" d="M 0 0 
L 0 3.5 
" style="stroke: #000000; stroke-width: 0.8"/>
      </defs>
      <g>
       <use xlink:href="#m98512b345c" x="66.372727" y="303.64" style="stroke: #000000; stroke-width: 0.8"/>
      </g>
     </g>
     <g id="text_1">
      <!-- 0.0h -->
      <g transform="translate(55.252415 318.238437) scale(0.1 -0.1)">
       <defs>
        <path id="DejaVuSans-30" d="M 2034 4250 
Q 1547 4250 1301 3770 
Q 1056 3291 1056 2328 
Q 1056 1369 1301 889 
Q 1547 409 2034 409 
Q 2525 409 2770 889 
Q 3016 1369 3016 2328 
Q 3016 3291 2770 3770 
Q 2525 4250 2034 4250 
z
M 2034 4750 
Q 2819 4750 3233 4129 
Q 3647 3509 3647 2328 
Q 3647 1150 3233 529 
Q 2819 -91 2034 -91 
Q 1250 -91 836 529 
Q 422 1150 422 2328 
Q 422 3509 836 4129 
Q 1250 4750 2034 4750 
z
" transform="scale(0.015625)"/>
        <path id="DejaVuSans-2e" d="M 684 794 
L 1344 794 
L 1344 0 
L 684 0 
L 684 794 
z
" transform="scale(0.015625)"/>
        <path id="DejaVuSans-68" d="M 3513 2113 
L 3513 0 
L 2938 0 
L 2938 2094 
Q 2938 2591 2744 2837 
Q 2550 3084 2163 3084 
Q 1697 3084 1428 2787 
Q 1159 2491 1159 1978 
L 1159 0 
L 581 0 
L 581 4863 
L 1159 4863 
L 1159 2956 
Q 1366 3272 1645 3428 
Q 1925 3584 2291 3584 
Q 2894 3584 3203 3211 
Q 3513 2838 3513 2113 
z
" transform="scale(0.015625)"/>
       </defs>
       <use xlink:href="#DejaVuSans-30"/>
       <use xlink:href="#DejaVuSans-2e" transform="translate(63.623047 0)"/>
       <use xlink:href="#DejaVuSans-30" transform="translate(95.410156 0)"/>
       <use xlink:href="#DejaVuSans-68" transform="translate(159.033203 0)"/>
      </g>
     </g>
    </g>
    <g id="xtick_2">
     <g id="line2d_2">
      <g>
       <use xlink:href="#m98512b345c" x="124.52904" y="303.64" style="stroke: #000000; stroke-width: 0.8"/>
      </g>
     </g>
     <g id="text_2">
      <!-- 1.4h -->
      <g transform="translate(113.408727 318.238437) scale(0.1 -0.1)">
       <defs>
        <path id="DejaVuSans-31" d="M 794 531 
L 1825 531 
L 1825 4091 
L 703 3866 
L 703 4441 
L 1819 4666 
L 2450 4666 
L 2450 531 
L 3481 531 
L 3481 0 
L 794 0 
L 794 531 
z
" transform="scale(0.015625)"/>
        <path id="DejaVuSans-34" d="M 2419 4116 
L 825 1625 
L 2419 1625 
L 2419 4116 
z
M 2253 4666 
L 3047 4666 
L 3047 1625 
L 3713 1625 
L 3713 1100 
L 3047 1100 
L 3047 0 
L 2419 0 
L 2419 1100 
L 313 1100 
L 313 1709 
L 2253 4666 
z
" transform="scale(0.015625)"/>
       </defs>
       <use xlink:href="#DejaVuSans-31"/>
       <use xlink:href="#DejaVuSans-2e" transform="translate(63.623047 0)"/>
       <use xlink:href="#DejaVuSans-34" transform="translate(95.410156 0)"/>
       <use xlink:href="#DejaVuSans-68" transform="translate(159.033203 0)"/>
      </g>
     </g>
    </g>
    <g id="xtick_3">
     <g id="line2d_3">
      <g>
       <use xlink:href="#m98512b345c" x="182.685353" y="303.64" style="stroke: #000000; stroke-width: 0.8"/>
      </g>
     </g>
     <g id="text_3">
      <!-- 2.8h -->
      <g transform="translate(171.56504 318.238437) scale(0.1 -0.1)">
       <defs>
        <path id="DejaVuSans-32" d="M 1228 531 
L 3431 531 
L 3431 0 
L 469 0 
L 469 531 
Q 828 903 1448 1529 
Q 2069 2156 2228 2338 
Q 2531 2678 2651 2914 
Q 2772 3150 2772 3378 
Q 2772 3750 2511 3984 
Q 2250 4219 1831 4219 
Q 1534 4219 1204 4116 
Q 875 4013 500 3803 
L 500 4441 
Q 881 4594 1212 4672 
Q 1544 4750 1819 4750 
Q 2544 4750 2975 4387 
Q 3406 4025 3406 3419 
Q 3406 3131 3298 2873 
Q 3191 2616 2906 2266 
Q 2828 2175 2409 1742 
Q 1991 1309 1228 531 
z
" transform="scale(0.015625)"/>
        <path id="DejaVuSans-38" d="M 2034 2216 
Q 1584 2216 1326 1975 
Q 1069 1734 1069 1313 
Q 1069 891 1326 650 
Q 1584 409 2034 409 
Q 2484 409 2743 651 
Q 3003 894 3003 1313 
Q 3003 1734 2745 1975 
Q 2488 2216 2034 2216 
z
M 1403 2484 
Q 997 2584 770 2862 
Q 544 3141 544 3541 
Q 544 4100 942 4425 
Q 1341 4750 2034 4750 
Q 2731 4750 3128 4425 
Q 3525 4100 3525 3541 
Q 3525 3141 3298 2862 
Q 3072 2584 2669 2484 
Q 3125 2378 3379 2068 
Q 3634 1759 3634 1313 
Q 3634 634 3220 271 
Q 2806 -91 2034 -91 
Q 1263 -91 848 271 
Q 434 634 434 1313 
Q 434 1759 690 2068 
Q 947 2378 1403 2484 
z
M 1172 3481 
Q 1172 3119 1398 2916 
Q 1625 2713 2034 2713 
Q 2441 2713 2670 2916 
Q 2900 3119 2900 3481 
Q 2900 3844 2670 4047 
Q 2441 4250 2034 4250 
Q 1625 4250 1398 4047 
Q 1172 3844 1172 3481 
z
" transform="scale(0.015625)"/>
       </defs>
       <use xlink:href="#DejaVuSans-32"/>
       <use xlink:href="#DejaVuSans-2e" transform="translate(63.623047 0)"/>
       <use xlink:href="#DejaVuSans-38" transform="translate(95.410156 0)"/>
       <use xlink:href="#DejaVuSans-68" transform="translate(159.033203 0)"/>
      </g>
     </g>
    </g>
    <g id="xtick_4">
     <g id="line2d_4">
      <g>
       <use xlink:href="#m98512b345c" x="240.841665" y="303.64" style="stroke: #000000; stroke-width: 0.8"/>
      </g>
     </g>
     <g id="text_4">
      <!-- 4.2h -->
      <g transform="translate(229.721353 318.238437) scale(0.1 -0.1)">
       <use xlink:href="#DejaVuSans-34"/>
       <use xlink:href="#DejaVuSans-2e" transform="translate(63.623047 0)"/>
       <use xlink:href="#DejaVuSans-32" transform="translate(95.410156 0)"/>
       <use xlink:href="#DejaVuSans-68" transform="translate(159.033203 0)"/>
      </g>
     </g>
    </g>
    <g id="xtick_5">
     <g id="line2d_5">
      <g>
       <use xlink:href="#m98512b345c" x="298.997978" y="303.64" style="stroke: #000000; stroke-width: 0.8"/>
      </g>
     </g>
     <g id="text_5">
      <!-- 5.6h -->
      <g transform="translate(287.877665 318.238437) scale(0.1 -0.1)">
       <defs>
        <path id="DejaVuSans-35" d="M 691 4666 
L 3169 4666 
L 3169 4134 
L 1269 4134 
L 1269 2991 
Q 1406 3038 1543 3061 
Q 1681 3084 1819 3084 
Q 2600 3084 3056 2656 
Q 3513 2228 3513 1497 
Q 3513 744 3044 326 
Q 2575 -91 1722 -91 
Q 1428 -91 1123 -41 
Q 819 9 494 109 
L 494 744 
Q 775 591 1075 516 
Q 1375 441 1709 441 
Q 2250 441 2565 725 
Q 2881 1009 2881 1497 
Q 2881 1984 2565 2268 
Q 2250 2553 1709 2553 
Q 1456 2553 1204 2497 
Q 953 2441 691 2322 
L 691 4666 
z
" transform="scale(0.015625)"/>
        <path id="DejaVuSans-36" d="M 2113 2584 
Q 1688 2584 1439 2293 
Q 1191 2003 1191 1497 
Q 1191 994 1439 701 
Q 1688 409 2113 409 
Q 2538 409 2786 701 
Q 3034 994 3034 1497 
Q 3034 2003 2786 2293 
Q 2538 2584 2113 2584 
z
M 3366 4563 
L 3366 3988 
Q 3128 4100 2886 4159 
Q 2644 4219 2406 4219 
Q 1781 4219 1451 3797 
Q 1122 3375 1075 2522 
Q 1259 2794 1537 2939 
Q 1816 3084 2150 3084 
Q 2853 3084 3261 2657 
Q 3669 2231 3669 1497 
Q 3669 778 3244 343 
Q 2819 -91 2113 -91 
Q 1303 -91 875 529 
Q 447 1150 447 2328 
Q 447 3434 972 4092 
Q 1497 4750 2381 4750 
Q 2619 4750 2861 4703 
Q 3103 4656 3366 4563 
z
" transform="scale(0.015625)"/>
       </defs>
       <use xlink:href="#DejaVuSans-35"/>
       <use xlink:href="#DejaVuSans-2e" transform="translate(63.623047 0)"/>
       <use xlink:href="#DejaVuSans-36" transform="translate(95.410156 0)"/>
       <use xlink:href="#DejaVuSans-68" transform="translate(159.033203 0)"/>
      </g>
     </g>
    </g>
    <g id="xtick_6">
     <g id="line2d_6">
      <g>
       <use xlink:href="#m98512b345c" x="357.15429" y="303.64" style="stroke: #000000; stroke-width: 0.8"/>
      </g>
     </g>
     <g id="text_6">
      <!-- 6.9h -->
      <g transform="translate(346.033978 318.238437) scale(0.1 -0.1)">
       <defs>
        <path id="DejaVuSans-39" d="M 703 97 
L 703 672 
Q 941 559 1184 500 
Q 1428 441 1663 441 
Q 2288 441 2617 861 
Q 2947 1281 2994 2138 
Q 2813 1869 2534 1725 
Q 2256 1581 1919 1581 
Q 1219 1581 811 2004 
Q 403 2428 403 3163 
Q 403 3881 828 4315 
Q 1253 4750 1959 4750 
Q 2769 4750 3195 4129 
Q 3622 3509 3622 2328 
Q 3622 1225 3098 567 
Q 2575 -91 1691 -91 
Q 1453 -91 1209 -44 
Q 966 3 703 97 
z
M 1959 2075 
Q 2384 2075 2632 2365 
Q 2881 2656 2881 3163 
Q 2881 3666 2632 3958 
Q 2384 4250 1959 4250 
Q 1534 4250 1286 3958 
Q 1038 3666 1038 3163 
Q 1038 2656 1286 2365 
Q 1534 2075 1959 2075 
z
" transform="scale(0.015625)"/>
       </defs>
       <use xlink:href="#DejaVuSans-36"/>
       <use xlink:href="#DejaVuSans-2e" transform="translate(63.623047 0)"/>
       <use xlink:href="#DejaVuSans-39" transform="translate(95.410156 0)"/>
       <use xlink:href="#DejaVuSans-68" transform="translate(159.033203 0)"/>
      </g>
     </g>
    </g>
    <g id="text_7">
     <!-- Elapsed Time -->
     <g transform="translate(187.935156 331.916562) scale(0.1 -0.1)">
      <defs>
       <path id="DejaVuSans-45" d="M 628 4666 
L 3578 4666 
L 3578 4134 
L 1259 4134 
L 1259 2753 
L 3481 2753 
L 3481 2222 
L 1259 2222 
L 1259 531 
L 3634 531 
L 3634 0 
L 628 0 
L 628 4666 
z
" transform="scale(0.015625)"/>
       <path id="DejaVuSans-6c" d="M 603 4863 
L 1178 4863 
L 1178 0 
L 603 0 
L 603 4863 
z
" transform="scale(0.015625)"/>
       <path id="DejaVuSans-61" d="M 2194 1759 
Q 1497 1759 1228 1600 
Q 959 1441 959 1056 
Q 959 750 1161 570 
Q 1363 391 1709 391 
Q 2188 391 2477 730 
Q 2766 1069 2766 1631 
L 2766 1759 
L 2194 1759 
z
M 3341 1997 
L 3341 0 
L 2766 0 
L 2766 531 
Q 2569 213 2275 61 
Q 1981 -91 1556 -91 
Q 1019 -91 701 211 
Q 384 513 384 1019 
Q 384 1609 779 1909 
Q 1175 2209 1959 2209 
L 2766 2209 
L 2766 2266 
Q 2766 2663 2505 2880 
Q 2244 3097 1772 3097 
Q 1472 3097 1187 3025 
Q 903 2953 641 2809 
L 641 3341 
Q 956 3463 1253 3523 
Q 1550 3584 1831 3584 
Q 2591 3584 2966 3190 
Q 3341 2797 3341 1997 
z
" transform="scale(0.015625)"/>
       <path id="DejaVuSans-70" d="M 1159 525 
L 1159 -1331 
L 581 -1331 
L 581 3500 
L 1159 3500 
L 1159 2969 
Q 1341 3281 1617 3432 
Q 1894 3584 2278 3584 
Q 2916 3584 3314 3078 
Q 3713 2572 3713 1747 
Q 3713 922 3314 415 
Q 2916 -91 2278 -91 
Q 1894 -91 1617 61 
Q 1341 213 1159 525 
z
M 3116 1747 
Q 3116 2381 2855 2742 
Q 2594 3103 2138 3103 
Q 1681 3103 1420 2742 
Q 1159 2381 1159 1747 
Q 1159 1113 1420 752 
Q 1681 391 2138 391 
Q 2594 391 2855 752 
Q 3116 1113 3116 1747 
z
" transform="scale(0.015625)"/>
       <path id="DejaVuSans-73" d="M 2834 3397 
L 2834 2853 
Q 2591 2978 2328 3040 
Q 2066 3103 1784 3103 
Q 1356 3103 1142 2972 
Q 928 2841 928 2578 
Q 928 2378 1081 2264 
Q 1234 2150 1697 2047 
L 1894 2003 
Q 2506 1872 2764 1633 
Q 3022 1394 3022 966 
Q 3022 478 2636 193 
Q 2250 -91 1575 -91 
Q 1294 -91 989 -36 
Q 684 19 347 128 
L 347 722 
Q 666 556 975 473 
Q 1284 391 1588 391 
Q 1994 391 2212 530 
Q 2431 669 2431 922 
Q 2431 1156 2273 1281 
Q 2116 1406 1581 1522 
L 1381 1569 
Q 847 1681 609 1914 
Q 372 2147 372 2553 
Q 372 3047 722 3315 
Q 1072 3584 1716 3584 
Q 2034 3584 2315 3537 
Q 2597 3491 2834 3397 
z
" transform="scale(0.015625)"/>
       <path id="DejaVuSans-65" d="M 3597 1894 
L 3597 1613 
L 953 1613 
Q 991 1019 1311 708 
Q 1631 397 2203 397 
Q 2534 397 2845 478 
Q 3156 559 3463 722 
L 3463 178 
Q 3153 47 2828 -22 
Q 2503 -91 2169 -91 
Q 1331 -91 842 396 
Q 353 884 353 1716 
Q 353 2575 817 3079 
Q 1281 3584 2069 3584 
Q 2775 3584 3186 3129 
Q 3597 2675 3597 1894 
z
M 3022 2063 
Q 3016 2534 2758 2815 
Q 2500 3097 2075 3097 
Q 1594 3097 1305 2825 
Q 1016 2553 972 2059 
L 3022 2063 
z
" transform="scale(0.015625)"/>
       <path id="DejaVuSans-64" d="M 2906 2969 
L 2906 4863 
L 3481 4863 
L 3481 0 
L 2906 0 
L 2906 525 
Q 2725 213 2448 61 
Q 2172 -91 1784 -91 
Q 1150 -91 751 415 
Q 353 922 353 1747 
Q 353 2572 751 3078 
Q 1150 3584 1784 3584 
Q 2172 3584 2448 3432 
Q 2725 3281 2906 2969 
z
M 947 1747 
Q 947 1113 1208 752 
Q 1469 391 1925 391 
Q 2381 391 2643 752 
Q 2906 1113 2906 1747 
Q 2906 2381 2643 2742 
Q 2381 3103 1925 3103 
Q 1469 3103 1208 2742 
Q 947 2381 947 1747 
z
" transform="scale(0.015625)"/>
       <path id="DejaVuSans-20" transform="scale(0.015625)"/>
       <path id="DejaVuSans-54" d="M -19 4666 
L 3928 4666 
L 3928 4134 
L 2272 4134 
L 2272 0 
L 1638 0 
L 1638 4134 
L -19 4134 
L -19 4666 
z
" transform="scale(0.015625)"/>
       <path id="DejaVuSans-69" d="M 603 3500 
L 1178 3500 
L 1178 0 
L 603 0 
L 603 3500 
z
M 603 4863 
L 1178 4863 
L 1178 4134 
L 603 4134 
L 603 4863 
z
" transform="scale(0.015625)"/>
       <path id="DejaVuSans-6d" d="M 3328 2828 
Q 3544 3216 3844 3400 
Q 4144 3584 4550 3584 
Q 5097 3584 5394 3201 
Q 5691 2819 5691 2113 
L 5691 0 
L 5113 0 
L 5113 2094 
Q 5113 2597 4934 2840 
Q 4756 3084 4391 3084 
Q 3944 3084 3684 2787 
Q 3425 2491 3425 1978 
L 3425 0 
L 2847 0 
L 2847 2094 
Q 2847 2600 2669 2842 
Q 2491 3084 2119 3084 
Q 1678 3084 1418 2786 
Q 1159 2488 1159 1978 
L 1159 0 
L 581 0 
L 581 3500 
L 1159 3500 
L 1159 2956 
Q 1356 3278 1631 3431 
Q 1906 3584 2284 3584 
Q 2666 3584 2933 3390 
Q 3200 3197 3328 2828 
z
" transform="scale(0.015625)"/>
      </defs>
      <use xlink:href="#DejaVuSans-45"/>
      <use xlink:href="#DejaVuSans-6c" transform="translate(63.183594 0)"/>
      <use xlink:href="#DejaVuSans-61" transform="translate(90.966797 0)"/>
      <use xlink:href="#DejaVuSans-70" transform="translate(152.246094 0)"/>
      <use xlink:href="#DejaVuSans-73" transform="translate(215.722656 0)"/>
      <use xlink:href="#DejaVuSans-65" transform="translate(267.822266 0)"/>
      <use xlink:href="#DejaVuSans-64" transform="translate(329.345703 0)"/>
      <use xlink:href="#DejaVuSans-20" transform="translate(392.822266 0)"/>
      <use xlink:href="#DejaVuSans-54" transform="translate(424.609375 0)"/>
      <use xlink:href="#DejaVuSans-69" transform="translate(482.568359 0)"/>
      <use xlink:href="#DejaVuSans-6d" transform="translate(510.351562 0)"/>
      <use xlink:href="#DejaVuSans-65" transform="translate(607.763672 0)"/>
     </g>
    </g>
   </g>
   <g id="matplotlib.axis_2">
    <g id="ytick_1">
     <g id="line2d_7">
      <defs>
       <path id="me97055d0bd" d="M 0 0 
L -3.5 0 
" style="stroke: #000000; stroke-width: 0.8"/>
      </defs>
      <g>
       <use xlink:href="#me97055d0bd" x="50.87" y="291.06" style="stroke: #000000; stroke-width: 0.8"/>
      </g>
     </g>
     <g id="text_8">
      <!-- 0 -->
      <g transform="translate(37.5075 294.859219) scale(0.1 -0.1)">
       <use xlink:href="#DejaVuSans-30"/>
      </g>
     </g>
    </g>
    <g id="ytick_2">
     <g id="line2d_8">
      <g>
       <use xlink:href="#me97055d0bd" x="50.87" y="240.74" style="stroke: #000000; stroke-width: 0.8"/>
      </g>
     </g>
     <g id="text_9">
      <!-- 20 -->
      <g transform="translate(31.145 244.539219) scale(0.1 -0.1)">
       <use xlink:href="#DejaVuSans-32"/>
       <use xlink:href="#DejaVuSans-30" transform="translate(63.623047 0)"/>
      </g>
     </g>
    </g>
    <g id="ytick_3">
     <g id="line2d_9">
      <g>
       <use xlink:href="#me97055d0bd" x="50.87" y="190.42" style="stroke: #000000; stroke-width: 0.8"/>
      </g>
     </g>
     <g id="text_10">
      <!-- 40 -->
      <g transform="translate(31.145 194.219219) scale(0.1 -0.1)">
       <use xlink:href="#DejaVuSans-34"/>
       <use xlink:href="#DejaVuSans-30" transform="translate(63.623047 0)"/>
      </g>
     </g>
    </g>
    <g id="ytick_4">
     <g id="line2d_10">
      <g>
       <use xlink:href="#me97055d0bd" x="50.87" y="140.1" style="stroke: #000000; stroke-width: 0.8"/>
      </g>
     </g>
     <g id="text_11">
      <!-- 60 -->
      <g transform="translate(31.145 143.899219) scale(0.1 -0.1)">
       <use xlink:href="#DejaVuSans-36"/>
       <use xlink:href="#DejaVuSans-30" transform="translate(63.623047 0)"/>
      </g>
     </g>
    </g>
    <g id="ytick_5">
     <g id="line2d_11">
      <g>
       <use xlink:href="#me97055d0bd" x="50.87" y="89.78" style="stroke: #000000; stroke-width: 0.8"/>
      </g>
     </g>
     <g id="text_12">
      <!-- 80 -->
      <g transform="translate(31.145 93.579219) scale(0.1 -0.1)">
       <use xlink:href="#DejaVuSans-38"/>
       <use xlink:href="#DejaVuSans-30" transform="translate(63.623047 0)"/>
      </g>
     </g>
    </g>
    <g id="ytick_6">
     <g id="line2d_12">
      <g>
       <use xlink:href="#me97055d0bd" x="50.87" y="39.46" style="stroke: #000000; stroke-width: 0.8"/>
      </g>
     </g>
     <g id="text_13">
      <!-- 100 -->
      <g transform="translate(24.7825 43.259219) scale(0.1 -0.1)">
       <use xlink:href="#DejaVuSans-31"/>
       <use xlink:href="#DejaVuSans-30" transform="translate(63.623047 0)"/>
       <use xlink:href="#DejaVuSans-30" transform="translate(127.246094 0)"/>
      </g>
     </g>
    </g>
    <g id="text_14">
     <!-- Percentage -->
     <g transform="translate(18.702813 193.382656) rotate(-90) scale(0.1 -0.1)">
      <defs>
       <path id="DejaVuSans-50" d="M 1259 4147 
L 1259 2394 
L 2053 2394 
Q 2494 2394 2734 2622 
Q 2975 2850 2975 3272 
Q 2975 3691 2734 3919 
Q 2494 4147 2053 4147 
L 1259 4147 
z
M 628 4666 
L 2053 4666 
Q 2838 4666 3239 4311 
Q 3641 3956 3641 3272 
Q 3641 2581 3239 2228 
Q 2838 1875 2053 1875 
L 1259 1875 
L 1259 0 
L 628 0 
L 628 4666 
z
" transform="scale(0.015625)"/>
       <path id="DejaVuSans-72" d="M 2631 2963 
Q 2534 3019 2420 3045 
Q 2306 3072 2169 3072 
Q 1681 3072 1420 2755 
Q 1159 2438 1159 1844 
L 1159 0 
L 581 0 
L 581 3500 
L 1159 3500 
L 1159 2956 
Q 1341 3275 1631 3429 
Q 1922 3584 2338 3584 
Q 2397 3584 2469 3576 
Q 2541 3569 2628 3553 
L 2631 2963 
z
" transform="scale(0.015625)"/>
       <path id="DejaVuSans-63" d="M 3122 3366 
L 3122 2828 
Q 2878 2963 2633 3030 
Q 2388 3097 2138 3097 
Q 1578 3097 1268 2742 
Q 959 2388 959 1747 
Q 959 1106 1268 751 
Q 1578 397 2138 397 
Q 2388 397 2633 464 
Q 2878 531 3122 666 
L 3122 134 
Q 2881 22 2623 -34 
Q 2366 -91 2075 -91 
Q 1284 -91 818 406 
Q 353 903 353 1747 
Q 353 2603 823 3093 
Q 1294 3584 2113 3584 
Q 2378 3584 2631 3529 
Q 2884 3475 3122 3366 
z
" transform="scale(0.015625)"/>
       <path id="DejaVuSans-6e" d="M 3513 2113 
L 3513 0 
L 2938 0 
L 2938 2094 
Q 2938 2591 2744 2837 
Q 2550 3084 2163 3084 
Q 1697 3084 1428 2787 
Q 1159 2491 1159 1978 
L 1159 0 
L 581 0 
L 581 3500 
L 1159 3500 
L 1159 2956 
Q 1366 3272 1645 3428 
Q 1925 3584 2291 3584 
Q 2894 3584 3203 3211 
Q 3513 2838 3513 2113 
z
" transform="scale(0.015625)"/>
       <path id="DejaVuSans-74" d="M 1172 4494 
L 1172 3500 
L 2356 3500 
L 2356 3053 
L 1172 3053 
L 1172 1153 
Q 1172 725 1289 603 
Q 1406 481 1766 481 
L 2356 481 
L 2356 0 
L 1766 0 
Q 1100 0 847 248 
Q 594 497 594 1153 
L 594 3053 
L 172 3053 
L 172 3500 
L 594 3500 
L 594 4494 
L 1172 4494 
z
" transform="scale(0.015625)"/>
       <path id="DejaVuSans-67" d="M 2906 1791 
Q 2906 2416 2648 2759 
Q 2391 3103 1925 3103 
Q 1463 3103 1205 2759 
Q 947 2416 947 1791 
Q 947 1169 1205 825 
Q 1463 481 1925 481 
Q 2391 481 2648 825 
Q 2906 1169 2906 1791 
z
M 3481 434 
Q 3481 -459 3084 -895 
Q 2688 -1331 1869 -1331 
Q 1566 -1331 1297 -1286 
Q 1028 -1241 775 -1147 
L 775 -588 
Q 1028 -725 1275 -790 
Q 1522 -856 1778 -856 
Q 2344 -856 2625 -561 
Q 2906 -266 2906 331 
L 2906 616 
Q 2728 306 2450 153 
Q 2172 0 1784 0 
Q 1141 0 747 490 
Q 353 981 353 1791 
Q 353 2603 747 3093 
Q 1141 3584 1784 3584 
Q 2172 3584 2450 3431 
Q 2728 3278 2906 2969 
L 2906 3500 
L 3481 3500 
L 3481 434 
z
" transform="scale(0.015625)"/>
      </defs>
      <use xlink:href="#DejaVuSans-50"/>
      <use xlink:href="#DejaVuSans-65" transform="translate(56.677734 0)"/>
      <use xlink:href="#DejaVuSans-72" transform="translate(118.201172 0)"/>
      <use xlink:href="#DejaVuSans-63" transform="translate(157.064453 0)"/>
      <use xlink:href="#DejaVuSans-65" transform="translate(212.044922 0)"/>
      <use xlink:href="#DejaVuSans-6e" transform="translate(273.568359 0)"/>
      <use xlink:href="#DejaVuSans-74" transform="translate(336.947266 0)"/>
      <use xlink:href="#DejaVuSans-61" transform="translate(376.15625 0)"/>
      <use xlink:href="#DejaVuSans-67" transform="translate(437.435547 0)"/>
      <use xlink:href="#DejaVuSans-65" transform="translate(500.912109 0)"/>
     </g>
    </g>
   </g>
   <g id="line2d_13">
    <path d="M 66.372727 291.06 
L 67.073261 290.5568 
L 148.02454 290.5568 
L 148.72535 289.5504 
L 150.827332 285.2732 
L 152.216941 283.2604 
L 153.618646 279.9896 
L 154.307574 279.2348 
L 155.008461 278.2284 
L 155.709431 275.964 
L 157.09925 273.448 
L 157.799995 272.6932 
L 158.500891 271.6868 
L 159.201799 270.1772 
L 159.89068 268.416 
L 160.59139 267.158 
L 161.292398 266.4032 
L 161.993334 264.3904 
L 162.682258 264.3904 
L 163.38309 261.8744 
L 164.083809 260.1132 
L 164.78468 259.8616 
L 165.472759 256.8424 
L 166.173483 256.8424 
L 166.873859 254.578 
L 167.574684 254.3264 
L 168.963871 252.3136 
L 169.664627 252.3136 
L 170.365083 250.3008 
L 171.054015 250.3008 
L 171.754348 249.2944 
L 172.454837 249.2944 
L 173.155135 246.2752 
L 173.856015 246.2752 
L 174.544354 245.5204 
L 175.245095 245.5204 
L 175.945327 243.7592 
L 176.64598 243.7592 
L 177.346308 241.7464 
L 178.035046 241.7464 
L 178.73526 241.2432 
L 179.434124 241.2432 
L 180.134243 236.966 
L 180.835101 236.966 
L 181.523936 236.7144 
L 182.925145 236.7144 
L 183.625195 235.2048 
L 184.314127 235.2048 
L 185.014207 233.192 
L 185.715006 233.192 
L 186.414973 231.6824 
L 187.115669 231.6824 
L 187.813222 228.16 
L 188.510943 228.16 
L 189.199142 225.1408 
L 192.001732 225.1408 
L 192.689802 223.8828 
L 193.390494 223.8828 
L 194.090671 222.3732 
L 194.79145 222.3732 
L 195.491325 221.87 
L 196.180188 221.6184 
L 196.880116 219.1024 
L 197.580965 219.1024 
L 198.969705 218.5992 
L 199.670346 218.096 
L 200.370195 215.8316 
L 201.070998 215.8316 
L 201.770801 214.5736 
L 202.4598 214.5736 
L 203.159434 212.8124 
L 203.86003 212.8124 
L 204.559806 210.2964 
L 205.949344 210.2964 
L 206.64938 208.5352 
L 207.349254 208.5352 
L 208.048856 206.5224 
L 208.749643 206.5224 
L 209.437443 204.7612 
L 210.138235 204.7612 
L 210.837968 203.7548 
L 212.239055 203.7548 
L 212.927154 202.4968 
L 213.627905 202.2452 
L 214.327317 200.2324 
L 215.028088 200.2324 
L 215.727647 198.2196 
L 216.416534 198.2196 
L 217.116207 196.2068 
L 218.513545 195.2004 
L 219.213047 192.1812 
L 221.302312 192.1812 
L 222.0016 190.6716 
L 222.702442 190.42 
L 223.402893 190.42 
L 224.102565 189.162 
L 224.791479 189.162 
L 225.490787 186.646 
L 226.191519 186.646 
L 226.890846 184.13 
L 228.29114 184.13 
L 228.979079 181.8656 
L 229.676596 181.614 
L 230.375029 179.3496 
L 231.075818 179.3496 
L 231.775062 178.8464 
L 233.176294 178.8464 
L 233.863895 176.8336 
L 234.564677 176.8336 
L 235.263354 174.3176 
L 235.963932 174.3176 
L 236.663361 172.808 
L 237.363934 172.5564 
L 238.053035 172.5564 
L 238.752247 171.0468 
L 239.453116 171.0468 
L 240.152241 169.7888 
L 240.852993 169.7888 
L 241.541157 169.2856 
L 242.241008 167.2728 
L 242.941977 167.2728 
L 243.640991 164.7568 
L 244.341872 164.7568 
L 245.029157 164.002 
L 245.729874 163.4988 
L 246.430613 163.4988 
L 247.129668 160.228 
L 247.828919 160.228 
L 248.526339 156.9572 
L 249.22633 156.9572 
L 249.914896 156.7056 
L 251.315609 156.7056 
L 252.014664 155.6992 
L 252.715479 155.6992 
L 253.403248 155.4476 
L 254.10329 153.4348 
L 254.80409 153.4348 
L 255.502832 151.422 
L 256.203456 151.422 
L 256.902762 149.9124 
L 257.591207 148.906 
L 258.291906 148.906 
L 258.99089 148.1512 
L 259.691841 148.1512 
L 260.390964 144.8804 
L 261.088481 144.3772 
L 261.789112 144.3772 
L 262.476062 140.6032 
L 263.874187 140.6032 
L 264.575115 140.3516 
L 265.276172 140.3516 
L 265.974925 138.0872 
L 266.664097 138.0872 
L 267.362959 136.5776 
L 268.063454 136.0744 
L 268.764305 136.0744 
L 269.462791 135.068 
L 270.162356 134.8164 
L 270.861163 132.3004 
L 271.558144 131.5456 
L 272.255089 131.5456 
L 272.953272 126.5136 
L 273.642298 126.262 
L 275.74224 126.262 
L 276.44055 125.7588 
L 277.140423 125.7588 
L 277.839856 125.2556 
L 278.52719 122.7396 
L 279.227857 122.7396 
L 279.926254 121.23 
L 280.626973 121.23 
L 281.326863 120.9784 
L 282.024669 119.4688 
L 282.722717 119.4688 
L 283.421103 115.4432 
L 284.11015 115.1916 
L 284.811086 115.1916 
L 285.509373 114.4368 
L 286.909294 114.4368 
L 287.609205 113.4304 
L 288.298205 113.4304 
L 288.996239 111.4176 
L 290.396808 111.4176 
L 291.09564 110.6628 
L 291.796464 110.6628 
L 292.49467 109.1532 
L 293.183426 108.9016 
L 293.884208 108.9016 
L 294.58215 107.392 
L 295.982358 107.392 
L 296.681836 105.3792 
L 297.370841 105.3792 
L 298.06842 102.6116 
L 299.469803 102.6116 
L 300.167725 100.0956 
L 300.868611 100.0956 
L 301.56788 99.5924 
L 302.255426 96.5732 
L 302.956249 96.5732 
L 303.654436 95.3152 
L 304.35508 95.0636 
L 305.055596 95.0636 
L 305.753241 93.0508 
L 306.452603 93.0508 
L 307.140243 92.0444 
L 307.839567 88.7736 
L 309.238704 88.7736 
L 310.639893 88.2704 
L 311.337591 86.5092 
L 312.725284 86.5092 
L 313.422446 84.2448 
L 314.119652 84.2448 
L 314.817455 81.2256 
L 315.517233 79.2128 
L 318.316693 79.2128 
L 319.014597 76.4452 
L 320.402827 76.4452 
L 321.101778 74.1808 
L 322.500995 74.1808 
L 323.200919 72.4196 
L 323.889811 72.4196 
L 324.587132 70.4068 
L 325.988337 70.4068 
L 326.685913 69.1488 
L 327.386711 69.9036 
L 328.086265 69.9036 
L 328.784712 67.3876 
L 330.172244 67.3876 
L 330.871692 65.3748 
L 331.572512 65.3748 
L 332.270405 64.3684 
L 332.969646 64.1168 
L 333.670529 65.1232 
L 334.367713 64.1168 
L 335.056596 64.3684 
L 335.757162 64.3684 
L 336.454564 62.3556 
L 337.855087 62.3556 
L 338.55319 60.0912 
L 339.941059 60.0912 
L 340.63982 59.0848 
L 341.340692 60.0912 
L 342.039082 59.8396 
L 342.738453 59.0848 
L 343.439168 59.3364 
L 344.137175 60.3428 
L 344.825299 60.3428 
L 345.526096 61.0976 
L 346.223699 62.104 
L 346.92399 61.6008 
L 347.624047 61.6008 
L 348.320988 60.5944 
L 349.021836 60.846 
L 350.411326 60.846 
L 351.112187 61.3492 
L 351.812151 62.6072 
L 353.210428 62.6072 
L 353.908663 62.3556 
L 354.606812 61.8524 
L 355.304547 62.6072 
L 356.001521 63.8652 
L 356.699916 62.104 
L 357.388729 62.3556 
L 358.087723 62.3556 
L 358.786167 62.104 
L 360.186094 62.104 
L 360.883375 65.878 
L 362.272647 65.878 
L 362.981562 61.6008 
L 363.670477 61.3492 
L 364.370698 61.3492 
L 365.067651 60.0912 
L 366.46849 60.0912 
L 367.165816 58.5816 
L 368.554688 58.5816 
L 369.252068 56.0656 
L 369.952681 56.0656 
L 370.652519 55.814 
L 371.350155 53.0464 
L 372.751016 53.0464 
L 373.439244 50.2788 
L 376.384836 50.2788 
L 376.427273 291.06 
L 376.427273 291.06 
" clip-path="url(#pc21c5f2b94)" style="fill: none; stroke: #1f77b4; stroke-width: 1.5; stroke-linecap: square"/>
   </g>
   <g id="line2d_14">
    <path d="M 66.372727 39.46 
L 67.073261 153.938 
L 67.773741 155.6992 
L 68.474303 155.9508 
L 69.174978 155.9508 
L 69.863846 155.6992 
L 70.564447 156.454 
L 71.265069 156.9572 
L 71.965795 156.9572 
L 72.654533 156.2024 
L 73.355109 155.6992 
L 74.756041 155.6992 
L 75.456637 155.4476 
L 76.145389 155.4476 
L 76.845821 154.9444 
L 79.635929 153.938 
L 80.336695 154.4412 
L 81.037479 154.6928 
L 81.737437 154.4412 
L 82.426158 154.9444 
L 83.827163 154.9444 
L 85.2164 154.4412 
L 85.916838 154.4412 
L 86.617183 154.1896 
L 88.018441 154.1896 
L 88.707172 153.938 
L 92.195632 153.938 
L 92.89526 154.9444 
L 93.595771 155.196 
L 94.296489 154.9444 
L 97.087029 154.9444 
L 98.476367 154.4412 
L 99.877584 154.4412 
L 100.578253 154.6928 
L 101.967358 154.1896 
L 102.666859 154.1896 
L 103.367299 154.6928 
L 104.064912 154.6928 
L 104.763584 155.4476 
L 105.46429 155.6992 
L 106.853597 155.6992 
L 107.553953 155.4476 
L 111.045023 155.4476 
L 111.74575 155.196 
L 112.434446 155.196 
L 113.135113 155.4476 
L 113.835686 155.4476 
L 114.536488 155.196 
L 121.506276 155.196 
L 122.206753 154.9444 
L 125.696958 154.9444 
L 126.397621 155.196 
L 127.098352 154.9444 
L 131.277808 154.9444 
L 131.978386 154.6928 
L 134.077855 154.6928 
L 134.765901 155.196 
L 143.837808 155.196 
L 144.537832 154.9444 
L 145.238423 155.196 
L 145.935903 155.196 
L 146.635097 155.4476 
L 148.72535 155.4476 
L 150.126733 155.9508 
L 150.827332 155.9508 
L 153.618646 156.9572 
L 154.307574 156.9572 
L 155.709431 157.4604 
L 156.410389 157.4604 
L 157.09925 157.712 
L 157.799995 157.712 
L 159.201799 158.2152 
L 159.89068 158.2152 
L 160.59139 158.4668 
L 161.292398 158.4668 
L 161.993334 158.7184 
L 162.682258 158.7184 
L 163.38309 158.97 
L 164.083809 158.97 
L 165.472759 159.4732 
L 166.173483 159.4732 
L 166.873859 159.7248 
L 167.574684 159.7248 
L 168.263591 159.9764 
L 168.963871 159.9764 
L 169.664627 160.228 
L 171.054015 160.228 
L 171.754348 160.4796 
L 173.155135 160.4796 
L 173.856015 160.7312 
L 174.544354 160.7312 
L 175.245095 160.9828 
L 176.64598 160.9828 
L 177.346308 161.2344 
L 178.035046 161.2344 
L 178.73526 161.486 
L 179.434124 161.486 
L 180.134243 161.7376 
L 180.835101 161.7376 
L 181.523936 161.9892 
L 183.625195 161.9892 
L 184.314127 162.2408 
L 186.414973 162.2408 
L 187.115669 162.4924 
L 187.813222 162.4924 
L 189.199142 162.9956 
L 192.689802 162.9956 
L 193.390494 163.2472 
L 194.090671 162.9956 
L 194.79145 163.2472 
L 198.969705 163.2472 
L 199.670346 163.4988 
L 200.370195 163.2472 
L 201.070998 163.4988 
L 201.770801 163.2472 
L 202.4598 163.4988 
L 203.159434 163.2472 
L 203.86003 163.4988 
L 204.559806 163.2472 
L 205.260683 163.2472 
L 205.949344 163.4988 
L 206.64938 163.2472 
L 207.349254 163.4988 
L 208.048856 163.2472 
L 208.749643 163.4988 
L 209.437443 163.2472 
L 210.138235 163.4988 
L 210.837968 163.2472 
L 211.538615 163.2472 
L 212.239055 163.4988 
L 212.927154 163.2472 
L 213.627905 163.4988 
L 214.327317 163.2472 
L 215.028088 163.4988 
L 215.727647 163.2472 
L 217.813778 163.2472 
L 218.513545 163.4988 
L 219.913854 163.4988 
L 220.613329 163.2472 
L 222.702442 163.2472 
L 223.402893 163.4988 
L 224.102565 163.2472 
L 224.791479 163.2472 
L 225.490787 162.9956 
L 226.191519 163.2472 
L 226.890846 162.9956 
L 227.591687 162.9956 
L 228.29114 163.2472 
L 228.979079 162.9956 
L 230.375029 162.9956 
L 231.075818 163.2472 
L 231.775062 162.9956 
L 232.4758 162.9956 
L 233.176294 163.2472 
L 233.863895 162.9956 
L 234.564677 162.9956 
L 235.263354 162.744 
L 239.453116 162.744 
L 240.152241 162.4924 
L 240.852993 162.4924 
L 241.541157 162.744 
L 242.241008 162.4924 
L 242.941977 162.4924 
L 243.640991 162.2408 
L 244.341872 162.4924 
L 245.029157 162.2408 
L 246.430613 162.2408 
L 247.129668 161.9892 
L 247.828919 162.2408 
L 249.914896 162.2408 
L 250.61462 161.9892 
L 251.315609 162.2408 
L 252.014664 161.9892 
L 253.403248 161.9892 
L 254.10329 161.7376 
L 254.80409 161.9892 
L 255.502832 161.7376 
L 256.902762 161.7376 
L 257.591207 161.486 
L 258.291906 161.7376 
L 258.99089 161.486 
L 260.390964 161.486 
L 261.088481 161.2344 
L 261.789112 161.486 
L 262.476062 161.2344 
L 263.175072 161.486 
L 263.874187 161.486 
L 264.575115 161.2344 
L 265.276172 161.486 
L 265.974925 161.2344 
L 266.664097 161.2344 
L 267.362959 160.9828 
L 268.764305 160.9828 
L 269.462791 160.7312 
L 274.341487 160.7312 
L 275.041439 160.4796 
L 275.74224 160.4796 
L 276.44055 160.228 
L 277.140423 160.4796 
L 277.839856 160.4796 
L 278.52719 160.228 
L 279.227857 160.228 
L 279.926254 159.9764 
L 280.626973 159.9764 
L 281.326863 160.228 
L 282.024669 159.9764 
L 284.811086 159.9764 
L 285.509373 159.7248 
L 286.909294 159.7248 
L 287.609205 159.4732 
L 288.298205 159.4732 
L 288.996239 159.2216 
L 290.396808 159.2216 
L 291.09564 158.97 
L 291.796464 159.2216 
L 292.49467 158.97 
L 293.884208 158.97 
L 294.58215 158.7184 
L 295.982358 158.7184 
L 296.681836 158.4668 
L 297.370841 158.4668 
L 298.06842 158.2152 
L 298.769208 158.2152 
L 299.469803 158.4668 
L 300.167725 157.9636 
L 300.868611 158.2152 
L 302.255426 157.712 
L 302.956249 157.9636 
L 303.654436 157.712 
L 305.055596 157.712 
L 305.753241 157.4604 
L 307.140243 157.4604 
L 307.839567 157.2088 
L 308.540476 157.2088 
L 309.238704 156.9572 
L 309.939145 156.9572 
L 310.639893 157.2088 
L 311.337591 156.7056 
L 312.025656 156.7056 
L 312.725284 156.9572 
L 313.422446 156.7056 
L 316.218044 156.7056 
L 316.915554 156.454 
L 318.316693 156.454 
L 319.014597 156.2024 
L 320.402827 156.2024 
L 321.101778 155.9508 
L 321.802509 155.9508 
L 322.500995 155.6992 
L 323.889811 155.6992 
L 324.587132 155.4476 
L 325.988337 155.4476 
L 326.685913 155.196 
L 328.086265 155.196 
L 328.784712 154.9444 
L 330.172244 154.9444 
L 330.871692 154.6928 
L 331.572512 154.6928 
L 332.270405 154.4412 
L 332.969646 154.4412 
L 333.670529 154.6928 
L 334.367713 154.1896 
L 335.056596 154.1896 
L 335.757162 154.4412 
L 336.454564 153.938 
L 337.855087 153.938 
L 338.55319 153.6864 
L 339.941059 153.6864 
L 340.63982 153.4348 
L 342.039082 153.4348 
L 342.738453 153.1832 
L 343.439168 153.4348 
L 344.825299 152.9316 
L 345.526096 153.1832 
L 346.92399 152.68 
L 347.624047 152.9316 
L 348.320988 152.68 
L 349.710593 152.68 
L 350.411326 152.4284 
L 351.812151 152.4284 
L 352.50963 152.1768 
L 353.908663 152.1768 
L 354.606812 151.9252 
L 355.304547 151.9252 
L 356.001521 152.1768 
L 356.699916 151.9252 
L 358.087723 151.9252 
L 358.786167 151.6736 
L 360.186094 151.6736 
L 360.883375 151.422 
L 361.584027 151.422 
L 362.272647 151.6736 
L 362.981562 151.1704 
L 363.670477 151.422 
L 364.370698 151.422 
L 365.067651 151.1704 
L 366.46849 151.1704 
L 367.165816 150.9188 
L 368.554688 150.9188 
L 369.252068 150.6672 
L 370.652519 150.6672 
L 371.350155 150.4156 
L 372.751016 150.4156 
L 373.439244 150.164 
L 374.136285 150.164 
L 375.056202 150.4156 
L 375.596999 150.9188 
L 376.384836 151.1704 
L 376.427273 151.422 
L 376.427273 151.422 
" clip-path="url(#pc21c5f2b94)" style="fill: none; stroke: #ff7f0e; stroke-width: 1.5; stroke-linecap: square"/>
   </g>
   <g id="patch_3">
    <path d="M 50.87 303.64 
L 50.87 26.88 
" style="fill: none; stroke: #000000; stroke-width: 0.8; stroke-linejoin: miter; stroke-linecap: square"/>
   </g>
   <g id="patch_4">
    <path d="M 391.93 303.64 
L 391.93 26.88 
" style="fill: none; stroke: #000000; stroke-width: 0.8; stroke-linejoin: miter; stroke-linecap: square"/>
   </g>
   <g id="patch_5">
    <path d="M 50.87 303.64 
L 391.93 303.64 
" style="fill: none; stroke: #000000; stroke-width: 0.8; stroke-linejoin: miter; stroke-linecap: square"/>
   </g>
   <g id="patch_6">
    <path d="M 50.87 26.88 
L 391.93 26.88 
" style="fill: none; stroke: #000000; stroke-width: 0.8; stroke-linejoin: miter; stroke-linecap: square"/>
   </g>
   <g id="legend_1">
    <g id="patch_7">
     <path d="M 57.87 64.23625 
L 142.335625 64.23625 
Q 144.335625 64.23625 144.335625 62.23625 
L 144.335625 33.88 
Q 144.335625 31.88 142.335625 31.88 
L 57.87 31.88 
Q 55.87 31.88 55.87 33.88 
L 55.87 62.23625 
Q 55.87 64.23625 57.87 64.23625 
z
" style="fill: #ffffff; opacity: 0.8; stroke: #cccccc; stroke-linejoin: miter"/>
    </g>
    <g id="line2d_15">
     <path d="M 59.87 39.978437 
L 69.87 39.978437 
L 79.87 39.978437 
" style="fill: none; stroke: #1f77b4; stroke-width: 1.5; stroke-linecap: square"/>
    </g>
    <g id="text_15">
     <!-- pmem (%) -->
     <g transform="translate(87.87 43.478437) scale(0.1 -0.1)">
      <defs>
       <path id="DejaVuSans-28" d="M 1984 4856 
Q 1566 4138 1362 3434 
Q 1159 2731 1159 2009 
Q 1159 1288 1364 580 
Q 1569 -128 1984 -844 
L 1484 -844 
Q 1016 -109 783 600 
Q 550 1309 550 2009 
Q 550 2706 781 3412 
Q 1013 4119 1484 4856 
L 1984 4856 
z
" transform="scale(0.015625)"/>
       <path id="DejaVuSans-25" d="M 4653 2053 
Q 4381 2053 4226 1822 
Q 4072 1591 4072 1178 
Q 4072 772 4226 539 
Q 4381 306 4653 306 
Q 4919 306 5073 539 
Q 5228 772 5228 1178 
Q 5228 1588 5073 1820 
Q 4919 2053 4653 2053 
z
M 4653 2450 
Q 5147 2450 5437 2106 
Q 5728 1763 5728 1178 
Q 5728 594 5436 251 
Q 5144 -91 4653 -91 
Q 4153 -91 3862 251 
Q 3572 594 3572 1178 
Q 3572 1766 3864 2108 
Q 4156 2450 4653 2450 
z
M 1428 4353 
Q 1159 4353 1004 4120 
Q 850 3888 850 3481 
Q 850 3069 1003 2837 
Q 1156 2606 1428 2606 
Q 1700 2606 1854 2837 
Q 2009 3069 2009 3481 
Q 2009 3884 1853 4118 
Q 1697 4353 1428 4353 
z
M 4250 4750 
L 4750 4750 
L 1831 -91 
L 1331 -91 
L 4250 4750 
z
M 1428 4750 
Q 1922 4750 2215 4408 
Q 2509 4066 2509 3481 
Q 2509 2891 2217 2550 
Q 1925 2209 1428 2209 
Q 931 2209 642 2551 
Q 353 2894 353 3481 
Q 353 4063 643 4406 
Q 934 4750 1428 4750 
z
" transform="scale(0.015625)"/>
       <path id="DejaVuSans-29" d="M 513 4856 
L 1013 4856 
Q 1481 4119 1714 3412 
Q 1947 2706 1947 2009 
Q 1947 1309 1714 600 
Q 1481 -109 1013 -844 
L 513 -844 
Q 928 -128 1133 580 
Q 1338 1288 1338 2009 
Q 1338 2731 1133 3434 
Q 928 4138 513 4856 
z
" transform="scale(0.015625)"/>
      </defs>
      <use xlink:href="#DejaVuSans-70"/>
      <use xlink:href="#DejaVuSans-6d" transform="translate(63.476562 0)"/>
      <use xlink:href="#DejaVuSans-65" transform="translate(160.888672 0)"/>
      <use xlink:href="#DejaVuSans-6d" transform="translate(222.412109 0)"/>
      <use xlink:href="#DejaVuSans-20" transform="translate(319.824219 0)"/>
      <use xlink:href="#DejaVuSans-28" transform="translate(351.611328 0)"/>
      <use xlink:href="#DejaVuSans-25" transform="translate(390.625 0)"/>
      <use xlink:href="#DejaVuSans-29" transform="translate(485.644531 0)"/>
     </g>
    </g>
    <g id="line2d_16">
     <path d="M 59.87 54.656563 
L 69.87 54.656563 
L 79.87 54.656563 
" style="fill: none; stroke: #ff7f0e; stroke-width: 1.5; stroke-linecap: square"/>
    </g>
    <g id="text_16">
     <!-- pcpu (%) -->
     <g transform="translate(87.87 58.156563) scale(0.1 -0.1)">
      <defs>
       <path id="DejaVuSans-75" d="M 544 1381 
L 544 3500 
L 1119 3500 
L 1119 1403 
Q 1119 906 1312 657 
Q 1506 409 1894 409 
Q 2359 409 2629 706 
Q 2900 1003 2900 1516 
L 2900 3500 
L 3475 3500 
L 3475 0 
L 2900 0 
L 2900 538 
Q 2691 219 2414 64 
Q 2138 -91 1772 -91 
Q 1169 -91 856 284 
Q 544 659 544 1381 
z
M 1991 3584 
L 1991 3584 
z
" transform="scale(0.015625)"/>
      </defs>
      <use xlink:href="#DejaVuSans-70"/>
      <use xlink:href="#DejaVuSans-63" transform="translate(63.476562 0)"/>
      <use xlink:href="#DejaVuSans-70" transform="translate(118.457031 0)"/>
      <use xlink:href="#DejaVuSans-75" transform="translate(181.933594 0)"/>
      <use xlink:href="#DejaVuSans-20" transform="translate(245.3125 0)"/>
      <use xlink:href="#DejaVuSans-28" transform="translate(277.099609 0)"/>
      <use xlink:href="#DejaVuSans-25" transform="translate(316.113281 0)"/>
      <use xlink:href="#DejaVuSans-29" transform="translate(411.132812 0)"/>
     </g>
    </g>
   </g>
  </g>
  <g id="axes_2">
   <g id="matplotlib.axis_3">
    <g id="ytick_7">
     <g id="line2d_17">
      <defs>
       <path id="m2791fac72d" d="M 0 0 
L 3.5 0 
" style="stroke: #000000; stroke-width: 0.8"/>
      </defs>
      <g>
       <use xlink:href="#m2791fac72d" x="391.93" y="291.06" style="stroke: #000000; stroke-width: 0.8"/>
      </g>
     </g>
     <g id="text_17">
      <!-- 0.0GB -->
      <g transform="translate(398.93 294.859219) scale(0.1 -0.1)">
       <defs>
        <path id="DejaVuSans-47" d="M 3809 666 
L 3809 1919 
L 2778 1919 
L 2778 2438 
L 4434 2438 
L 4434 434 
Q 4069 175 3628 42 
Q 3188 -91 2688 -91 
Q 1594 -91 976 548 
Q 359 1188 359 2328 
Q 359 3472 976 4111 
Q 1594 4750 2688 4750 
Q 3144 4750 3555 4637 
Q 3966 4525 4313 4306 
L 4313 3634 
Q 3963 3931 3569 4081 
Q 3175 4231 2741 4231 
Q 1884 4231 1454 3753 
Q 1025 3275 1025 2328 
Q 1025 1384 1454 906 
Q 1884 428 2741 428 
Q 3075 428 3337 486 
Q 3600 544 3809 666 
z
" transform="scale(0.015625)"/>
        <path id="DejaVuSans-42" d="M 1259 2228 
L 1259 519 
L 2272 519 
Q 2781 519 3026 730 
Q 3272 941 3272 1375 
Q 3272 1813 3026 2020 
Q 2781 2228 2272 2228 
L 1259 2228 
z
M 1259 4147 
L 1259 2741 
L 2194 2741 
Q 2656 2741 2882 2914 
Q 3109 3088 3109 3444 
Q 3109 3797 2882 3972 
Q 2656 4147 2194 4147 
L 1259 4147 
z
M 628 4666 
L 2241 4666 
Q 2963 4666 3353 4366 
Q 3744 4066 3744 3513 
Q 3744 3084 3544 2831 
Q 3344 2578 2956 2516 
Q 3422 2416 3680 2098 
Q 3938 1781 3938 1306 
Q 3938 681 3513 340 
Q 3088 0 2303 0 
L 628 0 
L 628 4666 
z
" transform="scale(0.015625)"/>
       </defs>
       <use xlink:href="#DejaVuSans-30"/>
       <use xlink:href="#DejaVuSans-2e" transform="translate(63.623047 0)"/>
       <use xlink:href="#DejaVuSans-30" transform="translate(95.410156 0)"/>
       <use xlink:href="#DejaVuSans-47" transform="translate(159.033203 0)"/>
       <use xlink:href="#DejaVuSans-42" transform="translate(236.523438 0)"/>
      </g>
     </g>
    </g>
    <g id="ytick_8">
     <g id="line2d_18">
      <g>
       <use xlink:href="#m2791fac72d" x="391.93" y="258.14893" style="stroke: #000000; stroke-width: 0.8"/>
      </g>
     </g>
     <g id="text_18">
      <!-- 9.3GB -->
      <g transform="translate(398.93 261.948148) scale(0.1 -0.1)">
       <defs>
        <path id="DejaVuSans-33" d="M 2597 2516 
Q 3050 2419 3304 2112 
Q 3559 1806 3559 1356 
Q 3559 666 3084 287 
Q 2609 -91 1734 -91 
Q 1441 -91 1130 -33 
Q 819 25 488 141 
L 488 750 
Q 750 597 1062 519 
Q 1375 441 1716 441 
Q 2309 441 2620 675 
Q 2931 909 2931 1356 
Q 2931 1769 2642 2001 
Q 2353 2234 1838 2234 
L 1294 2234 
L 1294 2753 
L 1863 2753 
Q 2328 2753 2575 2939 
Q 2822 3125 2822 3475 
Q 2822 3834 2567 4026 
Q 2313 4219 1838 4219 
Q 1578 4219 1281 4162 
Q 984 4106 628 3988 
L 628 4550 
Q 988 4650 1302 4700 
Q 1616 4750 1894 4750 
Q 2613 4750 3031 4423 
Q 3450 4097 3450 3541 
Q 3450 3153 3228 2886 
Q 3006 2619 2597 2516 
z
" transform="scale(0.015625)"/>
       </defs>
       <use xlink:href="#DejaVuSans-39"/>
       <use xlink:href="#DejaVuSans-2e" transform="translate(63.623047 0)"/>
       <use xlink:href="#DejaVuSans-33" transform="translate(95.410156 0)"/>
       <use xlink:href="#DejaVuSans-47" transform="translate(159.033203 0)"/>
       <use xlink:href="#DejaVuSans-42" transform="translate(236.523438 0)"/>
      </g>
     </g>
    </g>
    <g id="ytick_9">
     <g id="line2d_19">
      <g>
       <use xlink:href="#m2791fac72d" x="391.93" y="225.237859" style="stroke: #000000; stroke-width: 0.8"/>
      </g>
     </g>
     <g id="text_19">
      <!-- 18.6GB -->
      <g transform="translate(398.93 229.037078) scale(0.1 -0.1)">
       <use xlink:href="#DejaVuSans-31"/>
       <use xlink:href="#DejaVuSans-38" transform="translate(63.623047 0)"/>
       <use xlink:href="#DejaVuSans-2e" transform="translate(127.246094 0)"/>
       <use xlink:href="#DejaVuSans-36" transform="translate(159.033203 0)"/>
       <use xlink:href="#DejaVuSans-47" transform="translate(222.65625 0)"/>
       <use xlink:href="#DejaVuSans-42" transform="translate(300.146484 0)"/>
      </g>
     </g>
    </g>
    <g id="ytick_10">
     <g id="line2d_20">
      <g>
       <use xlink:href="#m2791fac72d" x="391.93" y="192.326789" style="stroke: #000000; stroke-width: 0.8"/>
      </g>
     </g>
     <g id="text_20">
      <!-- 27.9GB -->
      <g transform="translate(398.93 196.126008) scale(0.1 -0.1)">
       <defs>
        <path id="DejaVuSans-37" d="M 525 4666 
L 3525 4666 
L 3525 4397 
L 1831 0 
L 1172 0 
L 2766 4134 
L 525 4134 
L 525 4666 
z
" transform="scale(0.015625)"/>
       </defs>
       <use xlink:href="#DejaVuSans-32"/>
       <use xlink:href="#DejaVuSans-37" transform="translate(63.623047 0)"/>
       <use xlink:href="#DejaVuSans-2e" transform="translate(127.246094 0)"/>
       <use xlink:href="#DejaVuSans-39" transform="translate(159.033203 0)"/>
       <use xlink:href="#DejaVuSans-47" transform="translate(222.65625 0)"/>
       <use xlink:href="#DejaVuSans-42" transform="translate(300.146484 0)"/>
      </g>
     </g>
    </g>
    <g id="ytick_11">
     <g id="line2d_21">
      <g>
       <use xlink:href="#m2791fac72d" x="391.93" y="159.415718" style="stroke: #000000; stroke-width: 0.8"/>
      </g>
     </g>
     <g id="text_21">
      <!-- 37.3GB -->
      <g transform="translate(398.93 163.214937) scale(0.1 -0.1)">
       <use xlink:href="#DejaVuSans-33"/>
       <use xlink:href="#DejaVuSans-37" transform="translate(63.623047 0)"/>
       <use xlink:href="#DejaVuSans-2e" transform="translate(127.246094 0)"/>
       <use xlink:href="#DejaVuSans-33" transform="translate(159.033203 0)"/>
       <use xlink:href="#DejaVuSans-47" transform="translate(222.65625 0)"/>
       <use xlink:href="#DejaVuSans-42" transform="translate(300.146484 0)"/>
      </g>
     </g>
    </g>
    <g id="ytick_12">
     <g id="line2d_22">
      <g>
       <use xlink:href="#m2791fac72d" x="391.93" y="126.504648" style="stroke: #000000; stroke-width: 0.8"/>
      </g>
     </g>
     <g id="text_22">
      <!-- 46.6GB -->
      <g transform="translate(398.93 130.303867) scale(0.1 -0.1)">
       <use xlink:href="#DejaVuSans-34"/>
       <use xlink:href="#DejaVuSans-36" transform="translate(63.623047 0)"/>
       <use xlink:href="#DejaVuSans-2e" transform="translate(127.246094 0)"/>
       <use xlink:href="#DejaVuSans-36" transform="translate(159.033203 0)"/>
       <use xlink:href="#DejaVuSans-47" transform="translate(222.65625 0)"/>
       <use xlink:href="#DejaVuSans-42" transform="translate(300.146484 0)"/>
      </g>
     </g>
    </g>
    <g id="ytick_13">
     <g id="line2d_23">
      <g>
       <use xlink:href="#m2791fac72d" x="391.93" y="93.593578" style="stroke: #000000; stroke-width: 0.8"/>
      </g>
     </g>
     <g id="text_23">
      <!-- 55.9GB -->
      <g transform="translate(398.93 97.392796) scale(0.1 -0.1)">
       <use xlink:href="#DejaVuSans-35"/>
       <use xlink:href="#DejaVuSans-35" transform="translate(63.623047 0)"/>
       <use xlink:href="#DejaVuSans-2e" transform="translate(127.246094 0)"/>
       <use xlink:href="#DejaVuSans-39" transform="translate(159.033203 0)"/>
       <use xlink:href="#DejaVuSans-47" transform="translate(222.65625 0)"/>
       <use xlink:href="#DejaVuSans-42" transform="translate(300.146484 0)"/>
      </g>
     </g>
    </g>
    <g id="ytick_14">
     <g id="line2d_24">
      <g>
       <use xlink:href="#m2791fac72d" x="391.93" y="60.682507" style="stroke: #000000; stroke-width: 0.8"/>
      </g>
     </g>
     <g id="text_24">
      <!-- 65.2GB -->
      <g transform="translate(398.93 64.481726) scale(0.1 -0.1)">
       <use xlink:href="#DejaVuSans-36"/>
       <use xlink:href="#DejaVuSans-35" transform="translate(63.623047 0)"/>
       <use xlink:href="#DejaVuSans-2e" transform="translate(127.246094 0)"/>
       <use xlink:href="#DejaVuSans-32" transform="translate(159.033203 0)"/>
       <use xlink:href="#DejaVuSans-47" transform="translate(222.65625 0)"/>
       <use xlink:href="#DejaVuSans-42" transform="translate(300.146484 0)"/>
      </g>
     </g>
    </g>
    <g id="ytick_15">
     <g id="line2d_25">
      <g>
       <use xlink:href="#m2791fac72d" x="391.93" y="27.771437" style="stroke: #000000; stroke-width: 0.8"/>
      </g>
     </g>
     <g id="text_25">
      <!-- 74.5GB -->
      <g transform="translate(398.93 31.570656) scale(0.1 -0.1)">
       <use xlink:href="#DejaVuSans-37"/>
       <use xlink:href="#DejaVuSans-34" transform="translate(63.623047 0)"/>
       <use xlink:href="#DejaVuSans-2e" transform="translate(127.246094 0)"/>
       <use xlink:href="#DejaVuSans-35" transform="translate(159.033203 0)"/>
       <use xlink:href="#DejaVuSans-47" transform="translate(222.65625 0)"/>
       <use xlink:href="#DejaVuSans-42" transform="translate(300.146484 0)"/>
      </g>
     </g>
    </g>
    <g id="text_26">
     <!-- Memory -->
     <g transform="translate(447.403438 185.595156) rotate(-90) scale(0.1 -0.1)">
      <defs>
       <path id="DejaVuSans-4d" d="M 628 4666 
L 1569 4666 
L 2759 1491 
L 3956 4666 
L 4897 4666 
L 4897 0 
L 4281 0 
L 4281 4097 
L 3078 897 
L 2444 897 
L 1241 4097 
L 1241 0 
L 628 0 
L 628 4666 
z
" transform="scale(0.015625)"/>
       <path id="DejaVuSans-6f" d="M 1959 3097 
Q 1497 3097 1228 2736 
Q 959 2375 959 1747 
Q 959 1119 1226 758 
Q 1494 397 1959 397 
Q 2419 397 2687 759 
Q 2956 1122 2956 1747 
Q 2956 2369 2687 2733 
Q 2419 3097 1959 3097 
z
M 1959 3584 
Q 2709 3584 3137 3096 
Q 3566 2609 3566 1747 
Q 3566 888 3137 398 
Q 2709 -91 1959 -91 
Q 1206 -91 779 398 
Q 353 888 353 1747 
Q 353 2609 779 3096 
Q 1206 3584 1959 3584 
z
" transform="scale(0.015625)"/>
       <path id="DejaVuSans-79" d="M 2059 -325 
Q 1816 -950 1584 -1140 
Q 1353 -1331 966 -1331 
L 506 -1331 
L 506 -850 
L 844 -850 
Q 1081 -850 1212 -737 
Q 1344 -625 1503 -206 
L 1606 56 
L 191 3500 
L 800 3500 
L 1894 763 
L 2988 3500 
L 3597 3500 
L 2059 -325 
z
" transform="scale(0.015625)"/>
      </defs>
      <use xlink:href="#DejaVuSans-4d"/>
      <use xlink:href="#DejaVuSans-65" transform="translate(86.279297 0)"/>
      <use xlink:href="#DejaVuSans-6d" transform="translate(147.802734 0)"/>
      <use xlink:href="#DejaVuSans-6f" transform="translate(245.214844 0)"/>
      <use xlink:href="#DejaVuSans-72" transform="translate(306.396484 0)"/>
      <use xlink:href="#DejaVuSans-79" transform="translate(347.509766 0)"/>
     </g>
    </g>
   </g>
   <g id="line2d_26">
    <path d="M 66.372727 291.00349 
L 67.073261 290.549498 
L 71.265069 290.548325 
L 74.055435 290.591476 
L 78.246766 290.545131 
L 81.737437 290.542772 
L 90.808875 290.553273 
L 93.595771 290.559609 
L 107.553953 290.54509 
L 109.643851 290.565001 
L 127.098352 290.555254 
L 148.02454 290.548204 
L 149.426112 288.384348 
L 150.827332 285.956991 
L 152.216941 283.975821 
L 152.917788 282.754607 
L 153.618646 281.292593 
L 154.307574 280.547613 
L 155.008461 279.564449 
L 155.709431 277.715184 
L 157.09925 275.419166 
L 157.799995 274.828618 
L 158.500891 273.943011 
L 159.89068 270.939368 
L 160.59139 269.933544 
L 161.292398 269.179937 
L 161.993334 267.488096 
L 162.682258 267.452723 
L 163.38309 265.270844 
L 164.083809 263.698493 
L 164.78468 263.406023 
L 165.472759 260.772066 
L 166.173483 260.74834 
L 166.873859 258.68653 
L 167.574684 258.519589 
L 168.963871 256.728533 
L 169.664627 256.682376 
L 170.365083 255.060417 
L 171.054015 255.037986 
L 171.754348 254.112693 
L 172.454837 254.087242 
L 173.155135 251.542579 
L 173.856015 251.519716 
L 174.544354 250.834266 
L 175.245095 250.810972 
L 175.945327 249.231719 
L 176.64598 249.207562 
L 177.346308 247.550663 
L 178.035046 247.526937 
L 178.73526 247.044232 
L 179.434124 247.017487 
L 180.134243 243.172493 
L 182.925145 243.068101 
L 183.625195 241.651044 
L 184.314127 241.629476 
L 185.014207 240.032968 
L 185.715006 240.010536 
L 186.414973 238.683636 
L 187.115669 238.660774 
L 187.813222 235.543248 
L 188.510943 235.515209 
L 189.199142 232.890742 
L 192.001732 232.781173 
L 192.689802 231.691528 
L 193.390494 231.667802 
L 194.090671 230.480667 
L 194.79145 230.458667 
L 195.491325 229.848275 
L 196.180188 229.82455 
L 196.880116 227.440788 
L 197.580965 227.420082 
L 198.969705 227.056436 
L 199.670346 226.556476 
L 200.370195 224.6524 
L 201.070998 224.629106 
L 201.770801 223.479931 
L 202.4598 223.457499 
L 203.159434 222.032678 
L 203.86003 222.009384 
L 204.559806 219.7929 
L 205.949344 219.671685 
L 206.64938 218.287412 
L 207.349254 218.262824 
L 208.048856 216.395414 
L 208.749643 216.37212 
L 209.437443 214.915808 
L 210.138235 214.892514 
L 210.837968 214.081535 
L 212.239055 214.03279 
L 212.927154 212.770596 
L 213.627905 212.749027 
L 214.327317 210.87601 
L 215.028088 210.852716 
L 215.727647 209.086679 
L 216.416534 209.062091 
L 217.116207 207.293897 
L 218.513545 206.491545 
L 219.213047 203.750607 
L 221.302312 203.66347 
L 222.0016 202.331825 
L 223.402893 202.286531 
L 224.102565 201.023042 
L 224.791479 200.999748 
L 225.490787 198.826065 
L 226.191519 198.802771 
L 226.890846 196.752891 
L 227.591687 196.730028 
L 228.29114 196.570421 
L 228.979079 194.57058 
L 229.676596 194.541678 
L 230.375029 192.455132 
L 231.075818 192.432269 
L 231.775062 192.106584 
L 233.176294 192.056544 
L 233.863895 190.193017 
L 234.564677 190.169292 
L 235.263354 188.075412 
L 235.963932 188.051256 
L 236.663361 186.762316 
L 237.363934 186.434473 
L 238.053035 186.411179 
L 238.752247 185.087595 
L 239.453116 185.064733 
L 240.152241 183.988459 
L 240.852993 183.965165 
L 241.541157 183.497127 
L 242.241008 181.742306 
L 242.941977 181.717286 
L 243.640991 179.637642 
L 244.341872 179.613485 
L 245.029157 178.834858 
L 245.729874 178.541957 
L 246.430613 178.516074 
L 247.129668 175.529255 
L 247.828919 175.503373 
L 248.526339 172.664514 
L 249.914896 172.59722 
L 250.61462 172.438475 
L 251.315609 172.415612 
L 252.014664 171.646907 
L 252.715479 171.624044 
L 253.403248 171.332437 
L 254.10329 169.661733 
L 254.80409 169.639733 
L 255.502832 167.912951 
L 256.203456 167.889226 
L 256.902762 166.438953 
L 257.591207 165.530915 
L 258.291906 165.506758 
L 258.99089 164.986092 
L 259.691841 164.961504 
L 260.390964 162.114018 
L 261.088481 161.626567 
L 261.789112 161.601979 
L 262.476062 158.298964 
L 263.874187 158.22865 
L 264.575115 158.047905 
L 265.276172 158.024611 
L 265.974925 156.059712 
L 266.664097 156.035986 
L 267.362959 154.834184 
L 268.063454 154.385126 
L 268.764305 154.361832 
L 269.462791 153.303245 
L 270.162356 153.277794 
L 270.861163 151.073483 
L 271.558144 150.31168 
L 272.255089 150.282347 
L 272.953272 145.783569 
L 275.74224 145.670118 
L 276.44055 145.161099 
L 277.140423 145.134785 
L 277.839856 144.865609 
L 278.52719 142.528058 
L 279.227857 142.503901 
L 279.926254 141.160178 
L 281.326863 141.097197 
L 282.024669 139.696964 
L 282.722717 139.668925 
L 283.421103 136.013047 
L 284.811086 135.928067 
L 285.509373 135.275832 
L 286.909294 135.221911 
L 287.609205 134.429049 
L 288.298205 134.405755 
L 288.996239 132.563433 
L 290.396808 132.524609 
L 291.09564 131.97461 
L 291.796464 131.95261 
L 292.49467 130.529945 
L 293.183426 130.307357 
L 293.884208 130.291396 
L 294.58215 129.037829 
L 295.982358 128.99081 
L 296.681836 127.184224 
L 297.370841 127.16093 
L 298.06842 124.785796 
L 299.469803 124.728855 
L 300.167725 122.610387 
L 300.868611 122.588387 
L 301.56788 122.23725 
L 302.255426 119.564469 
L 302.956249 119.539881 
L 303.654436 118.256118 
L 305.055596 118.199177 
L 305.753241 116.46463 
L 306.452603 116.437454 
L 307.140243 115.561337 
L 307.839567 112.569773 
L 309.238704 112.518008 
L 309.939145 112.277303 
L 310.639893 112.25444 
L 311.337591 110.552246 
L 312.725284 110.504364 
L 313.422446 108.646445 
L 314.119652 108.618405 
L 314.817455 105.964174 
L 315.517233 104.234372 
L 318.316693 104.122647 
L 319.014597 101.792807 
L 320.402827 101.744924 
L 321.101778 99.678652 
L 322.500995 99.627751 
L 323.200919 98.18136 
L 323.889811 98.158066 
L 324.587132 96.401519 
L 325.988337 96.362265 
L 326.685913 95.219398 
L 327.386711 95.988103 
L 328.086265 95.961358 
L 328.784712 93.690185 
L 330.172244 93.639283 
L 330.871692 91.989285 
L 331.572512 91.966422 
L 332.270405 90.989365 
L 332.969646 90.876777 
L 333.670529 91.788266 
L 334.367713 90.771522 
L 335.056596 91.115325 
L 335.757162 91.08858 
L 336.454564 89.29321 
L 337.855087 89.243171 
L 338.55319 87.371017 
L 339.941059 87.32184 
L 340.63982 86.362995 
L 341.340692 87.198562 
L 342.039082 87.18217 
L 342.738453 86.331936 
L 343.439168 86.719739 
L 344.137175 87.544954 
L 344.825299 87.536758 
L 345.526096 88.13162 
L 346.223699 89.07805 
L 346.92399 88.733896 
L 347.624047 88.721818 
L 348.320988 87.862093 
L 349.021836 88.010485 
L 350.411326 87.980289 
L 351.112187 88.478524 
L 351.812151 89.591032 
L 353.210428 89.550915 
L 354.606812 88.918092 
L 355.304547 89.52115 
L 356.001521 90.571972 
L 356.699916 89.10617 
L 357.388729 89.225229 
L 360.186094 89.166993 
L 360.883375 92.419107 
L 362.272647 92.361303 
L 362.981562 88.541706 
L 364.370698 88.492813 
L 365.067651 87.299382 
L 366.46849 87.253319 
L 367.165816 85.951857 
L 368.554688 85.906509 
L 369.252068 83.686669 
L 370.652519 83.639083 
L 371.350155 81.107792 
L 372.751016 81.054733 
L 373.439244 78.647718 
L 376.384836 78.644267 
L 376.427273 291.06 
L 376.427273 291.06 
" clip-path="url(#pc21c5f2b94)" style="fill: none; stroke: #2ca02c; stroke-width: 1.5; stroke-linecap: square"/>
   </g>
   <g id="line2d_27">
    <path d="M 66.372727 286.61672 
L 67.073261 285.896235 
L 74.055435 285.895156 
L 74.756041 285.646673 
L 148.02454 285.646457 
L 148.72535 284.70399 
L 151.51615 280.236648 
L 152.216941 279.29042 
L 153.618646 276.472496 
L 154.307574 275.765221 
L 155.008461 274.822404 
L 155.709431 272.944965 
L 157.09925 270.592599 
L 157.799995 270.114612 
L 158.500891 269.180422 
L 159.201799 267.774284 
L 159.89068 266.131525 
L 160.59139 265.175713 
L 161.292398 264.475987 
L 161.993334 262.601137 
L 162.682258 262.587117 
L 163.38309 260.485783 
L 164.083809 258.836985 
L 164.78468 258.604246 
L 165.472759 256.022552 
L 166.173483 256.022552 
L 166.873859 253.894284 
L 167.574684 253.663702 
L 168.263591 252.941114 
L 168.963871 252.012747 
L 169.664627 251.770303 
L 170.365083 250.369773 
L 171.054015 250.13725 
L 171.754348 249.20306 
L 172.454837 249.20155 
L 173.155135 246.637327 
L 173.856015 246.637327 
L 174.544354 245.93264 
L 175.245095 245.93264 
L 175.945327 244.526287 
L 176.64598 244.298293 
L 177.346308 242.666534 
L 178.035046 242.666534 
L 178.73526 242.198037 
L 179.434124 242.198037 
L 180.134243 238.44374 
L 180.835101 238.44374 
L 181.523936 238.206256 
L 182.925145 238.195903 
L 183.625195 236.800334 
L 184.314127 236.800334 
L 185.014207 235.174183 
L 185.715006 235.174183 
L 186.414973 233.775594 
L 187.115669 233.775594 
L 187.813222 230.738128 
L 188.510943 230.738128 
L 189.199142 228.157729 
L 189.899948 228.157729 
L 190.600297 227.914637 
L 192.001732 227.91399 
L 192.689802 226.981957 
L 193.390494 226.753963 
L 194.090671 225.592427 
L 194.79145 225.592427 
L 195.491325 225.126087 
L 196.180188 225.126087 
L 196.880116 222.569628 
L 197.580965 222.569628 
L 198.280868 222.334948 
L 198.969705 222.33236 
L 199.670346 221.628752 
L 200.370195 219.771803 
L 201.070998 219.770294 
L 201.770801 218.602502 
L 202.4598 218.602502 
L 203.159434 217.199384 
L 203.86003 217.199384 
L 204.559806 215.064618 
L 205.260683 214.836625 
L 205.949344 214.822605 
L 206.64938 213.432212 
L 207.349254 213.422291 
L 208.048856 211.559303 
L 208.749643 211.559303 
L 209.437443 210.154028 
L 210.138235 210.154028 
L 210.837968 209.219191 
L 212.239055 209.21574 
L 212.927154 208.054204 
L 213.627905 207.82621 
L 214.327317 205.964301 
L 215.028088 205.964301 
L 215.727647 204.329091 
L 216.416534 204.329091 
L 217.116207 202.458338 
L 217.813778 202.22258 
L 218.513545 201.735966 
L 219.213047 198.95216 
L 221.302312 198.934043 
L 222.0016 197.536964 
L 223.402893 197.536101 
L 224.102565 196.145708 
L 224.791479 196.145708 
L 225.490787 194.05257 
L 226.191519 194.05257 
L 226.890846 191.949079 
L 227.591687 191.949079 
L 228.29114 191.701889 
L 228.979079 189.842568 
L 229.676596 189.828764 
L 230.375029 187.731097 
L 231.075818 187.731097 
L 231.775062 187.25807 
L 233.176294 187.253757 
L 233.863895 185.398749 
L 234.564677 185.398749 
L 235.263354 183.302807 
L 235.963932 183.302807 
L 236.663361 181.900767 
L 237.363934 181.666735 
L 238.053035 181.653578 
L 238.752247 180.214453 
L 239.453116 180.214453 
L 240.152241 179.050113 
L 240.852993 179.050113 
L 241.541157 178.579891 
L 242.241008 176.95374 
L 242.941977 176.948779 
L 243.640991 174.851974 
L 244.341872 174.851974 
L 245.029157 173.91498 
L 245.729874 173.680947 
L 246.430613 173.668222 
L 247.129668 170.650815 
L 247.828919 170.648011 
L 248.526339 167.843932 
L 249.914896 167.82452 
L 250.61462 167.593938 
L 251.315609 167.593938 
L 252.014664 166.88731 
L 252.715479 166.88731 
L 253.403248 166.427009 
L 254.10329 164.797407 
L 254.80409 164.797407 
L 255.502832 163.170394 
L 256.203456 162.9424 
L 256.902762 161.539498 
L 257.591207 160.611131 
L 258.291906 160.601641 
L 258.99089 160.13185 
L 259.691841 160.13185 
L 260.390964 157.335319 
L 261.088481 156.869842 
L 261.789112 156.84892 
L 262.476062 153.369272 
L 263.874187 153.349644 
L 264.575115 153.119063 
L 265.276172 153.104827 
L 265.974925 151.244212 
L 266.664097 151.244212 
L 267.362959 150.078793 
L 268.063454 149.614179 
L 268.764305 149.611375 
L 269.462791 148.451779 
L 270.162356 148.451779 
L 270.861163 146.35023 
L 271.558144 145.423589 
L 272.255089 145.40353 
L 272.953272 140.987103 
L 275.041439 140.962946 
L 275.74224 140.732149 
L 276.44055 140.261711 
L 277.140423 140.261711 
L 277.839856 140.028541 
L 278.52719 137.707193 
L 279.227857 137.707193 
L 279.926254 136.313349 
L 281.326863 136.297173 
L 282.024669 134.904192 
L 282.722717 134.904192 
L 283.421103 131.179295 
L 284.811086 131.159883 
L 285.509373 130.465118 
L 286.909294 130.457353 
L 287.609205 129.297542 
L 288.298205 129.295817 
L 288.996239 126.431467 
L 289.69697 126.431467 
L 290.396808 126.199591 
L 291.09564 125.501806 
L 291.796464 125.501806 
L 292.49467 123.869616 
L 293.183426 123.636446 
L 293.884208 123.628897 
L 294.58215 122.234622 
L 295.982358 122.229445 
L 296.681836 120.371849 
L 297.370841 120.368614 
L 298.06842 117.806548 
L 299.469803 117.792528 
L 300.167725 115.702625 
L 301.56788 115.217089 
L 302.255426 112.660846 
L 302.956249 112.420343 
L 303.654436 111.248022 
L 305.055596 111.237238 
L 305.753241 109.38223 
L 306.452603 109.38223 
L 307.140243 108.664387 
L 307.839567 105.645255 
L 308.540476 105.645039 
L 309.939145 105.17417 
L 310.639893 105.161013 
L 311.337591 103.533568 
L 312.725284 103.52947 
L 313.422446 101.672737 
L 314.119652 101.672737 
L 314.817455 98.876422 
L 315.517233 97.248545 
L 318.316693 97.220506 
L 319.014597 94.898727 
L 319.703482 94.670734 
L 320.402827 94.658655 
L 321.101778 92.570478 
L 322.500995 92.565301 
L 323.200919 91.17232 
L 323.889811 91.157222 
L 324.587132 89.296823 
L 325.988337 89.293803 
L 326.685913 87.670241 
L 328.086265 87.658378 
L 328.784712 85.337893 
L 330.172244 85.327756 
L 330.871692 83.702468 
L 331.572512 83.697507 
L 332.969646 81.138244 
L 333.670529 81.125303 
L 334.367713 78.564315 
L 335.056596 78.564315 
L 335.757162 78.317125 
L 336.454564 76.457804 
L 337.855087 76.441196 
L 338.55319 74.584464 
L 339.941059 74.569797 
L 340.63982 72.48162 
L 342.039082 72.472776 
L 342.738453 70.851802 
L 343.439168 70.851586 
L 344.137175 70.376834 
L 344.825299 68.985579 
L 345.526096 68.981696 
L 346.223699 67.582245 
L 346.92399 67.118493 
L 347.624047 67.109434 
L 348.320988 64.556858 
L 349.710593 64.539172 
L 350.411326 64.074557 
L 353.210428 64.074557 
L 353.908663 63.379361 
L 354.606812 57.807437 
L 356.001521 57.783496 
L 356.699916 53.375696 
L 360.883375 53.320912 
L 362.272647 53.320912 
L 362.981562 49.375139 
L 364.370698 49.373413 
L 365.067651 48.213602 
L 366.46849 48.195701 
L 367.165816 46.698193 
L 368.554688 46.684604 
L 369.252068 44.590388 
L 369.952681 44.362394 
L 370.652519 44.358296 
L 371.350155 41.805504 
L 372.751016 41.78221 
L 373.439244 39.46 
L 376.384836 39.46 
L 376.427273 291.06 
L 376.427273 291.06 
" clip-path="url(#pc21c5f2b94)" style="fill: none; stroke: #d62728; stroke-width: 1.5; stroke-linecap: square"/>
   </g>
   <g id="patch_8">
    <path d="M 50.87 303.64 
L 50.87 26.88 
" style="fill: none; stroke: #000000; stroke-width: 0.8; stroke-linejoin: miter; stroke-linecap: square"/>
   </g>
   <g id="patch_9">
    <path d="M 391.93 303.64 
L 391.93 26.88 
" style="fill: none; stroke: #000000; stroke-width: 0.8; stroke-linejoin: miter; stroke-linecap: square"/>
   </g>
   <g id="patch_10">
    <path d="M 50.87 303.64 
L 391.93 303.64 
" style="fill: none; stroke: #000000; stroke-width: 0.8; stroke-linejoin: miter; stroke-linecap: square"/>
   </g>
   <g id="patch_11">
    <path d="M 50.87 26.88 
L 391.93 26.88 
" style="fill: none; stroke: #000000; stroke-width: 0.8; stroke-linejoin: miter; stroke-linecap: square"/>
   </g>
   <g id="text_27">
    <!-- Resource Usage Over Time -->
    <g transform="translate(140.35875 20.88) scale(0.12 -0.12)">
     <defs>
      <path id="DejaVuSans-52" d="M 2841 2188 
Q 3044 2119 3236 1894 
Q 3428 1669 3622 1275 
L 4263 0 
L 3584 0 
L 2988 1197 
Q 2756 1666 2539 1819 
Q 2322 1972 1947 1972 
L 1259 1972 
L 1259 0 
L 628 0 
L 628 4666 
L 2053 4666 
Q 2853 4666 3247 4331 
Q 3641 3997 3641 3322 
Q 3641 2881 3436 2590 
Q 3231 2300 2841 2188 
z
M 1259 4147 
L 1259 2491 
L 2053 2491 
Q 2509 2491 2742 2702 
Q 2975 2913 2975 3322 
Q 2975 3731 2742 3939 
Q 2509 4147 2053 4147 
L 1259 4147 
z
" transform="scale(0.015625)"/>
      <path id="DejaVuSans-55" d="M 556 4666 
L 1191 4666 
L 1191 1831 
Q 1191 1081 1462 751 
Q 1734 422 2344 422 
Q 2950 422 3222 751 
Q 3494 1081 3494 1831 
L 3494 4666 
L 4128 4666 
L 4128 1753 
Q 4128 841 3676 375 
Q 3225 -91 2344 -91 
Q 1459 -91 1007 375 
Q 556 841 556 1753 
L 556 4666 
z
" transform="scale(0.015625)"/>
      <path id="DejaVuSans-4f" d="M 2522 4238 
Q 1834 4238 1429 3725 
Q 1025 3213 1025 2328 
Q 1025 1447 1429 934 
Q 1834 422 2522 422 
Q 3209 422 3611 934 
Q 4013 1447 4013 2328 
Q 4013 3213 3611 3725 
Q 3209 4238 2522 4238 
z
M 2522 4750 
Q 3503 4750 4090 4092 
Q 4678 3434 4678 2328 
Q 4678 1225 4090 567 
Q 3503 -91 2522 -91 
Q 1538 -91 948 565 
Q 359 1222 359 2328 
Q 359 3434 948 4092 
Q 1538 4750 2522 4750 
z
" transform="scale(0.015625)"/>
      <path id="DejaVuSans-76" d="M 191 3500 
L 800 3500 
L 1894 563 
L 2988 3500 
L 3597 3500 
L 2284 0 
L 1503 0 
L 191 3500 
z
" transform="scale(0.015625)"/>
     </defs>
     <use xlink:href="#DejaVuSans-52"/>
     <use xlink:href="#DejaVuSans-65" transform="translate(64.982422 0)"/>
     <use xlink:href="#DejaVuSans-73" transform="translate(126.505859 0)"/>
     <use xlink:href="#DejaVuSans-6f" transform="translate(178.605469 0)"/>
     <use xlink:href="#DejaVuSans-75" transform="translate(239.787109 0)"/>
     <use xlink:href="#DejaVuSans-72" transform="translate(303.166016 0)"/>
     <use xlink:href="#DejaVuSans-63" transform="translate(342.029297 0)"/>
     <use xlink:href="#DejaVuSans-65" transform="translate(397.009766 0)"/>
     <use xlink:href="#DejaVuSans-20" transform="translate(458.533203 0)"/>
     <use xlink:href="#DejaVuSans-55" transform="translate(490.320312 0)"/>
     <use xlink:href="#DejaVuSans-73" transform="translate(563.513672 0)"/>
     <use xlink:href="#DejaVuSans-61" transform="translate(615.613281 0)"/>
     <use xlink:href="#DejaVuSans-67" transform="translate(676.892578 0)"/>
     <use xlink:href="#DejaVuSans-65" transform="translate(740.369141 0)"/>
     <use xlink:href="#DejaVuSans-20" transform="translate(801.892578 0)"/>
     <use xlink:href="#DejaVuSans-4f" transform="translate(833.679688 0)"/>
     <use xlink:href="#DejaVuSans-76" transform="translate(912.390625 0)"/>
     <use xlink:href="#DejaVuSans-65" transform="translate(971.570312 0)"/>
     <use xlink:href="#DejaVuSans-72" transform="translate(1033.09375 0)"/>
     <use xlink:href="#DejaVuSans-20" transform="translate(1074.207031 0)"/>
     <use xlink:href="#DejaVuSans-54" transform="translate(1105.994141 0)"/>
     <use xlink:href="#DejaVuSans-69" transform="translate(1163.953125 0)"/>
     <use xlink:href="#DejaVuSans-6d" transform="translate(1191.736328 0)"/>
     <use xlink:href="#DejaVuSans-65" transform="translate(1289.148438 0)"/>
    </g>
   </g>
   <g id="legend_2">
    <g id="patch_12">
     <path d="M 336.553438 64.23625 
L 384.93 64.23625 
Q 386.93 64.23625 386.93 62.23625 
L 386.93 33.88 
Q 386.93 31.88 384.93 31.88 
L 336.553438 31.88 
Q 334.553438 31.88 334.553438 33.88 
L 334.553438 62.23625 
Q 334.553438 64.23625 336.553438 64.23625 
z
" style="fill: #ffffff; opacity: 0.8; stroke: #cccccc; stroke-linejoin: miter"/>
    </g>
    <g id="line2d_28">
     <path d="M 338.553438 39.978437 
L 348.553438 39.978437 
L 358.553438 39.978437 
" style="fill: none; stroke: #2ca02c; stroke-width: 1.5; stroke-linecap: square"/>
    </g>
    <g id="text_28">
     <!-- rss -->
     <g transform="translate(366.553438 43.478437) scale(0.1 -0.1)">
      <use xlink:href="#DejaVuSans-72"/>
      <use xlink:href="#DejaVuSans-73" transform="translate(41.113281 0)"/>
      <use xlink:href="#DejaVuSans-73" transform="translate(93.212891 0)"/>
     </g>
    </g>
    <g id="line2d_29">
     <path d="M 338.553438 54.656563 
L 348.553438 54.656563 
L 358.553438 54.656563 
" style="fill: none; stroke: #d62728; stroke-width: 1.5; stroke-linecap: square"/>
    </g>
    <g id="text_29">
     <!-- vsz -->
     <g transform="translate(366.553438 58.156563) scale(0.1 -0.1)">
      <defs>
       <path id="DejaVuSans-7a" d="M 353 3500 
L 3084 3500 
L 3084 2975 
L 922 459 
L 3084 459 
L 3084 0 
L 275 0 
L 275 525 
L 2438 3041 
L 353 3041 
L 353 3500 
z
" transform="scale(0.015625)"/>
      </defs>
      <use xlink:href="#DejaVuSans-76"/>
      <use xlink:href="#DejaVuSans-73" transform="translate(59.179688 0)"/>
      <use xlink:href="#DejaVuSans-7a" transform="translate(111.279297 0)"/>
     </g>
    </g>
   </g>
  </g>
 </g>
 <defs>
  <clipPath id="pc21c5f2b94">
   <rect x="50.87" y="26.88" width="341.06" height="276.76"/>
  </clipPath>
 </defs>
</svg>
